<?xml version="1.0" encoding="UTF-8" standalone="no"?>
<!DOCTYPE svg PUBLIC "-//W3C//DTD SVG 1.1//EN"
 "http://www.w3.org/Graphics/SVG/1.1/DTD/svg11.dtd">
<!-- Generated by graphviz version 5.0.1 (0)
 -->
<!-- Title: G Pages: 1 -->
<svg width="2503pt" height="648pt"
 viewBox="0.00 0.00 2502.50 648.00" xmlns="http://www.w3.org/2000/svg" xmlns:xlink="http://www.w3.org/1999/xlink">
<g id="graph0" class="graph" transform="scale(1 1) rotate(0) translate(36 612)">
<title>G</title>
<polygon fill="white" stroke="none" points="-36,36 -36,-612 2466.5,-612 2466.5,36 -36,36"/>
<!-- Antoine Valhall&#39;Art -->
<g id="node1" class="node">
<title>Antoine Valhall&#39;Art</title>
<polygon fill="#00bfff" stroke="#c1c9e2" points="1686,-396 1564,-396 1564,-360 1686,-360 1686,-396"/>
<text text-anchor="middle" x="1625" y="-374.3" font-family="Times,serif" font-size="14.00">Antoine Valhall&#39;Art</text>
</g>
<!-- Jorge Mist -->
<g id="node2" class="node">
<title>Jorge Mist</title>
<polygon fill="#9e0e40" stroke="#c1c9e2" points="1662.5,-216 1587.5,-216 1587.5,-180 1662.5,-180 1662.5,-216"/>
<text text-anchor="middle" x="1625" y="-194.3" font-family="Times,serif" font-size="14.00">Jorge Mist</text>
</g>
<!-- Antoine Valhall&#39;Art&#45;&gt;Jorge Mist -->
<g id="edge1" class="edge">
<title>Antoine Valhall&#39;Art&#45;&gt;Jorge Mist</title>
<path fill="none" stroke="black" d="M1625,-359.93C1625,-328.97 1625,-263.3 1625,-226.13"/>
<polygon fill="black" stroke="black" points="1628.5,-226.02 1625,-216.02 1621.5,-226.02 1628.5,-226.02"/>
</g>
<!-- Logan Sharks -->
<g id="node3" class="node">
<title>Logan Sharks</title>
<polygon fill="#bdabda" stroke="#c1c9e2" points="1148,-216 1056,-216 1056,-180 1148,-180 1148,-216"/>
<text text-anchor="middle" x="1102" y="-194.3" font-family="Times,serif" font-size="14.00">Logan Sharks</text>
</g>
<!-- Antoine Valhall&#39;Art&#45;&gt;Logan Sharks -->
<g id="edge2" class="edge">
<title>Antoine Valhall&#39;Art&#45;&gt;Logan Sharks</title>
<path fill="none" stroke="black" d="M1574.85,-359.93C1476.77,-326.55 1260.21,-252.85 1157.78,-217.98"/>
<polygon fill="black" stroke="black" points="1158.82,-214.64 1148.23,-214.73 1156.57,-221.27 1158.82,-214.64"/>
</g>
<!-- Matthieu Sharks -->
<g id="node4" class="node">
<title>Matthieu Sharks</title>
<polygon fill="#bdabda" stroke="#c1c9e2" points="1327.5,-216 1220.5,-216 1220.5,-180 1327.5,-180 1327.5,-216"/>
<text text-anchor="middle" x="1274" y="-194.3" font-family="Times,serif" font-size="14.00">Matthieu Sharks</text>
</g>
<!-- Antoine Valhall&#39;Art&#45;&gt;Matthieu Sharks -->
<g id="edge3" class="edge">
<title>Antoine Valhall&#39;Art&#45;&gt;Matthieu Sharks</title>
<path fill="none" stroke="black" d="M1591.34,-359.93C1527.14,-327.37 1387.27,-256.44 1316.64,-220.62"/>
<polygon fill="black" stroke="black" points="1318.06,-217.42 1307.55,-216.02 1314.89,-223.66 1318.06,-217.42"/>
</g>
<!-- Paul Sharks -->
<g id="node5" class="node">
<title>Paul Sharks</title>
<polygon fill="#bdabda" stroke="#c1c9e2" points="2082.5,-216 2001.5,-216 2001.5,-180 2082.5,-180 2082.5,-216"/>
<text text-anchor="middle" x="2042" y="-194.3" font-family="Times,serif" font-size="14.00">Paul Sharks</text>
</g>
<!-- Antoine Valhall&#39;Art&#45;&gt;Paul Sharks -->
<g id="edge4" class="edge">
<title>Antoine Valhall&#39;Art&#45;&gt;Paul Sharks</title>
<path fill="none" stroke="black" d="M1664.98,-359.93C1741.73,-327.17 1909.47,-255.57 1992.88,-219.97"/>
<polygon fill="black" stroke="black" points="1994.31,-223.16 2002.14,-216.02 1991.57,-216.72 1994.31,-223.16"/>
</g>
<!-- Henri -->
<g id="node27" class="node">
<title>Henri</title>
<polygon fill="#c1c9e2" stroke="#c1c9e2" points="432,-36 378,-36 378,0 432,0 432,-36"/>
<text text-anchor="middle" x="405" y="-14.3" font-family="Times,serif" font-size="14.00">Henri</text>
</g>
<!-- Jorge Mist&#45;&gt;Henri -->
<g id="edge30" class="edge">
<title>Jorge Mist&#45;&gt;Henri</title>
<path fill="none" stroke="black" d="M1587.1,-189.75C1569.99,-186.58 1549.51,-182.93 1531,-180 1060.09,-105.56 935.34,-130.3 468,-36 459.46,-34.28 450.36,-32.05 441.82,-29.79"/>
<polygon fill="black" stroke="black" points="442.68,-26.39 432.11,-27.14 440.83,-33.15 442.68,-26.39"/>
</g>
<!-- Clara -->
<g id="node28" class="node">
<title>Clara</title>
<polygon fill="#c1c9e2" stroke="#c1c9e2" points="1597,-36 1543,-36 1543,0 1597,0 1597,-36"/>
<text text-anchor="middle" x="1570" y="-14.3" font-family="Times,serif" font-size="14.00">Clara</text>
</g>
<!-- Jorge Mist&#45;&gt;Clara -->
<g id="edge31" class="edge">
<title>Jorge Mist&#45;&gt;Clara</title>
<path fill="none" stroke="black" d="M1619.73,-179.93C1610.12,-148.83 1589.69,-82.73 1578.24,-45.65"/>
<polygon fill="black" stroke="black" points="1581.55,-44.54 1575.26,-36.02 1574.87,-46.6 1581.55,-44.54"/>
</g>
<!-- Alys -->
<g id="node29" class="node">
<title>Alys</title>
<polygon fill="#c1c9e2" stroke="#c1c9e2" points="1471,-36 1417,-36 1417,0 1471,0 1471,-36"/>
<text text-anchor="middle" x="1444" y="-14.3" font-family="Times,serif" font-size="14.00">Alys</text>
</g>
<!-- Jorge Mist&#45;&gt;Alys -->
<g id="edge32" class="edge">
<title>Jorge Mist&#45;&gt;Alys</title>
<path fill="none" stroke="black" d="M1607.64,-179.93C1575.35,-148.17 1505.92,-79.89 1468.73,-43.32"/>
<polygon fill="black" stroke="black" points="1470.89,-40.53 1461.3,-36.02 1465.98,-45.52 1470.89,-40.53"/>
</g>
<!-- Paco -->
<g id="node30" class="node">
<title>Paco</title>
<polygon fill="#c1c9e2" stroke="#c1c9e2" points="1723,-36 1669,-36 1669,0 1723,0 1723,-36"/>
<text text-anchor="middle" x="1696" y="-14.3" font-family="Times,serif" font-size="14.00">Paco</text>
</g>
<!-- Jorge Mist&#45;&gt;Paco -->
<g id="edge33" class="edge">
<title>Jorge Mist&#45;&gt;Paco</title>
<path fill="none" stroke="black" d="M1631.81,-179.93C1644.21,-148.83 1670.58,-82.73 1685.37,-45.65"/>
<polygon fill="black" stroke="black" points="1688.76,-46.6 1689.21,-36.02 1682.26,-44.01 1688.76,-46.6"/>
</g>
<!-- Mariette -->
<g id="node31" class="node">
<title>Mariette</title>
<polygon fill="#c1c9e2" stroke="#c1c9e2" points="1858.5,-36 1795.5,-36 1795.5,0 1858.5,0 1858.5,-36"/>
<text text-anchor="middle" x="1827" y="-14.3" font-family="Times,serif" font-size="14.00">Mariette</text>
</g>
<!-- Jorge Mist&#45;&gt;Mariette -->
<g id="edge34" class="edge">
<title>Jorge Mist&#45;&gt;Mariette</title>
<path fill="none" stroke="black" d="M1644.37,-179.93C1680.64,-147.97 1758.87,-79.04 1800.18,-42.63"/>
<polygon fill="black" stroke="black" points="1802.5,-45.25 1807.69,-36.02 1797.87,-40 1802.5,-45.25"/>
</g>
<!-- Nicolas -->
<g id="node10" class="node">
<title>Nicolas</title>
<polygon fill="#c1c9e2" stroke="#c1c9e2" points="961,-36 903,-36 903,0 961,0 961,-36"/>
<text text-anchor="middle" x="932" y="-14.3" font-family="Times,serif" font-size="14.00">Nicolas</text>
</g>
<!-- Logan Sharks&#45;&gt;Nicolas -->
<g id="edge39" class="edge">
<title>Logan Sharks&#45;&gt;Nicolas</title>
<path fill="none" stroke="black" d="M1085.7,-179.93C1055.36,-148.17 990.16,-79.89 955.22,-43.32"/>
<polygon fill="black" stroke="black" points="957.69,-40.83 948.25,-36.02 952.63,-45.66 957.69,-40.83"/>
</g>
<!-- Thomas -->
<g id="node11" class="node">
<title>Thomas</title>
<polygon fill="#c1c9e2" stroke="#c1c9e2" points="830.5,-36 769.5,-36 769.5,0 830.5,0 830.5,-36"/>
<text text-anchor="middle" x="800" y="-14.3" font-family="Times,serif" font-size="14.00">Thomas</text>
</g>
<!-- Logan Sharks&#45;&gt;Thomas -->
<g id="edge40" class="edge">
<title>Logan Sharks&#45;&gt;Thomas</title>
<path fill="none" stroke="black" d="M1073.04,-179.93C1018.14,-147.57 898.93,-77.31 837.81,-41.28"/>
<polygon fill="black" stroke="black" points="839.26,-38.08 828.87,-36.02 835.71,-44.11 839.26,-38.08"/>
</g>
<!-- Flo3 -->
<g id="node12" class="node">
<title>Flo3</title>
<polygon fill="#c1c9e2" stroke="#c1c9e2" points="1087,-36 1033,-36 1033,0 1087,0 1087,-36"/>
<text text-anchor="middle" x="1060" y="-14.3" font-family="Times,serif" font-size="14.00">Flo3</text>
</g>
<!-- Logan Sharks&#45;&gt;Flo3 -->
<g id="edge41" class="edge">
<title>Logan Sharks&#45;&gt;Flo3</title>
<path fill="none" stroke="black" d="M1097.97,-179.93C1090.67,-148.97 1075.17,-83.3 1066.4,-46.13"/>
<polygon fill="black" stroke="black" points="1069.72,-44.94 1064.01,-36.02 1062.91,-46.55 1069.72,-44.94"/>
</g>
<!-- Lili -->
<g id="node34" class="node">
<title>Lili</title>
<polygon fill="#c1c9e2" stroke="#c1c9e2" points="1213,-36 1159,-36 1159,0 1213,0 1213,-36"/>
<text text-anchor="middle" x="1186" y="-14.3" font-family="Times,serif" font-size="14.00">Lili</text>
</g>
<!-- Matthieu Sharks&#45;&gt;Lili -->
<g id="edge42" class="edge">
<title>Matthieu Sharks&#45;&gt;Lili</title>
<path fill="none" stroke="black" d="M1265.56,-179.93C1250.12,-148.7 1217.23,-82.17 1198.94,-45.18"/>
<polygon fill="black" stroke="black" points="1201.98,-43.43 1194.41,-36.02 1195.71,-46.53 1201.98,-43.43"/>
</g>
<!-- Camille -->
<g id="node35" class="node">
<title>Camille</title>
<polygon fill="#c1c9e2" stroke="#c1c9e2" points="1345,-36 1285,-36 1285,0 1345,0 1345,-36"/>
<text text-anchor="middle" x="1315" y="-14.3" font-family="Times,serif" font-size="14.00">Camille</text>
</g>
<!-- Matthieu Sharks&#45;&gt;Camille -->
<g id="edge43" class="edge">
<title>Matthieu Sharks&#45;&gt;Camille</title>
<path fill="none" stroke="black" d="M1277.93,-179.93C1285.06,-148.97 1300.19,-83.3 1308.75,-46.13"/>
<polygon fill="black" stroke="black" points="1312.25,-46.55 1311.08,-36.02 1305.43,-44.97 1312.25,-46.55"/>
</g>
<!-- Anaïs2 -->
<g id="node36" class="node">
<title>Anaïs2</title>
<polygon fill="#c1c9e2" stroke="#c1c9e2" points="2239,-36 2185,-36 2185,0 2239,0 2239,-36"/>
<text text-anchor="middle" x="2212" y="-14.3" font-family="Times,serif" font-size="14.00">Anaïs</text>
</g>
<!-- Paul Sharks&#45;&gt;Anaïs2 -->
<g id="edge45" class="edge">
<title>Paul Sharks&#45;&gt;Anaïs2</title>
<path fill="none" stroke="black" d="M2058.3,-179.93C2088.64,-148.17 2153.84,-79.89 2188.78,-43.32"/>
<polygon fill="black" stroke="black" points="2191.37,-45.66 2195.75,-36.02 2186.31,-40.83 2191.37,-45.66"/>
</g>
<!-- Melvin -->
<g id="node37" class="node">
<title>Melvin</title>
<polygon fill="#c1c9e2" stroke="#c1c9e2" points="2113,-36 2057,-36 2057,0 2113,0 2113,-36"/>
<text text-anchor="middle" x="2085" y="-14.3" font-family="Times,serif" font-size="14.00">Melvin</text>
</g>
<!-- Paul Sharks&#45;&gt;Melvin -->
<g id="edge46" class="edge">
<title>Paul Sharks&#45;&gt;Melvin</title>
<path fill="none" stroke="black" d="M2046.12,-179.93C2053.6,-148.97 2069.47,-83.3 2078.45,-46.13"/>
<polygon fill="black" stroke="black" points="2081.94,-46.56 2080.89,-36.02 2075.14,-44.91 2081.94,-46.56"/>
</g>
<!-- Gaspard Valhall&#39;Art -->
<g id="node6" class="node">
<title>Gaspard Valhall&#39;Art</title>
<polygon fill="#00bfff" stroke="#c1c9e2" points="1923.5,-396 1800.5,-396 1800.5,-360 1923.5,-360 1923.5,-396"/>
<text text-anchor="middle" x="1862" y="-374.3" font-family="Times,serif" font-size="14.00">Gaspard Valhall&#39;Art</text>
</g>
<!-- Gaspard Valhall&#39;Art&#45;&gt;Jorge Mist -->
<g id="edge5" class="edge">
<title>Gaspard Valhall&#39;Art&#45;&gt;Jorge Mist</title>
<path fill="none" stroke="black" d="M1839.28,-359.93C1796.54,-327.84 1704.17,-258.46 1655.86,-222.18"/>
<polygon fill="black" stroke="black" points="1657.75,-219.22 1647.66,-216.02 1653.55,-224.82 1657.75,-219.22"/>
</g>
<!-- Gaspard Valhall&#39;Art&#45;&gt;Logan Sharks -->
<g id="edge6" class="edge">
<title>Gaspard Valhall&#39;Art&#45;&gt;Logan Sharks</title>
<path fill="none" stroke="black" d="M1800.45,-362.58C1656,-328.75 1297,-244.67 1158.11,-212.14"/>
<polygon fill="black" stroke="black" points="1158.64,-208.67 1148.11,-209.8 1157.04,-215.49 1158.64,-208.67"/>
</g>
<!-- Clovis Sharks -->
<g id="node7" class="node">
<title>Clovis Sharks</title>
<polygon fill="#bdabda" stroke="#c1c9e2" points="2247,-216 2155,-216 2155,-180 2247,-180 2247,-216"/>
<text text-anchor="middle" x="2201" y="-194.3" font-family="Times,serif" font-size="14.00">Clovis Sharks</text>
</g>
<!-- Gaspard Valhall&#39;Art&#45;&gt;Clovis Sharks -->
<g id="edge7" class="edge">
<title>Gaspard Valhall&#39;Art&#45;&gt;Clovis Sharks</title>
<path fill="none" stroke="black" d="M1894.5,-359.93C1956.39,-327.44 2091.05,-256.73 2159.4,-220.84"/>
<polygon fill="black" stroke="black" points="2161.37,-223.76 2168.59,-216.02 2158.11,-217.57 2161.37,-223.76"/>
</g>
<!-- Gabriel Katan&#39;Art -->
<g id="node8" class="node">
<title>Gabriel Katan&#39;Art</title>
<polygon fill="#ffcba4" stroke="#c1c9e2" points="1929.5,-216 1816.5,-216 1816.5,-180 1929.5,-180 1929.5,-216"/>
<text text-anchor="middle" x="1873" y="-194.3" font-family="Times,serif" font-size="14.00">Gabriel Katan&#39;Art</text>
</g>
<!-- Gaspard Valhall&#39;Art&#45;&gt;Gabriel Katan&#39;Art -->
<g id="edge8" class="edge">
<title>Gaspard Valhall&#39;Art&#45;&gt;Gabriel Katan&#39;Art</title>
<path fill="none" stroke="black" d="M1863.05,-359.93C1864.97,-328.97 1869.03,-263.3 1871.32,-226.13"/>
<polygon fill="black" stroke="black" points="1874.82,-226.21 1871.95,-216.02 1867.84,-225.78 1874.82,-226.21"/>
</g>
<!-- Clovis Sharks&#45;&gt;Anaïs2 -->
<g id="edge44" class="edge">
<title>Clovis Sharks&#45;&gt;Anaïs2</title>
<path fill="none" stroke="black" d="M2202.05,-179.93C2203.97,-148.97 2208.03,-83.3 2210.32,-46.13"/>
<polygon fill="black" stroke="black" points="2213.82,-46.21 2210.95,-36.02 2206.84,-45.78 2213.82,-46.21"/>
</g>
<!-- Gabriel Katan&#39;Art&#45;&gt;Melvin -->
<g id="edge47" class="edge">
<title>Gabriel Katan&#39;Art&#45;&gt;Melvin</title>
<path fill="none" stroke="black" d="M1893.33,-179.93C1931.4,-147.97 2013.5,-79.04 2056.86,-42.63"/>
<polygon fill="black" stroke="black" points="2059.33,-45.13 2064.73,-36.02 2054.83,-39.77 2059.33,-45.13"/>
</g>
<!-- Julien -->
<g id="node38" class="node">
<title>Julien</title>
<polygon fill="#c1c9e2" stroke="#c1c9e2" points="1985,-36 1931,-36 1931,0 1985,0 1985,-36"/>
<text text-anchor="middle" x="1958" y="-14.3" font-family="Times,serif" font-size="14.00">Julien</text>
</g>
<!-- Gabriel Katan&#39;Art&#45;&gt;Julien -->
<g id="edge48" class="edge">
<title>Gabriel Katan&#39;Art&#45;&gt;Julien</title>
<path fill="none" stroke="black" d="M1881.15,-179.93C1896.06,-148.7 1927.84,-82.17 1945.5,-45.18"/>
<polygon fill="black" stroke="black" points="1948.72,-46.55 1949.87,-36.02 1942.41,-43.53 1948.72,-46.55"/>
</g>
<!-- Lucie Sharks -->
<g id="node9" class="node">
<title>Lucie Sharks</title>
<polygon fill="#bdabda" stroke="#c1c9e2" points="844,-216 756,-216 756,-180 844,-180 844,-216"/>
<text text-anchor="middle" x="800" y="-194.3" font-family="Times,serif" font-size="14.00">Lucie Sharks</text>
</g>
<!-- Lucie Sharks&#45;&gt;Nicolas -->
<g id="edge9" class="edge">
<title>Lucie Sharks&#45;&gt;Nicolas</title>
<path fill="none" stroke="black" d="M812.66,-179.93C836.01,-148.43 886,-81.03 913.28,-44.24"/>
<polygon fill="black" stroke="black" points="916.24,-46.13 919.38,-36.02 910.61,-41.96 916.24,-46.13"/>
</g>
<!-- Lucie Sharks&#45;&gt;Thomas -->
<g id="edge10" class="edge">
<title>Lucie Sharks&#45;&gt;Thomas</title>
<path fill="none" stroke="black" d="M800,-179.93C800,-148.97 800,-83.3 800,-46.13"/>
<polygon fill="black" stroke="black" points="803.5,-46.02 800,-36.02 796.5,-46.02 803.5,-46.02"/>
</g>
<!-- Lucie Sharks&#45;&gt;Flo3 -->
<g id="edge11" class="edge">
<title>Lucie Sharks&#45;&gt;Flo3</title>
<path fill="none" stroke="black" d="M824.93,-179.93C872.01,-147.7 973.99,-77.89 1026.8,-41.73"/>
<polygon fill="black" stroke="black" points="1028.87,-44.55 1035.15,-36.02 1024.92,-38.78 1028.87,-44.55"/>
</g>
<!-- Lalie Valhall&#39;Art -->
<g id="node13" class="node">
<title>Lalie Valhall&#39;Art</title>
<polygon fill="#00bfff" stroke="#c1c9e2" points="1079,-396 973,-396 973,-360 1079,-360 1079,-396"/>
<text text-anchor="middle" x="1026" y="-374.3" font-family="Times,serif" font-size="14.00">Lalie Valhall&#39;Art</text>
</g>
<!-- Lalie Valhall&#39;Art&#45;&gt;Logan Sharks -->
<g id="edge12" class="edge">
<title>Lalie Valhall&#39;Art&#45;&gt;Logan Sharks</title>
<path fill="none" stroke="black" d="M1033.29,-359.93C1046.57,-328.83 1074.79,-262.73 1090.62,-225.65"/>
<polygon fill="black" stroke="black" points="1094.03,-226.59 1094.73,-216.02 1087.59,-223.84 1094.03,-226.59"/>
</g>
<!-- Virgile Sharks -->
<g id="node14" class="node">
<title>Virgile Sharks</title>
<polygon fill="#bdabda" stroke="#c1c9e2" points="1494.5,-216 1399.5,-216 1399.5,-180 1494.5,-180 1494.5,-216"/>
<text text-anchor="middle" x="1447" y="-194.3" font-family="Times,serif" font-size="14.00">Virgile Sharks</text>
</g>
<!-- Lalie Valhall&#39;Art&#45;&gt;Virgile Sharks -->
<g id="edge13" class="edge">
<title>Lalie Valhall&#39;Art&#45;&gt;Virgile Sharks</title>
<path fill="none" stroke="black" d="M1066.37,-359.93C1143.85,-327.17 1313.2,-255.57 1397.41,-219.97"/>
<polygon fill="black" stroke="black" points="1398.91,-223.13 1406.75,-216.02 1396.18,-216.69 1398.91,-223.13"/>
</g>
<!-- Lucas Sharks -->
<g id="node15" class="node">
<title>Lucas Sharks</title>
<polygon fill="#bdabda" stroke="#c1c9e2" points="683.5,-216 594.5,-216 594.5,-180 683.5,-180 683.5,-216"/>
<text text-anchor="middle" x="639" y="-194.3" font-family="Times,serif" font-size="14.00">Lucas Sharks</text>
</g>
<!-- Lalie Valhall&#39;Art&#45;&gt;Lucas Sharks -->
<g id="edge14" class="edge">
<title>Lalie Valhall&#39;Art&#45;&gt;Lucas Sharks</title>
<path fill="none" stroke="black" d="M988.89,-359.93C917.96,-327.31 763.26,-256.15 685.53,-220.4"/>
<polygon fill="black" stroke="black" points="686.54,-217.01 675.99,-216.02 683.62,-223.37 686.54,-217.01"/>
</g>
<!-- Nils Mist -->
<g id="node16" class="node">
<title>Nils Mist</title>
<polygon fill="#9e0e40" stroke="#c1c9e2" points="984,-216 916,-216 916,-180 984,-180 984,-216"/>
<text text-anchor="middle" x="950" y="-194.3" font-family="Times,serif" font-size="14.00">Nils Mist</text>
</g>
<!-- Lalie Valhall&#39;Art&#45;&gt;Nils Mist -->
<g id="edge15" class="edge">
<title>Lalie Valhall&#39;Art&#45;&gt;Nils Mist</title>
<path fill="none" stroke="black" d="M1018.71,-359.93C1005.43,-328.83 977.21,-262.73 961.38,-225.65"/>
<polygon fill="black" stroke="black" points="964.41,-223.84 957.27,-216.02 957.97,-226.59 964.41,-223.84"/>
</g>
<!-- Virgile Sharks&#45;&gt;Alys -->
<g id="edge35" class="edge">
<title>Virgile Sharks&#45;&gt;Alys</title>
<path fill="none" stroke="black" d="M1446.71,-179.93C1446.19,-148.97 1445.08,-83.3 1444.46,-46.13"/>
<polygon fill="black" stroke="black" points="1447.95,-45.96 1444.29,-36.02 1440.96,-46.07 1447.95,-45.96"/>
</g>
<!-- Charlotte -->
<g id="node39" class="node">
<title>Charlotte</title>
<polygon fill="#c1c9e2" stroke="#c1c9e2" points="697.5,-36 630.5,-36 630.5,0 697.5,0 697.5,-36"/>
<text text-anchor="middle" x="664" y="-14.3" font-family="Times,serif" font-size="14.00">Charlotte</text>
</g>
<!-- Lucas Sharks&#45;&gt;Charlotte -->
<g id="edge49" class="edge">
<title>Lucas Sharks&#45;&gt;Charlotte</title>
<path fill="none" stroke="black" d="M641.4,-179.93C645.75,-148.97 654.97,-83.3 660.19,-46.13"/>
<polygon fill="black" stroke="black" points="663.69,-46.41 661.61,-36.02 656.75,-45.43 663.69,-46.41"/>
</g>
<!-- Lou -->
<g id="node40" class="node">
<title>Lou</title>
<polygon fill="#c1c9e2" stroke="#c1c9e2" points="306,-36 252,-36 252,0 306,0 306,-36"/>
<text text-anchor="middle" x="279" y="-14.3" font-family="Times,serif" font-size="14.00">Lou</text>
</g>
<!-- Lucas Sharks&#45;&gt;Lou -->
<g id="edge50" class="edge">
<title>Lucas Sharks&#45;&gt;Lou</title>
<path fill="none" stroke="black" d="M604.48,-179.93C536.41,-146.27 385.42,-71.62 315.65,-37.12"/>
<polygon fill="black" stroke="black" points="316.88,-33.83 306.37,-32.53 313.78,-40.1 316.88,-33.83"/>
</g>
<!-- Amaël -->
<g id="node41" class="node">
<title>Amaël</title>
<polygon fill="#c1c9e2" stroke="#c1c9e2" points="558,-36 504,-36 504,0 558,0 558,-36"/>
<text text-anchor="middle" x="531" y="-14.3" font-family="Times,serif" font-size="14.00">Amaël</text>
</g>
<!-- Lucas Sharks&#45;&gt;Amaël -->
<g id="edge51" class="edge">
<title>Lucas Sharks&#45;&gt;Amaël</title>
<path fill="none" stroke="black" d="M628.64,-179.93C609.61,-148.57 568.98,-81.6 546.6,-44.71"/>
<polygon fill="black" stroke="black" points="549.5,-42.75 541.32,-36.02 543.52,-46.38 549.5,-42.75"/>
</g>
<!-- Quentin Valhall&#39;Art -->
<g id="node17" class="node">
<title>Quentin Valhall&#39;Art</title>
<polygon fill="#00bfff" stroke="#c1c9e2" points="2383,-396 2261,-396 2261,-360 2383,-360 2383,-396"/>
<text text-anchor="middle" x="2322" y="-374.3" font-family="Times,serif" font-size="14.00">Quentin Valhall&#39;Art</text>
</g>
<!-- Olivier Katan&#39;Art -->
<g id="node18" class="node">
<title>Olivier Katan&#39;Art</title>
<polygon fill="#ffcba4" stroke="#c1c9e2" points="2430.5,-216 2319.5,-216 2319.5,-180 2430.5,-180 2430.5,-216"/>
<text text-anchor="middle" x="2375" y="-194.3" font-family="Times,serif" font-size="14.00">Olivier Katan&#39;Art</text>
</g>
<!-- Quentin Valhall&#39;Art&#45;&gt;Olivier Katan&#39;Art -->
<g id="edge16" class="edge">
<title>Quentin Valhall&#39;Art&#45;&gt;Olivier Katan&#39;Art</title>
<path fill="none" stroke="black" d="M2327.08,-359.93C2336.34,-328.83 2356.02,-262.73 2367.06,-225.65"/>
<polygon fill="black" stroke="black" points="2370.43,-226.6 2369.93,-216.02 2363.73,-224.6 2370.43,-226.6"/>
</g>
<!-- Maxime Pulsar -->
<g id="node19" class="node">
<title>Maxime Pulsar</title>
<polygon fill="#a300a3" stroke="#c1c9e2" points="1912.5,-576 1811.5,-576 1811.5,-540 1912.5,-540 1912.5,-576"/>
<text text-anchor="middle" x="1862" y="-554.3" font-family="Times,serif" font-size="14.00">Maxime Pulsar</text>
</g>
<!-- Maxime Pulsar&#45;&gt;Antoine Valhall&#39;Art -->
<g id="edge17" class="edge">
<title>Maxime Pulsar&#45;&gt;Antoine Valhall&#39;Art</title>
<path fill="none" stroke="black" d="M1839.28,-539.93C1796.54,-507.84 1704.17,-438.46 1655.86,-402.18"/>
<polygon fill="black" stroke="black" points="1657.75,-399.22 1647.66,-396.02 1653.55,-404.82 1657.75,-399.22"/>
</g>
<!-- Maxime Pulsar&#45;&gt;Gaspard Valhall&#39;Art -->
<g id="edge18" class="edge">
<title>Maxime Pulsar&#45;&gt;Gaspard Valhall&#39;Art</title>
<path fill="none" stroke="black" d="M1862,-539.93C1862,-508.97 1862,-443.3 1862,-406.13"/>
<polygon fill="black" stroke="black" points="1865.5,-406.02 1862,-396.02 1858.5,-406.02 1865.5,-406.02"/>
</g>
<!-- Maxime Pulsar&#45;&gt;Clovis Sharks -->
<g id="edge19" class="edge">
<title>Maxime Pulsar&#45;&gt;Clovis Sharks</title>
<path fill="none" stroke="black" d="M1878.35,-539.73C1933.62,-481.36 2113.61,-291.29 2177.91,-223.39"/>
<polygon fill="black" stroke="black" points="2180.48,-225.76 2184.81,-216.09 2175.4,-220.95 2180.48,-225.76"/>
</g>
<!-- Maxime Pulsar&#45;&gt;Lalie Valhall&#39;Art -->
<g id="edge20" class="edge">
<title>Maxime Pulsar&#45;&gt;Lalie Valhall&#39;Art</title>
<path fill="none" stroke="black" d="M1811.28,-546.2C1666.06,-515.28 1248.94,-426.47 1089.24,-392.47"/>
<polygon fill="black" stroke="black" points="1089.61,-388.97 1079.1,-390.31 1088.15,-395.81 1089.61,-388.97"/>
</g>
<!-- Maxime Pulsar&#45;&gt;Quentin Valhall&#39;Art -->
<g id="edge21" class="edge">
<title>Maxime Pulsar&#45;&gt;Quentin Valhall&#39;Art</title>
<path fill="none" stroke="black" d="M1906.11,-539.93C1991.03,-507.07 2176.93,-435.14 2268.65,-399.64"/>
<polygon fill="black" stroke="black" points="2269.96,-402.89 2278.03,-396.02 2267.44,-396.36 2269.96,-402.89"/>
</g>
<!-- Yanis Pulsar -->
<g id="node20" class="node">
<title>Yanis Pulsar</title>
<polygon fill="#a300a3" stroke="#c1c9e2" points="455.5,-576 370.5,-576 370.5,-540 455.5,-540 455.5,-576"/>
<text text-anchor="middle" x="413" y="-554.3" font-family="Times,serif" font-size="14.00">Yanis Pulsar</text>
</g>
<!-- Yanis Pulsar&#45;&gt;Lalie Valhall&#39;Art -->
<g id="edge22" class="edge">
<title>Yanis Pulsar&#45;&gt;Lalie Valhall&#39;Art</title>
<path fill="none" stroke="black" d="M455.62,-544.62C561.76,-513.8 838.32,-433.5 963.19,-397.24"/>
<polygon fill="black" stroke="black" points="964.37,-400.54 973,-394.39 962.42,-393.82 964.37,-400.54"/>
</g>
<!-- Robin Horn -->
<g id="node21" class="node">
<title>Robin Horn</title>
<polygon fill="#f2be00" stroke="#c1c9e2" points="539.5,-396 458.5,-396 458.5,-360 539.5,-360 539.5,-396"/>
<text text-anchor="middle" x="499" y="-374.3" font-family="Times,serif" font-size="14.00">Robin Horn</text>
</g>
<!-- Yanis Pulsar&#45;&gt;Robin Horn -->
<g id="edge23" class="edge">
<title>Yanis Pulsar&#45;&gt;Robin Horn</title>
<path fill="none" stroke="black" d="M421.25,-539.93C436.34,-508.7 468.48,-442.17 486.35,-405.18"/>
<polygon fill="black" stroke="black" points="489.58,-406.54 490.78,-396.02 483.28,-403.5 489.58,-406.54"/>
</g>
<!-- Vincent Valhall&#39;Art -->
<g id="node22" class="node">
<title>Vincent Valhall&#39;Art</title>
<polygon fill="#00bfff" stroke="#c1c9e2" points="386.5,-396 265.5,-396 265.5,-360 386.5,-360 386.5,-396"/>
<text text-anchor="middle" x="326" y="-374.3" font-family="Times,serif" font-size="14.00">Vincent Valhall&#39;Art</text>
</g>
<!-- Yanis Pulsar&#45;&gt;Vincent Valhall&#39;Art -->
<g id="edge24" class="edge">
<title>Yanis Pulsar&#45;&gt;Vincent Valhall&#39;Art</title>
<path fill="none" stroke="black" d="M404.66,-539.93C389.39,-508.7 356.87,-442.17 338.8,-405.18"/>
<polygon fill="black" stroke="black" points="341.85,-403.46 334.32,-396.02 335.56,-406.54 341.85,-403.46"/>
</g>
<!-- Thaïs Dice -->
<g id="node23" class="node">
<title>Thaïs Dice</title>
<polygon fill="#ff4d5c" stroke="#c1c9e2" points="193,-396 117,-396 117,-360 193,-360 193,-396"/>
<text text-anchor="middle" x="155" y="-374.3" font-family="Times,serif" font-size="14.00">Thaïs Dice</text>
</g>
<!-- Yanis Pulsar&#45;&gt;Thaïs Dice -->
<g id="edge25" class="edge">
<title>Yanis Pulsar&#45;&gt;Thaïs Dice</title>
<path fill="none" stroke="black" d="M388.26,-539.93C341.55,-507.7 240.35,-437.89 187.94,-401.73"/>
<polygon fill="black" stroke="black" points="189.88,-398.81 179.66,-396.02 185.91,-404.58 189.88,-398.81"/>
</g>
<!-- Robin Horn&#45;&gt;Lucie Sharks -->
<g id="edge26" class="edge">
<title>Robin Horn&#45;&gt;Lucie Sharks</title>
<path fill="none" stroke="black" d="M527.86,-359.93C582.59,-327.57 701.4,-257.31 762.32,-221.28"/>
<polygon fill="black" stroke="black" points="764.4,-224.12 771.23,-216.02 760.84,-218.09 764.4,-224.12"/>
</g>
<!-- Adrien Gold -->
<g id="node24" class="node">
<title>Adrien Gold</title>
<polygon fill="#ffffff" stroke="#c1c9e2" points="522.5,-216 437.5,-216 437.5,-180 522.5,-180 522.5,-216"/>
<text text-anchor="middle" x="480" y="-194.3" font-family="Times,serif" font-size="14.00">Adrien Gold</text>
</g>
<!-- Robin Horn&#45;&gt;Adrien Gold -->
<g id="edge27" class="edge">
<title>Robin Horn&#45;&gt;Adrien Gold</title>
<path fill="none" stroke="black" d="M497.18,-359.93C493.87,-328.97 486.86,-263.3 482.9,-226.13"/>
<polygon fill="black" stroke="black" points="486.36,-225.59 481.82,-216.02 479.4,-226.33 486.36,-225.59"/>
</g>
<!-- Flavien Sharks -->
<g id="node25" class="node">
<title>Flavien Sharks</title>
<polygon fill="#bdabda" stroke="#c1c9e2" points="208,-216 110,-216 110,-180 208,-180 208,-216"/>
<text text-anchor="middle" x="159" y="-194.3" font-family="Times,serif" font-size="14.00">Flavien Sharks</text>
</g>
<!-- Vincent Valhall&#39;Art&#45;&gt;Flavien Sharks -->
<g id="edge28" class="edge">
<title>Vincent Valhall&#39;Art&#45;&gt;Flavien Sharks</title>
<path fill="none" stroke="black" d="M309.99,-359.93C280.19,-328.17 216.13,-259.89 181.81,-223.32"/>
<polygon fill="black" stroke="black" points="184.36,-220.91 174.96,-216.02 179.25,-225.7 184.36,-220.91"/>
</g>
<!-- Zoe Mist -->
<g id="node26" class="node">
<title>Zoe Mist</title>
<polygon fill="#9e0e40" stroke="#c1c9e2" points="359.5,-216 292.5,-216 292.5,-180 359.5,-180 359.5,-216"/>
<text text-anchor="middle" x="326" y="-194.3" font-family="Times,serif" font-size="14.00">Zoe Mist</text>
</g>
<!-- Vincent Valhall&#39;Art&#45;&gt;Zoe Mist -->
<g id="edge29" class="edge">
<title>Vincent Valhall&#39;Art&#45;&gt;Zoe Mist</title>
<path fill="none" stroke="black" d="M326,-359.93C326,-328.97 326,-263.3 326,-226.13"/>
<polygon fill="black" stroke="black" points="329.5,-226.02 326,-216.02 322.5,-226.02 329.5,-226.02"/>
</g>
<!-- Flavien Sharks&#45;&gt;Henri -->
<g id="edge36" class="edge">
<title>Flavien Sharks&#45;&gt;Henri</title>
<path fill="none" stroke="black" d="M182.59,-179.93C227.04,-147.77 323.22,-78.17 373.28,-41.95"/>
<polygon fill="black" stroke="black" points="375.43,-44.71 381.48,-36.02 371.33,-39.04 375.43,-44.71"/>
</g>
<!-- Anaïs1 -->
<g id="node32" class="node">
<title>Anaïs1</title>
<polygon fill="#c1c9e2" stroke="#c1c9e2" points="180,-36 126,-36 126,0 180,0 180,-36"/>
<text text-anchor="middle" x="153" y="-14.3" font-family="Times,serif" font-size="14.00">Anaïs</text>
</g>
<!-- Flavien Sharks&#45;&gt;Anaïs1 -->
<g id="edge37" class="edge">
<title>Flavien Sharks&#45;&gt;Anaïs1</title>
<path fill="none" stroke="black" d="M158.42,-179.93C157.38,-148.97 155.17,-83.3 153.91,-46.13"/>
<polygon fill="black" stroke="black" points="157.41,-45.89 153.57,-36.02 150.41,-46.13 157.41,-45.89"/>
</g>
<!-- Sarah -->
<g id="node33" class="node">
<title>Sarah</title>
<polygon fill="#c1c9e2" stroke="#c1c9e2" points="54,-36 0,-36 0,0 54,0 54,-36"/>
<text text-anchor="middle" x="27" y="-14.3" font-family="Times,serif" font-size="14.00">Sarah</text>
</g>
<!-- Flavien Sharks&#45;&gt;Sarah -->
<g id="edge38" class="edge">
<title>Flavien Sharks&#45;&gt;Sarah</title>
<path fill="none" stroke="black" d="M146.34,-179.93C122.99,-148.43 73,-81.03 45.72,-44.24"/>
<polygon fill="black" stroke="black" points="48.39,-41.96 39.62,-36.02 42.76,-46.13 48.39,-41.96"/>
</g>
</g>
</svg>
