<?xml version="1.0" encoding="UTF-8" standalone="no"?>
<!DOCTYPE svg PUBLIC "-//W3C//DTD SVG 1.1//EN"
 "http://www.w3.org/Graphics/SVG/1.1/DTD/svg11.dtd">
<!-- Generated by graphviz version 5.0.1 (0)
 -->
<!-- Title: G Pages: 1 -->
<svg width="2920pt" height="648pt"
 viewBox="0.00 0.00 2919.50 648.00" xmlns="http://www.w3.org/2000/svg" xmlns:xlink="http://www.w3.org/1999/xlink">
<g id="graph0" class="graph" transform="scale(1 1) rotate(0) translate(36 612)">
<title>G</title>
<polygon fill="white" stroke="none" points="-36,36 -36,-612 2883.5,-612 2883.5,36 -36,36"/>
<!-- Antoine Valhall&#39;Art -->
<g id="node1" class="node">
<title>Antoine Valhall&#39;Art</title>
<polygon fill="#00bfff" stroke="#c1c9e2" points="2128,-396 2006,-396 2006,-360 2128,-360 2128,-396"/>
<text text-anchor="middle" x="2067" y="-374.3" font-family="Times,serif" font-size="14.00">Antoine Valhall&#39;Art</text>
</g>
<!-- Jorge Mist -->
<g id="node2" class="node">
<title>Jorge Mist</title>
<polygon fill="#9e0e40" stroke="#c1c9e2" points="2145.5,-216 2070.5,-216 2070.5,-180 2145.5,-180 2145.5,-216"/>
<text text-anchor="middle" x="2108" y="-194.3" font-family="Times,serif" font-size="14.00">Jorge Mist</text>
</g>
<!-- Antoine Valhall&#39;Art&#45;&gt;Jorge Mist -->
<g id="edge1" class="edge">
<title>Antoine Valhall&#39;Art&#45;&gt;Jorge Mist</title>
<path fill="none" stroke="black" d="M2070.93,-359.93C2078.06,-328.97 2093.19,-263.3 2101.75,-226.13"/>
<polygon fill="black" stroke="black" points="2105.25,-226.55 2104.08,-216.02 2098.43,-224.97 2105.25,-226.55"/>
</g>
<!-- Logan Sharks -->
<g id="node3" class="node">
<title>Logan Sharks</title>
<polygon fill="#bdabda" stroke="#c1c9e2" points="1287,-216 1195,-216 1195,-180 1287,-180 1287,-216"/>
<text text-anchor="middle" x="1241" y="-194.3" font-family="Times,serif" font-size="14.00">Logan Sharks</text>
</g>
<!-- Antoine Valhall&#39;Art&#45;&gt;Logan Sharks -->
<g id="edge2" class="edge">
<title>Antoine Valhall&#39;Art&#45;&gt;Logan Sharks</title>
<path fill="none" stroke="black" d="M2005.93,-363.84C1851.42,-330.54 1446.67,-243.32 1297.37,-211.15"/>
<polygon fill="black" stroke="black" points="1298.01,-207.7 1287.49,-209.02 1296.53,-214.55 1298.01,-207.7"/>
</g>
<!-- Matthieu Sharks -->
<g id="node4" class="node">
<title>Matthieu Sharks</title>
<polygon fill="#bdabda" stroke="#c1c9e2" points="1998.5,-216 1891.5,-216 1891.5,-180 1998.5,-180 1998.5,-216"/>
<text text-anchor="middle" x="1945" y="-194.3" font-family="Times,serif" font-size="14.00">Matthieu Sharks</text>
</g>
<!-- Antoine Valhall&#39;Art&#45;&gt;Matthieu Sharks -->
<g id="edge3" class="edge">
<title>Antoine Valhall&#39;Art&#45;&gt;Matthieu Sharks</title>
<path fill="none" stroke="black" d="M2055.3,-359.93C2033.8,-328.57 1987.91,-261.6 1962.62,-224.71"/>
<polygon fill="black" stroke="black" points="1965.2,-222.29 1956.66,-216.02 1959.43,-226.24 1965.2,-222.29"/>
</g>
<!-- Paul Sharks -->
<g id="node5" class="node">
<title>Paul Sharks</title>
<polygon fill="#bdabda" stroke="#c1c9e2" points="2314.5,-216 2233.5,-216 2233.5,-180 2314.5,-180 2314.5,-216"/>
<text text-anchor="middle" x="2274" y="-194.3" font-family="Times,serif" font-size="14.00">Paul Sharks</text>
</g>
<!-- Antoine Valhall&#39;Art&#45;&gt;Paul Sharks -->
<g id="edge4" class="edge">
<title>Antoine Valhall&#39;Art&#45;&gt;Paul Sharks</title>
<path fill="none" stroke="black" d="M2086.85,-359.93C2124.02,-327.97 2204.18,-259.04 2246.52,-222.63"/>
<polygon fill="black" stroke="black" points="2248.91,-225.19 2254.21,-216.02 2244.35,-219.88 2248.91,-225.19"/>
</g>
<!-- Henri -->
<g id="node28" class="node">
<title>Henri</title>
<polygon fill="#c1c9e2" stroke="#c1c9e2" points="818,-36 764,-36 764,0 818,0 818,-36"/>
<text text-anchor="middle" x="791" y="-14.3" font-family="Times,serif" font-size="14.00">Henri</text>
</g>
<!-- Jorge Mist&#45;&gt;Henri -->
<g id="edge31" class="edge">
<title>Jorge Mist&#45;&gt;Henri</title>
<path fill="none" stroke="black" d="M2070.27,-187.4C2058.98,-184.75 2046.53,-182.04 2035,-180 1514.31,-87.9 1373.01,-137.13 854,-36 845.45,-34.33 836.35,-32.13 827.8,-29.87"/>
<polygon fill="black" stroke="black" points="828.66,-26.48 818.09,-27.22 826.81,-33.23 828.66,-26.48"/>
</g>
<!-- Clara -->
<g id="node29" class="node">
<title>Clara</title>
<polygon fill="#c1c9e2" stroke="#c1c9e2" points="2120,-36 2066,-36 2066,0 2120,0 2120,-36"/>
<text text-anchor="middle" x="2093" y="-14.3" font-family="Times,serif" font-size="14.00">Clara</text>
</g>
<!-- Jorge Mist&#45;&gt;Clara -->
<g id="edge32" class="edge">
<title>Jorge Mist&#45;&gt;Clara</title>
<path fill="none" stroke="black" d="M2106.56,-179.93C2103.95,-148.97 2098.42,-83.3 2095.29,-46.13"/>
<polygon fill="black" stroke="black" points="2098.76,-45.69 2094.43,-36.02 2091.79,-46.27 2098.76,-45.69"/>
</g>
<!-- Alys -->
<g id="node30" class="node">
<title>Alys</title>
<polygon fill="#c1c9e2" stroke="#c1c9e2" points="1736,-36 1682,-36 1682,0 1736,0 1736,-36"/>
<text text-anchor="middle" x="1709" y="-14.3" font-family="Times,serif" font-size="14.00">Alys</text>
</g>
<!-- Jorge Mist&#45;&gt;Alys -->
<g id="edge33" class="edge">
<title>Jorge Mist&#45;&gt;Alys</title>
<path fill="none" stroke="black" d="M2070.46,-180.25C1994.06,-146.17 1821.34,-69.12 1745.67,-35.36"/>
<polygon fill="black" stroke="black" points="1746.64,-31.96 1736.09,-31.08 1743.79,-38.35 1746.64,-31.96"/>
</g>
<!-- Paco -->
<g id="node31" class="node">
<title>Paco</title>
<polygon fill="#c1c9e2" stroke="#c1c9e2" points="2246,-36 2192,-36 2192,0 2246,0 2246,-36"/>
<text text-anchor="middle" x="2219" y="-14.3" font-family="Times,serif" font-size="14.00">Paco</text>
</g>
<!-- Jorge Mist&#45;&gt;Paco -->
<g id="edge34" class="edge">
<title>Jorge Mist&#45;&gt;Paco</title>
<path fill="none" stroke="black" d="M2118.64,-179.93C2138.2,-148.57 2179.96,-81.6 2202.97,-44.71"/>
<polygon fill="black" stroke="black" points="2206.07,-46.35 2208.39,-36.02 2200.13,-42.65 2206.07,-46.35"/>
</g>
<!-- Mariette -->
<g id="node32" class="node">
<title>Mariette</title>
<polygon fill="#c1c9e2" stroke="#c1c9e2" points="2381.5,-36 2318.5,-36 2318.5,0 2381.5,0 2381.5,-36"/>
<text text-anchor="middle" x="2350" y="-14.3" font-family="Times,serif" font-size="14.00">Mariette</text>
</g>
<!-- Jorge Mist&#45;&gt;Mariette -->
<g id="edge35" class="edge">
<title>Jorge Mist&#45;&gt;Mariette</title>
<path fill="none" stroke="black" d="M2131.2,-179.93C2174.93,-147.77 2269.55,-78.17 2318.79,-41.95"/>
<polygon fill="black" stroke="black" points="2320.88,-44.76 2326.87,-36.02 2316.74,-39.12 2320.88,-44.76"/>
</g>
<!-- Nicolas -->
<g id="node10" class="node">
<title>Nicolas</title>
<polygon fill="#c1c9e2" stroke="#c1c9e2" points="1082,-36 1024,-36 1024,0 1082,0 1082,-36"/>
<text text-anchor="middle" x="1053" y="-14.3" font-family="Times,serif" font-size="14.00">Nicolas</text>
</g>
<!-- Logan Sharks&#45;&gt;Nicolas -->
<g id="edge41" class="edge">
<title>Logan Sharks&#45;&gt;Nicolas</title>
<path fill="none" stroke="black" d="M1222.97,-179.93C1189.43,-148.17 1117.31,-79.89 1078.68,-43.32"/>
<polygon fill="black" stroke="black" points="1080.64,-40.35 1070.97,-36.02 1075.83,-45.43 1080.64,-40.35"/>
</g>
<!-- Thomas -->
<g id="node11" class="node">
<title>Thomas</title>
<polygon fill="#c1c9e2" stroke="#c1c9e2" points="951.5,-36 890.5,-36 890.5,0 951.5,0 951.5,-36"/>
<text text-anchor="middle" x="921" y="-14.3" font-family="Times,serif" font-size="14.00">Thomas</text>
</g>
<!-- Logan Sharks&#45;&gt;Thomas -->
<g id="edge42" class="edge">
<title>Logan Sharks&#45;&gt;Thomas</title>
<path fill="none" stroke="black" d="M1210.32,-179.93C1152.02,-147.5 1025.31,-77.02 960.66,-41.06"/>
<polygon fill="black" stroke="black" points="962.03,-37.82 951.59,-36.02 958.63,-43.94 962.03,-37.82"/>
</g>
<!-- Flo3 -->
<g id="node12" class="node">
<title>Flo3</title>
<polygon fill="#c1c9e2" stroke="#c1c9e2" points="692,-36 638,-36 638,0 692,0 692,-36"/>
<text text-anchor="middle" x="665" y="-14.3" font-family="Times,serif" font-size="14.00">Flo3</text>
</g>
<!-- Logan Sharks&#45;&gt;Flo3 -->
<g id="edge43" class="edge">
<title>Logan Sharks&#45;&gt;Flo3</title>
<path fill="none" stroke="black" d="M1194.84,-182.73C1083.73,-148.4 803.14,-61.69 702.03,-30.44"/>
<polygon fill="black" stroke="black" points="702.85,-27.03 692.27,-27.43 700.79,-33.72 702.85,-27.03"/>
</g>
<!-- Lili -->
<g id="node36" class="node">
<title>Lili</title>
<polygon fill="#c1c9e2" stroke="#c1c9e2" points="1994,-36 1940,-36 1940,0 1994,0 1994,-36"/>
<text text-anchor="middle" x="1967" y="-14.3" font-family="Times,serif" font-size="14.00">Lili</text>
</g>
<!-- Matthieu Sharks&#45;&gt;Lili -->
<g id="edge44" class="edge">
<title>Matthieu Sharks&#45;&gt;Lili</title>
<path fill="none" stroke="black" d="M1947.11,-179.93C1950.94,-148.97 1959.05,-83.3 1963.65,-46.13"/>
<polygon fill="black" stroke="black" points="1967.14,-46.37 1964.9,-36.02 1960.2,-45.51 1967.14,-46.37"/>
</g>
<!-- Camille -->
<g id="node37" class="node">
<title>Camille</title>
<polygon fill="#c1c9e2" stroke="#c1c9e2" points="1868,-36 1808,-36 1808,0 1868,0 1868,-36"/>
<text text-anchor="middle" x="1838" y="-14.3" font-family="Times,serif" font-size="14.00">Camille</text>
</g>
<!-- Matthieu Sharks&#45;&gt;Camille -->
<g id="edge45" class="edge">
<title>Matthieu Sharks&#45;&gt;Camille</title>
<path fill="none" stroke="black" d="M1934.74,-179.93C1915.89,-148.57 1875.63,-81.6 1853.45,-44.71"/>
<polygon fill="black" stroke="black" points="1856.38,-42.78 1848.23,-36.02 1850.38,-46.39 1856.38,-42.78"/>
</g>
<!-- Anaïs2 -->
<g id="node38" class="node">
<title>Anaïs2</title>
<polygon fill="#c1c9e2" stroke="#c1c9e2" points="2508,-36 2454,-36 2454,0 2508,0 2508,-36"/>
<text text-anchor="middle" x="2481" y="-14.3" font-family="Times,serif" font-size="14.00">Anaïs</text>
</g>
<!-- Paul Sharks&#45;&gt;Anaïs2 -->
<g id="edge47" class="edge">
<title>Paul Sharks&#45;&gt;Anaïs2</title>
<path fill="none" stroke="black" d="M2293.85,-179.93C2331.02,-147.97 2411.18,-79.04 2453.52,-42.63"/>
<polygon fill="black" stroke="black" points="2455.91,-45.19 2461.21,-36.02 2451.35,-39.88 2455.91,-45.19"/>
</g>
<!-- Melvin -->
<g id="node39" class="node">
<title>Melvin</title>
<polygon fill="#c1c9e2" stroke="#c1c9e2" points="2636,-36 2580,-36 2580,0 2636,0 2636,-36"/>
<text text-anchor="middle" x="2608" y="-14.3" font-family="Times,serif" font-size="14.00">Melvin</text>
</g>
<!-- Paul Sharks&#45;&gt;Melvin -->
<g id="edge48" class="edge">
<title>Paul Sharks&#45;&gt;Melvin</title>
<path fill="none" stroke="black" d="M2306.03,-179.93C2368.12,-146.84 2504.57,-74.12 2570.66,-38.9"/>
<polygon fill="black" stroke="black" points="2572.71,-41.78 2579.89,-33.98 2569.41,-35.6 2572.71,-41.78"/>
</g>
<!-- Gaspard Valhall&#39;Art -->
<g id="node6" class="node">
<title>Gaspard Valhall&#39;Art</title>
<polygon fill="#00bfff" stroke="#c1c9e2" points="2323.5,-396 2200.5,-396 2200.5,-360 2323.5,-360 2323.5,-396"/>
<text text-anchor="middle" x="2262" y="-374.3" font-family="Times,serif" font-size="14.00">Gaspard Valhall&#39;Art</text>
</g>
<!-- Gaspard Valhall&#39;Art&#45;&gt;Jorge Mist -->
<g id="edge5" class="edge">
<title>Gaspard Valhall&#39;Art&#45;&gt;Jorge Mist</title>
<path fill="none" stroke="black" d="M2247.23,-359.93C2219.87,-328.3 2161.18,-260.46 2129.44,-223.78"/>
<polygon fill="black" stroke="black" points="2131.91,-221.29 2122.72,-216.02 2126.62,-225.87 2131.91,-221.29"/>
</g>
<!-- Gaspard Valhall&#39;Art&#45;&gt;Logan Sharks -->
<g id="edge6" class="edge">
<title>Gaspard Valhall&#39;Art&#45;&gt;Logan Sharks</title>
<path fill="none" stroke="black" d="M2200.32,-366.28C2188.27,-364.19 2175.74,-362.02 2164,-360 1790.29,-295.59 1695.61,-286.5 1323,-216 1314.68,-214.43 1305.91,-212.69 1297.31,-210.94"/>
<polygon fill="black" stroke="black" points="1297.84,-207.48 1287.35,-208.9 1296.44,-214.34 1297.84,-207.48"/>
</g>
<!-- Clovis Sharks -->
<g id="node7" class="node">
<title>Clovis Sharks</title>
<polygon fill="#bdabda" stroke="#c1c9e2" points="2479,-216 2387,-216 2387,-180 2479,-180 2479,-216"/>
<text text-anchor="middle" x="2433" y="-194.3" font-family="Times,serif" font-size="14.00">Clovis Sharks</text>
</g>
<!-- Gaspard Valhall&#39;Art&#45;&gt;Clovis Sharks -->
<g id="edge7" class="edge">
<title>Gaspard Valhall&#39;Art&#45;&gt;Clovis Sharks</title>
<path fill="none" stroke="black" d="M2278.4,-359.93C2308.91,-328.17 2374.5,-259.89 2409.64,-223.32"/>
<polygon fill="black" stroke="black" points="2412.25,-225.65 2416.65,-216.02 2407.2,-220.8 2412.25,-225.65"/>
</g>
<!-- Gabriel Katan&#39;Art -->
<g id="node8" class="node">
<title>Gabriel Katan&#39;Art</title>
<polygon fill="#ffcba4" stroke="#c1c9e2" points="2664.5,-216 2551.5,-216 2551.5,-180 2664.5,-180 2664.5,-216"/>
<text text-anchor="middle" x="2608" y="-194.3" font-family="Times,serif" font-size="14.00">Gabriel Katan&#39;Art</text>
</g>
<!-- Gaspard Valhall&#39;Art&#45;&gt;Gabriel Katan&#39;Art -->
<g id="edge8" class="edge">
<title>Gaspard Valhall&#39;Art&#45;&gt;Gabriel Katan&#39;Art</title>
<path fill="none" stroke="black" d="M2295.18,-359.93C2358.47,-327.37 2496.34,-256.44 2565.97,-220.62"/>
<polygon fill="black" stroke="black" points="2567.63,-223.7 2574.92,-216.02 2564.43,-217.48 2567.63,-223.7"/>
</g>
<!-- Clovis Sharks&#45;&gt;Anaïs2 -->
<g id="edge46" class="edge">
<title>Clovis Sharks&#45;&gt;Anaïs2</title>
<path fill="none" stroke="black" d="M2437.6,-179.93C2445.95,-148.97 2463.66,-83.3 2473.68,-46.13"/>
<polygon fill="black" stroke="black" points="2477.19,-46.58 2476.41,-36.02 2470.43,-44.76 2477.19,-46.58"/>
</g>
<!-- Gabriel Katan&#39;Art&#45;&gt;Melvin -->
<g id="edge49" class="edge">
<title>Gabriel Katan&#39;Art&#45;&gt;Melvin</title>
<path fill="none" stroke="black" d="M2608,-179.93C2608,-148.97 2608,-83.3 2608,-46.13"/>
<polygon fill="black" stroke="black" points="2611.5,-46.02 2608,-36.02 2604.5,-46.02 2611.5,-46.02"/>
</g>
<!-- Julien -->
<g id="node40" class="node">
<title>Julien</title>
<polygon fill="#c1c9e2" stroke="#c1c9e2" points="2762,-36 2708,-36 2708,0 2762,0 2762,-36"/>
<text text-anchor="middle" x="2735" y="-14.3" font-family="Times,serif" font-size="14.00">Julien</text>
</g>
<!-- Gabriel Katan&#39;Art&#45;&gt;Julien -->
<g id="edge50" class="edge">
<title>Gabriel Katan&#39;Art&#45;&gt;Julien</title>
<path fill="none" stroke="black" d="M2620.18,-179.93C2642.65,-148.43 2690.74,-81.03 2716.99,-44.24"/>
<polygon fill="black" stroke="black" points="2719.9,-46.19 2722.86,-36.02 2714.2,-42.12 2719.9,-46.19"/>
</g>
<!-- Lucie Sharks -->
<g id="node9" class="node">
<title>Lucie Sharks</title>
<polygon fill="#bdabda" stroke="#c1c9e2" points="809,-216 721,-216 721,-180 809,-180 809,-216"/>
<text text-anchor="middle" x="765" y="-194.3" font-family="Times,serif" font-size="14.00">Lucie Sharks</text>
</g>
<!-- Lucie Sharks&#45;&gt;Nicolas -->
<g id="edge9" class="edge">
<title>Lucie Sharks&#45;&gt;Nicolas</title>
<path fill="none" stroke="black" d="M792.61,-179.93C844.98,-147.57 958.66,-77.31 1016.95,-41.28"/>
<polygon fill="black" stroke="black" points="1018.8,-44.25 1025.47,-36.02 1015.12,-38.3 1018.8,-44.25"/>
</g>
<!-- Lucie Sharks&#45;&gt;Thomas -->
<g id="edge10" class="edge">
<title>Lucie Sharks&#45;&gt;Thomas</title>
<path fill="none" stroke="black" d="M779.96,-179.93C807.68,-148.3 867.13,-80.46 899.29,-43.78"/>
<polygon fill="black" stroke="black" points="902.13,-45.84 906.09,-36.02 896.86,-41.23 902.13,-45.84"/>
</g>
<!-- Lucie Sharks&#45;&gt;Flo3 -->
<g id="edge11" class="edge">
<title>Lucie Sharks&#45;&gt;Flo3</title>
<path fill="none" stroke="black" d="M755.41,-179.93C737.87,-148.7 700.49,-82.17 679.71,-45.18"/>
<polygon fill="black" stroke="black" points="682.51,-43.02 674.56,-36.02 676.41,-46.45 682.51,-43.02"/>
</g>
<!-- Lalie Valhall&#39;Art -->
<g id="node13" class="node">
<title>Lalie Valhall&#39;Art</title>
<polygon fill="#00bfff" stroke="#c1c9e2" points="1457,-396 1351,-396 1351,-360 1457,-360 1457,-396"/>
<text text-anchor="middle" x="1404" y="-374.3" font-family="Times,serif" font-size="14.00">Lalie Valhall&#39;Art</text>
</g>
<!-- Lalie Valhall&#39;Art&#45;&gt;Logan Sharks -->
<g id="edge12" class="edge">
<title>Lalie Valhall&#39;Art&#45;&gt;Logan Sharks</title>
<path fill="none" stroke="black" d="M1388.37,-359.93C1359.41,-328.3 1297.28,-260.46 1263.69,-223.78"/>
<polygon fill="black" stroke="black" points="1265.92,-221.03 1256.58,-216.02 1260.75,-225.75 1265.92,-221.03"/>
</g>
<!-- Virgile Sharks -->
<g id="node14" class="node">
<title>Virgile Sharks</title>
<polygon fill="#bdabda" stroke="#c1c9e2" points="1756.5,-216 1661.5,-216 1661.5,-180 1756.5,-180 1756.5,-216"/>
<text text-anchor="middle" x="1709" y="-194.3" font-family="Times,serif" font-size="14.00">Virgile Sharks</text>
</g>
<!-- Lalie Valhall&#39;Art&#45;&gt;Virgile Sharks -->
<g id="edge13" class="edge">
<title>Lalie Valhall&#39;Art&#45;&gt;Virgile Sharks</title>
<path fill="none" stroke="black" d="M1433.24,-359.93C1488.81,-327.5 1609.58,-257.02 1671.2,-221.06"/>
<polygon fill="black" stroke="black" points="1672.97,-224.08 1679.84,-216.02 1669.44,-218.03 1672.97,-224.08"/>
</g>
<!-- Lucas Sharks -->
<g id="node15" class="node">
<title>Lucas Sharks</title>
<polygon fill="#bdabda" stroke="#c1c9e2" points="1448.5,-216 1359.5,-216 1359.5,-180 1448.5,-180 1448.5,-216"/>
<text text-anchor="middle" x="1404" y="-194.3" font-family="Times,serif" font-size="14.00">Lucas Sharks</text>
</g>
<!-- Lalie Valhall&#39;Art&#45;&gt;Lucas Sharks -->
<g id="edge14" class="edge">
<title>Lalie Valhall&#39;Art&#45;&gt;Lucas Sharks</title>
<path fill="none" stroke="black" d="M1404,-359.93C1404,-328.97 1404,-263.3 1404,-226.13"/>
<polygon fill="black" stroke="black" points="1407.5,-226.02 1404,-216.02 1400.5,-226.02 1407.5,-226.02"/>
</g>
<!-- Nils Mist -->
<g id="node16" class="node">
<title>Nils Mist</title>
<polygon fill="#9e0e40" stroke="#c1c9e2" points="1589,-216 1521,-216 1521,-180 1589,-180 1589,-216"/>
<text text-anchor="middle" x="1555" y="-194.3" font-family="Times,serif" font-size="14.00">Nils Mist</text>
</g>
<!-- Lalie Valhall&#39;Art&#45;&gt;Nils Mist -->
<g id="edge15" class="edge">
<title>Lalie Valhall&#39;Art&#45;&gt;Nils Mist</title>
<path fill="none" stroke="black" d="M1418.48,-359.93C1445.31,-328.3 1502.86,-260.46 1533.98,-223.78"/>
<polygon fill="black" stroke="black" points="1536.77,-225.91 1540.57,-216.02 1531.43,-221.38 1536.77,-225.91"/>
</g>
<!-- Mathis Mist -->
<g id="node17" class="node">
<title>Mathis Mist</title>
<polygon fill="#c1c9e2" stroke="#c1c9e2" points="1123,-216 1039,-216 1039,-180 1123,-180 1123,-216"/>
<text text-anchor="middle" x="1081" y="-194.3" font-family="Times,serif" font-size="14.00">Mathis Mist</text>
</g>
<!-- Lalie Valhall&#39;Art&#45;&gt;Mathis Mist -->
<g id="edge16" class="edge">
<title>Lalie Valhall&#39;Art&#45;&gt;Mathis Mist</title>
<path fill="none" stroke="black" d="M1373.03,-359.93C1314.18,-327.5 1186.29,-257.02 1121.03,-221.06"/>
<polygon fill="black" stroke="black" points="1122.32,-217.78 1111.88,-216.02 1118.95,-223.91 1122.32,-217.78"/>
</g>
<!-- Virgile Sharks&#45;&gt;Alys -->
<g id="edge36" class="edge">
<title>Virgile Sharks&#45;&gt;Alys</title>
<path fill="none" stroke="black" d="M1709,-179.93C1709,-148.97 1709,-83.3 1709,-46.13"/>
<polygon fill="black" stroke="black" points="1712.5,-46.02 1709,-36.02 1705.5,-46.02 1712.5,-46.02"/>
</g>
<!-- Clément -->
<g id="node33" class="node">
<title>Clément</title>
<polygon fill="#c1c9e2" stroke="#c1c9e2" points="1609.5,-36 1546.5,-36 1546.5,0 1609.5,0 1609.5,-36"/>
<text text-anchor="middle" x="1578" y="-14.3" font-family="Times,serif" font-size="14.00">Clément</text>
</g>
<!-- Virgile Sharks&#45;&gt;Clément -->
<g id="edge37" class="edge">
<title>Virgile Sharks&#45;&gt;Clément</title>
<path fill="none" stroke="black" d="M1696.44,-179.93C1673.26,-148.43 1623.65,-81.03 1596.58,-44.24"/>
<polygon fill="black" stroke="black" points="1599.27,-42 1590.52,-36.02 1593.63,-46.14 1599.27,-42"/>
</g>
<!-- Charlotte -->
<g id="node41" class="node">
<title>Charlotte</title>
<polygon fill="#c1c9e2" stroke="#c1c9e2" points="1221.5,-36 1154.5,-36 1154.5,0 1221.5,0 1221.5,-36"/>
<text text-anchor="middle" x="1188" y="-14.3" font-family="Times,serif" font-size="14.00">Charlotte</text>
</g>
<!-- Lucas Sharks&#45;&gt;Charlotte -->
<g id="edge51" class="edge">
<title>Lucas Sharks&#45;&gt;Charlotte</title>
<path fill="none" stroke="black" d="M1383.29,-179.93C1344.42,-147.9 1260.5,-78.75 1216.4,-42.4"/>
<polygon fill="black" stroke="black" points="1218.59,-39.67 1208.65,-36.02 1214.14,-45.08 1218.59,-39.67"/>
</g>
<!-- Lou -->
<g id="node42" class="node">
<title>Lou</title>
<polygon fill="#c1c9e2" stroke="#c1c9e2" points="1348,-36 1294,-36 1294,0 1348,0 1348,-36"/>
<text text-anchor="middle" x="1321" y="-14.3" font-family="Times,serif" font-size="14.00">Lou</text>
</g>
<!-- Lucas Sharks&#45;&gt;Lou -->
<g id="edge52" class="edge">
<title>Lucas Sharks&#45;&gt;Lou</title>
<path fill="none" stroke="black" d="M1396.04,-179.93C1381.48,-148.7 1350.46,-82.17 1333.21,-45.18"/>
<polygon fill="black" stroke="black" points="1336.33,-43.6 1328.93,-36.02 1329.99,-46.56 1336.33,-43.6"/>
</g>
<!-- Amaël -->
<g id="node43" class="node">
<title>Amaël</title>
<polygon fill="#c1c9e2" stroke="#c1c9e2" points="1474,-36 1420,-36 1420,0 1474,0 1474,-36"/>
<text text-anchor="middle" x="1447" y="-14.3" font-family="Times,serif" font-size="14.00">Amaël</text>
</g>
<!-- Lucas Sharks&#45;&gt;Amaël -->
<g id="edge53" class="edge">
<title>Lucas Sharks&#45;&gt;Amaël</title>
<path fill="none" stroke="black" d="M1408.12,-179.93C1415.6,-148.97 1431.47,-83.3 1440.45,-46.13"/>
<polygon fill="black" stroke="black" points="1443.94,-46.56 1442.89,-36.02 1437.14,-44.91 1443.94,-46.56"/>
</g>
<!-- Nils Mist&#45;&gt;Clément -->
<g id="edge54" class="edge">
<title>Nils Mist&#45;&gt;Clément</title>
<path fill="none" stroke="black" d="M1557.21,-179.93C1561.21,-148.97 1569.69,-83.3 1574.49,-46.13"/>
<polygon fill="black" stroke="black" points="1577.99,-46.38 1575.8,-36.02 1571.05,-45.48 1577.99,-46.38"/>
</g>
<!-- Quentin Valhall&#39;Art -->
<g id="node18" class="node">
<title>Quentin Valhall&#39;Art</title>
<polygon fill="#00bfff" stroke="#c1c9e2" points="2758,-396 2636,-396 2636,-360 2758,-360 2758,-396"/>
<text text-anchor="middle" x="2697" y="-374.3" font-family="Times,serif" font-size="14.00">Quentin Valhall&#39;Art</text>
</g>
<!-- Olivier Katan&#39;Art -->
<g id="node19" class="node">
<title>Olivier Katan&#39;Art</title>
<polygon fill="#ffcba4" stroke="#c1c9e2" points="2847.5,-216 2736.5,-216 2736.5,-180 2847.5,-180 2847.5,-216"/>
<text text-anchor="middle" x="2792" y="-194.3" font-family="Times,serif" font-size="14.00">Olivier Katan&#39;Art</text>
</g>
<!-- Quentin Valhall&#39;Art&#45;&gt;Olivier Katan&#39;Art -->
<g id="edge17" class="edge">
<title>Quentin Valhall&#39;Art&#45;&gt;Olivier Katan&#39;Art</title>
<path fill="none" stroke="black" d="M2706.11,-359.93C2722.78,-328.7 2758.29,-262.17 2778.03,-225.18"/>
<polygon fill="black" stroke="black" points="2781.3,-226.49 2782.92,-216.02 2775.12,-223.19 2781.3,-226.49"/>
</g>
<!-- Maxime Pulsar -->
<g id="node20" class="node">
<title>Maxime Pulsar</title>
<polygon fill="#a300a3" stroke="#c1c9e2" points="2312.5,-576 2211.5,-576 2211.5,-540 2312.5,-540 2312.5,-576"/>
<text text-anchor="middle" x="2262" y="-554.3" font-family="Times,serif" font-size="14.00">Maxime Pulsar</text>
</g>
<!-- Maxime Pulsar&#45;&gt;Antoine Valhall&#39;Art -->
<g id="edge18" class="edge">
<title>Maxime Pulsar&#45;&gt;Antoine Valhall&#39;Art</title>
<path fill="none" stroke="black" d="M2243.3,-539.93C2208.36,-508.04 2133.08,-439.32 2093.14,-402.86"/>
<polygon fill="black" stroke="black" points="2095.39,-400.17 2085.64,-396.02 2090.67,-405.34 2095.39,-400.17"/>
</g>
<!-- Maxime Pulsar&#45;&gt;Gaspard Valhall&#39;Art -->
<g id="edge19" class="edge">
<title>Maxime Pulsar&#45;&gt;Gaspard Valhall&#39;Art</title>
<path fill="none" stroke="black" d="M2262,-539.93C2262,-508.97 2262,-443.3 2262,-406.13"/>
<polygon fill="black" stroke="black" points="2265.5,-406.02 2262,-396.02 2258.5,-406.02 2265.5,-406.02"/>
</g>
<!-- Maxime Pulsar&#45;&gt;Clovis Sharks -->
<g id="edge20" class="edge">
<title>Maxime Pulsar&#45;&gt;Clovis Sharks</title>
<path fill="none" stroke="black" d="M2274.03,-539.76C2293.76,-510.95 2333.48,-450.78 2360,-396 2388.4,-337.33 2412.72,-264.58 2424.82,-225.99"/>
<polygon fill="black" stroke="black" points="2428.28,-226.64 2427.9,-216.05 2421.6,-224.57 2428.28,-226.64"/>
</g>
<!-- Maxime Pulsar&#45;&gt;Lalie Valhall&#39;Art -->
<g id="edge21" class="edge">
<title>Maxime Pulsar&#45;&gt;Lalie Valhall&#39;Art</title>
<path fill="none" stroke="black" d="M2211.21,-546.46C2062.77,-515.67 1629.82,-425.85 1466.94,-392.06"/>
<polygon fill="black" stroke="black" points="1467.57,-388.61 1457.07,-390.01 1466.15,-395.47 1467.57,-388.61"/>
</g>
<!-- Maxime Pulsar&#45;&gt;Quentin Valhall&#39;Art -->
<g id="edge22" class="edge">
<title>Maxime Pulsar&#45;&gt;Quentin Valhall&#39;Art</title>
<path fill="none" stroke="black" d="M2303.71,-539.93C2383.85,-507.14 2559.1,-435.43 2646.02,-399.86"/>
<polygon fill="black" stroke="black" points="2647.49,-403.04 2655.42,-396.02 2644.84,-396.56 2647.49,-403.04"/>
</g>
<!-- Yanis Pulsar -->
<g id="node21" class="node">
<title>Yanis Pulsar</title>
<polygon fill="#a300a3" stroke="#c1c9e2" points="963.5,-576 878.5,-576 878.5,-540 963.5,-540 963.5,-576"/>
<text text-anchor="middle" x="921" y="-554.3" font-family="Times,serif" font-size="14.00">Yanis Pulsar</text>
</g>
<!-- Yanis Pulsar&#45;&gt;Lalie Valhall&#39;Art -->
<g id="edge23" class="edge">
<title>Yanis Pulsar&#45;&gt;Lalie Valhall&#39;Art</title>
<path fill="none" stroke="black" d="M963.86,-541.2C1051.45,-508.93 1250.88,-435.43 1348.33,-399.52"/>
<polygon fill="black" stroke="black" points="1349.54,-402.8 1357.72,-396.06 1347.12,-396.23 1349.54,-402.8"/>
</g>
<!-- Robin Horn -->
<g id="node22" class="node">
<title>Robin Horn</title>
<polygon fill="#f2be00" stroke="#c1c9e2" points="885.5,-396 804.5,-396 804.5,-360 885.5,-360 885.5,-396"/>
<text text-anchor="middle" x="845" y="-374.3" font-family="Times,serif" font-size="14.00">Robin Horn</text>
</g>
<!-- Yanis Pulsar&#45;&gt;Robin Horn -->
<g id="edge24" class="edge">
<title>Yanis Pulsar&#45;&gt;Robin Horn</title>
<path fill="none" stroke="black" d="M913.71,-539.93C900.43,-508.83 872.21,-442.73 856.38,-405.65"/>
<polygon fill="black" stroke="black" points="859.41,-403.84 852.27,-396.02 852.97,-406.59 859.41,-403.84"/>
</g>
<!-- Vincent Valhall&#39;Art -->
<g id="node23" class="node">
<title>Vincent Valhall&#39;Art</title>
<polygon fill="#00bfff" stroke="#c1c9e2" points="599.5,-396 478.5,-396 478.5,-360 599.5,-360 599.5,-396"/>
<text text-anchor="middle" x="539" y="-374.3" font-family="Times,serif" font-size="14.00">Vincent Valhall&#39;Art</text>
</g>
<!-- Yanis Pulsar&#45;&gt;Vincent Valhall&#39;Art -->
<g id="edge25" class="edge">
<title>Yanis Pulsar&#45;&gt;Vincent Valhall&#39;Art</title>
<path fill="none" stroke="black" d="M884.37,-539.93C814.35,-507.31 661.65,-436.15 584.93,-400.4"/>
<polygon fill="black" stroke="black" points="586.06,-397.07 575.52,-396.02 583.1,-403.41 586.06,-397.07"/>
</g>
<!-- Thaïs Dice -->
<g id="node24" class="node">
<title>Thaïs Dice</title>
<polygon fill="#ff4d5c" stroke="#c1c9e2" points="1034,-396 958,-396 958,-360 1034,-360 1034,-396"/>
<text text-anchor="middle" x="996" y="-374.3" font-family="Times,serif" font-size="14.00">Thaïs Dice</text>
</g>
<!-- Yanis Pulsar&#45;&gt;Thaïs Dice -->
<g id="edge26" class="edge">
<title>Yanis Pulsar&#45;&gt;Thaïs Dice</title>
<path fill="none" stroke="black" d="M928.19,-539.93C941.29,-508.83 969.15,-442.73 984.77,-405.65"/>
<polygon fill="black" stroke="black" points="988.17,-406.59 988.83,-396.02 981.72,-403.87 988.17,-406.59"/>
</g>
<!-- Robin Horn&#45;&gt;Lucie Sharks -->
<g id="edge27" class="edge">
<title>Robin Horn&#45;&gt;Lucie Sharks</title>
<path fill="none" stroke="black" d="M837.33,-359.93C823.29,-328.7 793.39,-262.17 776.77,-225.18"/>
<polygon fill="black" stroke="black" points="779.94,-223.7 772.65,-216.02 773.55,-226.57 779.94,-223.7"/>
</g>
<!-- Adrien Gold -->
<g id="node25" class="node">
<title>Adrien Gold</title>
<polygon fill="#ffffff" stroke="#c1c9e2" points="966.5,-216 881.5,-216 881.5,-180 966.5,-180 966.5,-216"/>
<text text-anchor="middle" x="924" y="-194.3" font-family="Times,serif" font-size="14.00">Adrien Gold</text>
</g>
<!-- Robin Horn&#45;&gt;Adrien Gold -->
<g id="edge28" class="edge">
<title>Robin Horn&#45;&gt;Adrien Gold</title>
<path fill="none" stroke="black" d="M852.57,-359.93C866.44,-328.7 895.96,-262.17 912.38,-225.18"/>
<polygon fill="black" stroke="black" points="915.59,-226.58 916.45,-216.02 909.19,-223.74 915.59,-226.58"/>
</g>
<!-- Flavien Sharks -->
<g id="node26" class="node">
<title>Flavien Sharks</title>
<polygon fill="#bdabda" stroke="#c1c9e2" points="588,-216 490,-216 490,-180 588,-180 588,-216"/>
<text text-anchor="middle" x="539" y="-194.3" font-family="Times,serif" font-size="14.00">Flavien Sharks</text>
</g>
<!-- Vincent Valhall&#39;Art&#45;&gt;Flavien Sharks -->
<g id="edge29" class="edge">
<title>Vincent Valhall&#39;Art&#45;&gt;Flavien Sharks</title>
<path fill="none" stroke="black" d="M539,-359.93C539,-328.97 539,-263.3 539,-226.13"/>
<polygon fill="black" stroke="black" points="542.5,-226.02 539,-216.02 535.5,-226.02 542.5,-226.02"/>
</g>
<!-- Zoé Mist -->
<g id="node27" class="node">
<title>Zoé Mist</title>
<polygon fill="#9e0e40" stroke="#c1c9e2" points="320.5,-216 253.5,-216 253.5,-180 320.5,-180 320.5,-216"/>
<text text-anchor="middle" x="287" y="-194.3" font-family="Times,serif" font-size="14.00">Zoé Mist</text>
</g>
<!-- Vincent Valhall&#39;Art&#45;&gt;Zoé Mist -->
<g id="edge30" class="edge">
<title>Vincent Valhall&#39;Art&#45;&gt;Zoé Mist</title>
<path fill="none" stroke="black" d="M514.84,-359.93C469.3,-327.77 370.77,-258.17 319.5,-221.95"/>
<polygon fill="black" stroke="black" points="321.28,-218.93 311.09,-216.02 317.24,-224.64 321.28,-218.93"/>
</g>
<!-- Adrien Gold&#45;&gt;Charlotte -->
<g id="edge59" class="edge">
<title>Adrien Gold&#45;&gt;Charlotte</title>
<path fill="none" stroke="black" d="M949.31,-179.93C997.11,-147.7 1100.66,-77.89 1154.29,-41.73"/>
<polygon fill="black" stroke="black" points="1156.43,-44.51 1162.76,-36.02 1152.52,-38.7 1156.43,-44.51"/>
</g>
<!-- Flavien Sharks&#45;&gt;Henri -->
<g id="edge38" class="edge">
<title>Flavien Sharks&#45;&gt;Henri</title>
<path fill="none" stroke="black" d="M563.16,-179.93C608.7,-147.77 707.23,-78.17 758.5,-41.95"/>
<polygon fill="black" stroke="black" points="760.76,-44.64 766.91,-36.02 756.72,-38.93 760.76,-44.64"/>
</g>
<!-- Anaïs1 -->
<g id="node34" class="node">
<title>Anaïs1</title>
<polygon fill="#c1c9e2" stroke="#c1c9e2" points="566,-36 512,-36 512,0 566,0 566,-36"/>
<text text-anchor="middle" x="539" y="-14.3" font-family="Times,serif" font-size="14.00">Anaïs</text>
</g>
<!-- Flavien Sharks&#45;&gt;Anaïs1 -->
<g id="edge39" class="edge">
<title>Flavien Sharks&#45;&gt;Anaïs1</title>
<path fill="none" stroke="black" d="M539,-179.93C539,-148.97 539,-83.3 539,-46.13"/>
<polygon fill="black" stroke="black" points="542.5,-46.02 539,-36.02 535.5,-46.02 542.5,-46.02"/>
</g>
<!-- Sarah -->
<g id="node35" class="node">
<title>Sarah</title>
<polygon fill="#c1c9e2" stroke="#c1c9e2" points="440,-36 386,-36 386,0 440,0 440,-36"/>
<text text-anchor="middle" x="413" y="-14.3" font-family="Times,serif" font-size="14.00">Sarah</text>
</g>
<!-- Flavien Sharks&#45;&gt;Sarah -->
<g id="edge40" class="edge">
<title>Flavien Sharks&#45;&gt;Sarah</title>
<path fill="none" stroke="black" d="M526.92,-179.93C504.62,-148.43 456.91,-81.03 430.87,-44.24"/>
<polygon fill="black" stroke="black" points="433.68,-42.16 425.04,-36.02 427.97,-46.2 433.68,-42.16"/>
</g>
<!-- Zoé Mist&#45;&gt;Flo3 -->
<g id="edge55" class="edge">
<title>Zoé Mist&#45;&gt;Flo3</title>
<path fill="none" stroke="black" d="M320.54,-181.2C391.27,-147.9 555.18,-70.72 628.46,-36.21"/>
<polygon fill="black" stroke="black" points="630.2,-39.25 637.76,-31.83 627.22,-32.92 630.2,-39.25"/>
</g>
<!-- Robin -->
<g id="node44" class="node">
<title>Robin</title>
<polygon fill="#c1c9e2" stroke="#c1c9e2" points="314,-36 260,-36 260,0 314,0 314,-36"/>
<text text-anchor="middle" x="287" y="-14.3" font-family="Times,serif" font-size="14.00">Robin</text>
</g>
<!-- Zoé Mist&#45;&gt;Robin -->
<g id="edge56" class="edge">
<title>Zoé Mist&#45;&gt;Robin</title>
<path fill="none" stroke="black" d="M287,-179.93C287,-148.97 287,-83.3 287,-46.13"/>
<polygon fill="black" stroke="black" points="290.5,-46.02 287,-36.02 283.5,-46.02 290.5,-46.02"/>
</g>
<!-- Antoine -->
<g id="node45" class="node">
<title>Antoine</title>
<polygon fill="#c1c9e2" stroke="#c1c9e2" points="188,-36 128,-36 128,0 188,0 188,-36"/>
<text text-anchor="middle" x="158" y="-14.3" font-family="Times,serif" font-size="14.00">Antoine</text>
</g>
<!-- Zoé Mist&#45;&gt;Antoine -->
<g id="edge57" class="edge">
<title>Zoé Mist&#45;&gt;Antoine</title>
<path fill="none" stroke="black" d="M274.63,-179.93C251.8,-148.43 202.96,-81.03 176.29,-44.24"/>
<polygon fill="black" stroke="black" points="179.03,-42.06 170.33,-36.02 173.37,-46.17 179.03,-42.06"/>
</g>
<!-- Emélie -->
<g id="node46" class="node">
<title>Emélie</title>
<polygon fill="#c1c9e2" stroke="#c1c9e2" points="56,-36 0,-36 0,0 56,0 56,-36"/>
<text text-anchor="middle" x="28" y="-14.3" font-family="Times,serif" font-size="14.00">Emélie</text>
</g>
<!-- Zoé Mist&#45;&gt;Emélie -->
<g id="edge58" class="edge">
<title>Zoé Mist&#45;&gt;Emélie</title>
<path fill="none" stroke="black" d="M262.17,-179.93C215.27,-147.7 113.68,-77.89 61.07,-41.73"/>
<polygon fill="black" stroke="black" points="62.98,-38.8 52.76,-36.02 59.02,-44.56 62.98,-38.8"/>
</g>
</g>
</svg>
