<?xml version="1.0" encoding="UTF-8" standalone="no"?>
<!DOCTYPE svg PUBLIC "-//W3C//DTD SVG 1.1//EN"
 "http://www.w3.org/Graphics/SVG/1.1/DTD/svg11.dtd">
<!-- Generated by graphviz version 5.0.1 (0)
 -->
<!-- Title: G Pages: 1 -->
<svg width="3026pt" height="648pt"
 viewBox="0.00 0.00 3025.50 648.00" xmlns="http://www.w3.org/2000/svg" xmlns:xlink="http://www.w3.org/1999/xlink">
<g id="graph0" class="graph" transform="scale(1 1) rotate(0) translate(36 612)">
<title>G</title>
<polygon fill="white" stroke="none" points="-36,36 -36,-612 2989.5,-612 2989.5,36 -36,36"/>
<!-- Antoine Valhall&#39;Art -->
<g id="node1" class="node">
<title>Antoine Valhall&#39;Art</title>
<polygon fill="#00bfff" stroke="#c1c9e2" points="864.5,-396 742.5,-396 742.5,-360 864.5,-360 864.5,-396"/>
<text text-anchor="middle" x="803.5" y="-374.3" font-family="Times,serif" font-size="14.00">Antoine Valhall&#39;Art</text>
</g>
<!-- Jorge Mist -->
<g id="node2" class="node">
<title>Jorge Mist</title>
<polygon fill="#9e0e40" stroke="#c1c9e2" points="841,-216 766,-216 766,-180 841,-180 841,-216"/>
<text text-anchor="middle" x="803.5" y="-194.3" font-family="Times,serif" font-size="14.00">Jorge Mist</text>
</g>
<!-- Antoine Valhall&#39;Art&#45;&gt;Jorge Mist -->
<g id="edge1" class="edge">
<title>Antoine Valhall&#39;Art&#45;&gt;Jorge Mist</title>
<path fill="none" stroke="black" d="M803.5,-359.93C803.5,-328.97 803.5,-263.3 803.5,-226.13"/>
<polygon fill="black" stroke="black" points="807,-226.02 803.5,-216.02 800,-226.02 807,-226.02"/>
</g>
<!-- Logan Sharks -->
<g id="node3" class="node">
<title>Logan Sharks</title>
<polygon fill="#bdabda" stroke="#c1c9e2" points="1773.5,-216 1681.5,-216 1681.5,-180 1773.5,-180 1773.5,-216"/>
<text text-anchor="middle" x="1727.5" y="-194.3" font-family="Times,serif" font-size="14.00">Logan Sharks</text>
</g>
<!-- Antoine Valhall&#39;Art&#45;&gt;Logan Sharks -->
<g id="edge2" class="edge">
<title>Antoine Valhall&#39;Art&#45;&gt;Logan Sharks</title>
<path fill="none" stroke="black" d="M864.58,-365.66C1003.43,-339.8 1353.4,-274.2 1645.5,-216 1653.8,-214.35 1662.57,-212.57 1671.16,-210.8"/>
<polygon fill="black" stroke="black" points="1672.04,-214.19 1681.12,-208.75 1670.62,-207.34 1672.04,-214.19"/>
</g>
<!-- Matthieu Sharks -->
<g id="node4" class="node">
<title>Matthieu Sharks</title>
<polygon fill="#bdabda" stroke="#c1c9e2" points="1040,-216 933,-216 933,-180 1040,-180 1040,-216"/>
<text text-anchor="middle" x="986.5" y="-194.3" font-family="Times,serif" font-size="14.00">Matthieu Sharks</text>
</g>
<!-- Antoine Valhall&#39;Art&#45;&gt;Matthieu Sharks -->
<g id="edge3" class="edge">
<title>Antoine Valhall&#39;Art&#45;&gt;Matthieu Sharks</title>
<path fill="none" stroke="black" d="M821.05,-359.93C853.7,-328.17 923.9,-259.89 961.5,-223.32"/>
<polygon fill="black" stroke="black" points="964.28,-225.5 969.01,-216.02 959.4,-220.48 964.28,-225.5"/>
</g>
<!-- Paul Sharks -->
<g id="node5" class="node">
<title>Paul Sharks</title>
<polygon fill="#bdabda" stroke="#c1c9e2" points="429,-216 348,-216 348,-180 429,-180 429,-216"/>
<text text-anchor="middle" x="388.5" y="-194.3" font-family="Times,serif" font-size="14.00">Paul Sharks</text>
</g>
<!-- Antoine Valhall&#39;Art&#45;&gt;Paul Sharks -->
<g id="edge4" class="edge">
<title>Antoine Valhall&#39;Art&#45;&gt;Paul Sharks</title>
<path fill="none" stroke="black" d="M763.71,-359.93C687.33,-327.17 520.4,-255.57 437.39,-219.97"/>
<polygon fill="black" stroke="black" points="438.74,-216.74 428.17,-216.02 435.98,-223.17 438.74,-216.74"/>
</g>
<!-- Henri -->
<g id="node29" class="node">
<title>Henri</title>
<polygon fill="#c1c9e2" stroke="#c1c9e2" points="1925.5,-36 1871.5,-36 1871.5,0 1925.5,0 1925.5,-36"/>
<text text-anchor="middle" x="1898.5" y="-14.3" font-family="Times,serif" font-size="14.00">Henri</text>
</g>
<!-- Jorge Mist&#45;&gt;Henri -->
<g id="edge32" class="edge">
<title>Jorge Mist&#45;&gt;Henri</title>
<path fill="none" stroke="black" d="M841.42,-189.9C858.54,-186.76 879.02,-183.09 897.5,-180 1313.5,-110.46 1422.81,-123.08 1835.5,-36 1844.02,-34.2 1853.11,-31.95 1861.66,-29.68"/>
<polygon fill="black" stroke="black" points="1862.64,-33.04 1871.37,-27.03 1860.8,-26.28 1862.64,-33.04"/>
</g>
<!-- Clara -->
<g id="node30" class="node">
<title>Clara</title>
<polygon fill="#c1c9e2" stroke="#c1c9e2" points="625.5,-36 571.5,-36 571.5,0 625.5,0 625.5,-36"/>
<text text-anchor="middle" x="598.5" y="-14.3" font-family="Times,serif" font-size="14.00">Clara</text>
</g>
<!-- Jorge Mist&#45;&gt;Clara -->
<g id="edge33" class="edge">
<title>Jorge Mist&#45;&gt;Clara</title>
<path fill="none" stroke="black" d="M783.84,-179.93C747.03,-147.97 667.64,-79.04 625.71,-42.63"/>
<polygon fill="black" stroke="black" points="627.94,-39.93 618.1,-36.02 623.35,-45.21 627.94,-39.93"/>
</g>
<!-- Alys -->
<g id="node31" class="node">
<title>Alys</title>
<polygon fill="#c1c9e2" stroke="#c1c9e2" points="1139.5,-36 1085.5,-36 1085.5,0 1139.5,0 1139.5,-36"/>
<text text-anchor="middle" x="1112.5" y="-14.3" font-family="Times,serif" font-size="14.00">Alys</text>
</g>
<!-- Jorge Mist&#45;&gt;Alys -->
<g id="edge34" class="edge">
<title>Jorge Mist&#45;&gt;Alys</title>
<path fill="none" stroke="black" d="M833.13,-179.93C890.03,-147.16 1014.41,-75.51 1076.19,-39.92"/>
<polygon fill="black" stroke="black" points="1078.27,-42.76 1085.19,-34.73 1074.78,-36.69 1078.27,-42.76"/>
</g>
<!-- Paco -->
<g id="node32" class="node">
<title>Paco</title>
<polygon fill="#c1c9e2" stroke="#c1c9e2" points="751.5,-36 697.5,-36 697.5,0 751.5,0 751.5,-36"/>
<text text-anchor="middle" x="724.5" y="-14.3" font-family="Times,serif" font-size="14.00">Paco</text>
</g>
<!-- Jorge Mist&#45;&gt;Paco -->
<g id="edge35" class="edge">
<title>Jorge Mist&#45;&gt;Paco</title>
<path fill="none" stroke="black" d="M795.93,-179.93C782.06,-148.7 752.54,-82.17 736.12,-45.18"/>
<polygon fill="black" stroke="black" points="739.31,-43.74 732.05,-36.02 732.91,-46.58 739.31,-43.74"/>
</g>
<!-- Mariette -->
<g id="node33" class="node">
<title>Mariette</title>
<polygon fill="#c1c9e2" stroke="#c1c9e2" points="887,-36 824,-36 824,0 887,0 887,-36"/>
<text text-anchor="middle" x="855.5" y="-14.3" font-family="Times,serif" font-size="14.00">Mariette</text>
</g>
<!-- Jorge Mist&#45;&gt;Mariette -->
<g id="edge36" class="edge">
<title>Jorge Mist&#45;&gt;Mariette</title>
<path fill="none" stroke="black" d="M808.49,-179.93C817.57,-148.83 836.88,-82.73 847.71,-45.65"/>
<polygon fill="black" stroke="black" points="851.08,-46.6 850.53,-36.02 844.37,-44.63 851.08,-46.6"/>
</g>
<!-- Nicolas -->
<g id="node10" class="node">
<title>Nicolas</title>
<polygon fill="#c1c9e2" stroke="#c1c9e2" points="2189.5,-36 2131.5,-36 2131.5,0 2189.5,0 2189.5,-36"/>
<text text-anchor="middle" x="2160.5" y="-14.3" font-family="Times,serif" font-size="14.00">Nicolas</text>
</g>
<!-- Logan Sharks&#45;&gt;Nicolas -->
<g id="edge42" class="edge">
<title>Logan Sharks&#45;&gt;Nicolas</title>
<path fill="none" stroke="black" d="M1769.02,-179.93C1852.72,-145.52 2040.64,-68.27 2121.88,-34.88"/>
<polygon fill="black" stroke="black" points="2123.32,-38.07 2131.24,-31.03 2120.66,-31.59 2123.32,-38.07"/>
</g>
<!-- Thomas -->
<g id="node11" class="node">
<title>Thomas</title>
<polygon fill="#c1c9e2" stroke="#c1c9e2" points="2059,-36 1998,-36 1998,0 2059,0 2059,-36"/>
<text text-anchor="middle" x="2028.5" y="-14.3" font-family="Times,serif" font-size="14.00">Thomas</text>
</g>
<!-- Logan Sharks&#45;&gt;Thomas -->
<g id="edge43" class="edge">
<title>Logan Sharks&#45;&gt;Thomas</title>
<path fill="none" stroke="black" d="M1756.36,-179.93C1811.09,-147.57 1929.9,-77.31 1990.82,-41.28"/>
<polygon fill="black" stroke="black" points="1992.9,-44.12 1999.73,-36.02 1989.34,-38.09 1992.9,-44.12"/>
</g>
<!-- Flo3 -->
<g id="node12" class="node">
<title>Flo3</title>
<polygon fill="#c1c9e2" stroke="#c1c9e2" points="2315.5,-36 2261.5,-36 2261.5,0 2315.5,0 2315.5,-36"/>
<text text-anchor="middle" x="2288.5" y="-14.3" font-family="Times,serif" font-size="14.00">Flo3</text>
</g>
<!-- Logan Sharks&#45;&gt;Flo3 -->
<g id="edge44" class="edge">
<title>Logan Sharks&#45;&gt;Flo3</title>
<path fill="none" stroke="black" d="M1773.89,-182.28C1882.77,-147.74 2152.94,-62.01 2251.64,-30.69"/>
<polygon fill="black" stroke="black" points="2252.72,-34.03 2261.19,-27.66 2250.6,-27.35 2252.72,-34.03"/>
</g>
<!-- Lili -->
<g id="node37" class="node">
<title>Lili</title>
<polygon fill="#c1c9e2" stroke="#c1c9e2" points="1013.5,-36 959.5,-36 959.5,0 1013.5,0 1013.5,-36"/>
<text text-anchor="middle" x="986.5" y="-14.3" font-family="Times,serif" font-size="14.00">Lili</text>
</g>
<!-- Matthieu Sharks&#45;&gt;Lili -->
<g id="edge45" class="edge">
<title>Matthieu Sharks&#45;&gt;Lili</title>
<path fill="none" stroke="black" d="M986.5,-179.93C986.5,-148.97 986.5,-83.3 986.5,-46.13"/>
<polygon fill="black" stroke="black" points="990,-46.02 986.5,-36.02 983,-46.02 990,-46.02"/>
</g>
<!-- Camille -->
<g id="node38" class="node">
<title>Camille</title>
<polygon fill="#c1c9e2" stroke="#c1c9e2" points="1271.5,-36 1211.5,-36 1211.5,0 1271.5,0 1271.5,-36"/>
<text text-anchor="middle" x="1241.5" y="-14.3" font-family="Times,serif" font-size="14.00">Camille</text>
</g>
<!-- Matthieu Sharks&#45;&gt;Camille -->
<g id="edge46" class="edge">
<title>Matthieu Sharks&#45;&gt;Camille</title>
<path fill="none" stroke="black" d="M1010.95,-179.93C1057.03,-147.77 1156.73,-78.17 1208.62,-41.95"/>
<polygon fill="black" stroke="black" points="1210.93,-44.61 1217.12,-36.02 1206.92,-38.87 1210.93,-44.61"/>
</g>
<!-- Anaïs2 -->
<g id="node39" class="node">
<title>Anaïs2</title>
<polygon fill="#c1c9e2" stroke="#c1c9e2" points="245.5,-36 191.5,-36 191.5,0 245.5,0 245.5,-36"/>
<text text-anchor="middle" x="218.5" y="-14.3" font-family="Times,serif" font-size="14.00">Anaïs</text>
</g>
<!-- Paul Sharks&#45;&gt;Anaïs2 -->
<g id="edge48" class="edge">
<title>Paul Sharks&#45;&gt;Anaïs2</title>
<path fill="none" stroke="black" d="M372.2,-179.93C341.86,-148.17 276.66,-79.89 241.72,-43.32"/>
<polygon fill="black" stroke="black" points="244.19,-40.83 234.75,-36.02 239.13,-45.66 244.19,-40.83"/>
</g>
<!-- Melvin -->
<g id="node40" class="node">
<title>Melvin</title>
<polygon fill="#c1c9e2" stroke="#c1c9e2" points="373.5,-36 317.5,-36 317.5,0 373.5,0 373.5,-36"/>
<text text-anchor="middle" x="345.5" y="-14.3" font-family="Times,serif" font-size="14.00">Melvin</text>
</g>
<!-- Paul Sharks&#45;&gt;Melvin -->
<g id="edge49" class="edge">
<title>Paul Sharks&#45;&gt;Melvin</title>
<path fill="none" stroke="black" d="M384.38,-179.93C376.9,-148.97 361.03,-83.3 352.05,-46.13"/>
<polygon fill="black" stroke="black" points="355.36,-44.91 349.61,-36.02 348.56,-46.56 355.36,-44.91"/>
</g>
<!-- Gaspard Valhall&#39;Art -->
<g id="node6" class="node">
<title>Gaspard Valhall&#39;Art</title>
<polygon fill="#00bfff" stroke="#c1c9e2" points="629,-396 506,-396 506,-360 629,-360 629,-396"/>
<text text-anchor="middle" x="567.5" y="-374.3" font-family="Times,serif" font-size="14.00">Gaspard Valhall&#39;Art</text>
</g>
<!-- Gaspard Valhall&#39;Art&#45;&gt;Jorge Mist -->
<g id="edge5" class="edge">
<title>Gaspard Valhall&#39;Art&#45;&gt;Jorge Mist</title>
<path fill="none" stroke="black" d="M590.13,-359.93C632.68,-327.84 724.66,-258.46 772.77,-222.18"/>
<polygon fill="black" stroke="black" points="775.06,-224.83 780.94,-216.02 770.85,-219.24 775.06,-224.83"/>
</g>
<!-- Gaspard Valhall&#39;Art&#45;&gt;Logan Sharks -->
<g id="edge6" class="edge">
<title>Gaspard Valhall&#39;Art&#45;&gt;Logan Sharks</title>
<path fill="none" stroke="black" d="M629.08,-369.04C794.18,-347.42 1260.34,-284.63 1645.5,-216 1653.83,-214.52 1662.62,-212.83 1671.22,-211.1"/>
<polygon fill="black" stroke="black" points="1672.08,-214.5 1681.19,-209.08 1670.69,-207.64 1672.08,-214.5"/>
</g>
<!-- Clovis Sharks -->
<g id="node7" class="node">
<title>Clovis Sharks</title>
<polygon fill="#bdabda" stroke="#c1c9e2" points="275.5,-216 183.5,-216 183.5,-180 275.5,-180 275.5,-216"/>
<text text-anchor="middle" x="229.5" y="-194.3" font-family="Times,serif" font-size="14.00">Clovis Sharks</text>
</g>
<!-- Gaspard Valhall&#39;Art&#45;&gt;Clovis Sharks -->
<g id="edge7" class="edge">
<title>Gaspard Valhall&#39;Art&#45;&gt;Clovis Sharks</title>
<path fill="none" stroke="black" d="M535.09,-359.93C473.39,-327.44 339.13,-256.73 270.97,-220.84"/>
<polygon fill="black" stroke="black" points="272.29,-217.58 261.81,-216.02 269.03,-223.77 272.29,-217.58"/>
</g>
<!-- Gabriel Katan&#39;Art -->
<g id="node8" class="node">
<title>Gabriel Katan&#39;Art</title>
<polygon fill="#ffcba4" stroke="#c1c9e2" points="614,-216 501,-216 501,-180 614,-180 614,-216"/>
<text text-anchor="middle" x="557.5" y="-194.3" font-family="Times,serif" font-size="14.00">Gabriel Katan&#39;Art</text>
</g>
<!-- Gaspard Valhall&#39;Art&#45;&gt;Gabriel Katan&#39;Art -->
<g id="edge8" class="edge">
<title>Gaspard Valhall&#39;Art&#45;&gt;Gabriel Katan&#39;Art</title>
<path fill="none" stroke="black" d="M566.54,-359.93C564.8,-328.97 561.11,-263.3 559.02,-226.13"/>
<polygon fill="black" stroke="black" points="562.51,-225.8 558.46,-216.02 555.52,-226.2 562.51,-225.8"/>
</g>
<!-- Clovis Sharks&#45;&gt;Anaïs2 -->
<g id="edge47" class="edge">
<title>Clovis Sharks&#45;&gt;Anaïs2</title>
<path fill="none" stroke="black" d="M228.45,-179.93C226.53,-148.97 222.47,-83.3 220.18,-46.13"/>
<polygon fill="black" stroke="black" points="223.66,-45.78 219.55,-36.02 216.68,-46.21 223.66,-45.78"/>
</g>
<!-- Gabriel Katan&#39;Art&#45;&gt;Melvin -->
<g id="edge50" class="edge">
<title>Gabriel Katan&#39;Art&#45;&gt;Melvin</title>
<path fill="none" stroke="black" d="M537.17,-179.93C499.1,-147.97 417,-79.04 373.64,-42.63"/>
<polygon fill="black" stroke="black" points="375.67,-39.77 365.77,-36.02 371.17,-45.13 375.67,-39.77"/>
</g>
<!-- Julien -->
<g id="node41" class="node">
<title>Julien</title>
<polygon fill="#c1c9e2" stroke="#c1c9e2" points="499.5,-36 445.5,-36 445.5,0 499.5,0 499.5,-36"/>
<text text-anchor="middle" x="472.5" y="-14.3" font-family="Times,serif" font-size="14.00">Julien</text>
</g>
<!-- Gabriel Katan&#39;Art&#45;&gt;Julien -->
<g id="edge51" class="edge">
<title>Gabriel Katan&#39;Art&#45;&gt;Julien</title>
<path fill="none" stroke="black" d="M549.35,-179.93C534.44,-148.7 502.66,-82.17 485,-45.18"/>
<polygon fill="black" stroke="black" points="488.09,-43.53 480.63,-36.02 481.78,-46.55 488.09,-43.53"/>
</g>
<!-- Lucie Sharks -->
<g id="node9" class="node">
<title>Lucie Sharks</title>
<polygon fill="#bdabda" stroke="#c1c9e2" points="2247.5,-216 2159.5,-216 2159.5,-180 2247.5,-180 2247.5,-216"/>
<text text-anchor="middle" x="2203.5" y="-194.3" font-family="Times,serif" font-size="14.00">Lucie Sharks</text>
</g>
<!-- Lucie Sharks&#45;&gt;Nicolas -->
<g id="edge9" class="edge">
<title>Lucie Sharks&#45;&gt;Nicolas</title>
<path fill="none" stroke="black" d="M2199.38,-179.93C2191.9,-148.97 2176.03,-83.3 2167.05,-46.13"/>
<polygon fill="black" stroke="black" points="2170.36,-44.91 2164.61,-36.02 2163.56,-46.56 2170.36,-44.91"/>
</g>
<!-- Lucie Sharks&#45;&gt;Thomas -->
<g id="edge10" class="edge">
<title>Lucie Sharks&#45;&gt;Thomas</title>
<path fill="none" stroke="black" d="M2186.72,-179.93C2155.49,-148.17 2088.37,-79.89 2052.41,-43.32"/>
<polygon fill="black" stroke="black" points="2054.74,-40.69 2045.23,-36.02 2049.74,-45.6 2054.74,-40.69"/>
</g>
<!-- Lucie Sharks&#45;&gt;Flo3 -->
<g id="edge11" class="edge">
<title>Lucie Sharks&#45;&gt;Flo3</title>
<path fill="none" stroke="black" d="M2211.65,-179.93C2226.56,-148.7 2258.34,-82.17 2276,-45.18"/>
<polygon fill="black" stroke="black" points="2279.22,-46.55 2280.37,-36.02 2272.91,-43.53 2279.22,-46.55"/>
</g>
<!-- Lalie Valhall&#39;Art -->
<g id="node13" class="node">
<title>Lalie Valhall&#39;Art</title>
<polygon fill="#00bfff" stroke="#c1c9e2" points="1617.5,-396 1511.5,-396 1511.5,-360 1617.5,-360 1617.5,-396"/>
<text text-anchor="middle" x="1564.5" y="-374.3" font-family="Times,serif" font-size="14.00">Lalie Valhall&#39;Art</text>
</g>
<!-- Lalie Valhall&#39;Art&#45;&gt;Logan Sharks -->
<g id="edge12" class="edge">
<title>Lalie Valhall&#39;Art&#45;&gt;Logan Sharks</title>
<path fill="none" stroke="black" d="M1580.13,-359.93C1609.09,-328.3 1671.22,-260.46 1704.81,-223.78"/>
<polygon fill="black" stroke="black" points="1707.75,-225.75 1711.92,-216.02 1702.58,-221.03 1707.75,-225.75"/>
</g>
<!-- Virgile Sharks -->
<g id="node14" class="node">
<title>Virgile Sharks</title>
<polygon fill="#bdabda" stroke="#c1c9e2" points="1307,-216 1212,-216 1212,-180 1307,-180 1307,-216"/>
<text text-anchor="middle" x="1259.5" y="-194.3" font-family="Times,serif" font-size="14.00">Virgile Sharks</text>
</g>
<!-- Lalie Valhall&#39;Art&#45;&gt;Virgile Sharks -->
<g id="edge13" class="edge">
<title>Lalie Valhall&#39;Art&#45;&gt;Virgile Sharks</title>
<path fill="none" stroke="black" d="M1535.26,-359.93C1479.69,-327.5 1358.92,-257.02 1297.3,-221.06"/>
<polygon fill="black" stroke="black" points="1299.06,-218.03 1288.66,-216.02 1295.53,-224.08 1299.06,-218.03"/>
</g>
<!-- Lucas Sharks -->
<g id="node15" class="node">
<title>Lucas Sharks</title>
<polygon fill="#bdabda" stroke="#c1c9e2" points="1609,-216 1520,-216 1520,-180 1609,-180 1609,-216"/>
<text text-anchor="middle" x="1564.5" y="-194.3" font-family="Times,serif" font-size="14.00">Lucas Sharks</text>
</g>
<!-- Lalie Valhall&#39;Art&#45;&gt;Lucas Sharks -->
<g id="edge14" class="edge">
<title>Lalie Valhall&#39;Art&#45;&gt;Lucas Sharks</title>
<path fill="none" stroke="black" d="M1564.5,-359.93C1564.5,-328.97 1564.5,-263.3 1564.5,-226.13"/>
<polygon fill="black" stroke="black" points="1568,-226.02 1564.5,-216.02 1561,-226.02 1568,-226.02"/>
</g>
<!-- Nils Mist -->
<g id="node16" class="node">
<title>Nils Mist</title>
<polygon fill="#9e0e40" stroke="#c1c9e2" points="1447.5,-216 1379.5,-216 1379.5,-180 1447.5,-180 1447.5,-216"/>
<text text-anchor="middle" x="1413.5" y="-194.3" font-family="Times,serif" font-size="14.00">Nils Mist</text>
</g>
<!-- Lalie Valhall&#39;Art&#45;&gt;Nils Mist -->
<g id="edge15" class="edge">
<title>Lalie Valhall&#39;Art&#45;&gt;Nils Mist</title>
<path fill="none" stroke="black" d="M1550.02,-359.93C1523.19,-328.3 1465.64,-260.46 1434.52,-223.78"/>
<polygon fill="black" stroke="black" points="1437.07,-221.38 1427.93,-216.02 1431.73,-225.91 1437.07,-221.38"/>
</g>
<!-- Mathis Mist -->
<g id="node17" class="node">
<title>Mathis Mist</title>
<polygon fill="#c1c9e2" stroke="#c1c9e2" points="1929.5,-216 1845.5,-216 1845.5,-180 1929.5,-180 1929.5,-216"/>
<text text-anchor="middle" x="1887.5" y="-194.3" font-family="Times,serif" font-size="14.00">Mathis Mist</text>
</g>
<!-- Lalie Valhall&#39;Art&#45;&gt;Mathis Mist -->
<g id="edge16" class="edge">
<title>Lalie Valhall&#39;Art&#45;&gt;Mathis Mist</title>
<path fill="none" stroke="black" d="M1595.47,-359.93C1654.32,-327.5 1782.21,-257.02 1847.47,-221.06"/>
<polygon fill="black" stroke="black" points="1849.55,-223.91 1856.62,-216.02 1846.18,-217.78 1849.55,-223.91"/>
</g>
<!-- Virgile Sharks&#45;&gt;Alys -->
<g id="edge37" class="edge">
<title>Virgile Sharks&#45;&gt;Alys</title>
<path fill="none" stroke="black" d="M1245.41,-179.93C1219.28,-148.3 1163.26,-80.46 1132.96,-43.78"/>
<polygon fill="black" stroke="black" points="1135.62,-41.5 1126.55,-36.02 1130.22,-45.95 1135.62,-41.5"/>
</g>
<!-- Clément -->
<g id="node34" class="node">
<title>Clément</title>
<polygon fill="#c1c9e2" stroke="#c1c9e2" points="1407,-36 1344,-36 1344,0 1407,0 1407,-36"/>
<text text-anchor="middle" x="1375.5" y="-14.3" font-family="Times,serif" font-size="14.00">Clément</text>
</g>
<!-- Virgile Sharks&#45;&gt;Clément -->
<g id="edge38" class="edge">
<title>Virgile Sharks&#45;&gt;Clément</title>
<path fill="none" stroke="black" d="M1270.62,-179.93C1291.06,-148.57 1334.7,-81.6 1358.75,-44.71"/>
<polygon fill="black" stroke="black" points="1361.88,-46.3 1364.41,-36.02 1356.02,-42.48 1361.88,-46.3"/>
</g>
<!-- Charlotte -->
<g id="node42" class="node">
<title>Charlotte</title>
<polygon fill="#c1c9e2" stroke="#c1c9e2" points="1799,-36 1732,-36 1732,0 1799,0 1799,-36"/>
<text text-anchor="middle" x="1765.5" y="-14.3" font-family="Times,serif" font-size="14.00">Charlotte</text>
</g>
<!-- Lucas Sharks&#45;&gt;Charlotte -->
<g id="edge52" class="edge">
<title>Lucas Sharks&#45;&gt;Charlotte</title>
<path fill="none" stroke="black" d="M1583.77,-179.93C1619.79,-148.04 1697.38,-79.32 1738.56,-42.86"/>
<polygon fill="black" stroke="black" points="1741.12,-45.27 1746.29,-36.02 1736.48,-40.03 1741.12,-45.27"/>
</g>
<!-- Lou -->
<g id="node43" class="node">
<title>Lou</title>
<polygon fill="#c1c9e2" stroke="#c1c9e2" points="1533.5,-36 1479.5,-36 1479.5,0 1533.5,0 1533.5,-36"/>
<text text-anchor="middle" x="1506.5" y="-14.3" font-family="Times,serif" font-size="14.00">Lou</text>
</g>
<!-- Lucas Sharks&#45;&gt;Lou -->
<g id="edge53" class="edge">
<title>Lucas Sharks&#45;&gt;Lou</title>
<path fill="none" stroke="black" d="M1558.94,-179.93C1548.81,-148.83 1527.27,-82.73 1515.18,-45.65"/>
<polygon fill="black" stroke="black" points="1518.47,-44.44 1512.04,-36.02 1511.81,-46.61 1518.47,-44.44"/>
</g>
<!-- Amaël -->
<g id="node44" class="node">
<title>Amaël</title>
<polygon fill="#c1c9e2" stroke="#c1c9e2" points="1659.5,-36 1605.5,-36 1605.5,0 1659.5,0 1659.5,-36"/>
<text text-anchor="middle" x="1632.5" y="-14.3" font-family="Times,serif" font-size="14.00">Amaël</text>
</g>
<!-- Lucas Sharks&#45;&gt;Amaël -->
<g id="edge54" class="edge">
<title>Lucas Sharks&#45;&gt;Amaël</title>
<path fill="none" stroke="black" d="M1571.02,-179.93C1582.9,-148.83 1608.15,-82.73 1622.32,-45.65"/>
<polygon fill="black" stroke="black" points="1625.7,-46.61 1626,-36.02 1619.16,-44.11 1625.7,-46.61"/>
</g>
<!-- Nils Mist&#45;&gt;Clément -->
<g id="edge55" class="edge">
<title>Nils Mist&#45;&gt;Clément</title>
<path fill="none" stroke="black" d="M1409.86,-179.93C1403.25,-148.97 1389.23,-83.3 1381.29,-46.13"/>
<polygon fill="black" stroke="black" points="1384.64,-45.06 1379.13,-36.02 1377.8,-46.53 1384.64,-45.06"/>
</g>
<!-- Quentin Valhall&#39;Art -->
<g id="node18" class="node">
<title>Quentin Valhall&#39;Art</title>
<polygon fill="#00bfff" stroke="#c1c9e2" points="167.5,-396 45.5,-396 45.5,-360 167.5,-360 167.5,-396"/>
<text text-anchor="middle" x="106.5" y="-374.3" font-family="Times,serif" font-size="14.00">Quentin Valhall&#39;Art</text>
</g>
<!-- Olivier Katan&#39;Art -->
<g id="node19" class="node">
<title>Olivier Katan&#39;Art</title>
<polygon fill="#ffcba4" stroke="#c1c9e2" points="111,-216 0,-216 0,-180 111,-180 111,-216"/>
<text text-anchor="middle" x="55.5" y="-194.3" font-family="Times,serif" font-size="14.00">Olivier Katan&#39;Art</text>
</g>
<!-- Quentin Valhall&#39;Art&#45;&gt;Olivier Katan&#39;Art -->
<g id="edge17" class="edge">
<title>Quentin Valhall&#39;Art&#45;&gt;Olivier Katan&#39;Art</title>
<path fill="none" stroke="black" d="M101.61,-359.93C92.7,-328.83 73.76,-262.73 63.14,-225.65"/>
<polygon fill="black" stroke="black" points="66.49,-224.66 60.38,-216.02 59.77,-226.59 66.49,-224.66"/>
</g>
<!-- Maxime Pulsar -->
<g id="node20" class="node">
<title>Maxime Pulsar</title>
<polygon fill="#a300a3" stroke="#c1c9e2" points="618,-576 517,-576 517,-540 618,-540 618,-576"/>
<text text-anchor="middle" x="567.5" y="-554.3" font-family="Times,serif" font-size="14.00">Maxime Pulsar</text>
</g>
<!-- Maxime Pulsar&#45;&gt;Antoine Valhall&#39;Art -->
<g id="edge18" class="edge">
<title>Maxime Pulsar&#45;&gt;Antoine Valhall&#39;Art</title>
<path fill="none" stroke="black" d="M590.13,-539.93C632.68,-507.84 724.66,-438.46 772.77,-402.18"/>
<polygon fill="black" stroke="black" points="775.06,-404.83 780.94,-396.02 770.85,-399.24 775.06,-404.83"/>
</g>
<!-- Maxime Pulsar&#45;&gt;Gaspard Valhall&#39;Art -->
<g id="edge19" class="edge">
<title>Maxime Pulsar&#45;&gt;Gaspard Valhall&#39;Art</title>
<path fill="none" stroke="black" d="M567.5,-539.93C567.5,-508.97 567.5,-443.3 567.5,-406.13"/>
<polygon fill="black" stroke="black" points="571,-406.02 567.5,-396.02 564,-406.02 571,-406.02"/>
</g>
<!-- Maxime Pulsar&#45;&gt;Clovis Sharks -->
<g id="edge20" class="edge">
<title>Maxime Pulsar&#45;&gt;Clovis Sharks</title>
<path fill="none" stroke="black" d="M551.2,-539.73C496.09,-481.36 316.63,-291.29 252.52,-223.39"/>
<polygon fill="black" stroke="black" points="255.05,-220.96 245.64,-216.09 249.96,-225.77 255.05,-220.96"/>
</g>
<!-- Maxime Pulsar&#45;&gt;Lalie Valhall&#39;Art -->
<g id="edge21" class="edge">
<title>Maxime Pulsar&#45;&gt;Lalie Valhall&#39;Art</title>
<path fill="none" stroke="black" d="M618.31,-547.93C785.39,-518.1 1317.53,-423.09 1501.34,-390.28"/>
<polygon fill="black" stroke="black" points="1502.16,-393.69 1511.39,-388.48 1500.93,-386.79 1502.16,-393.69"/>
</g>
<!-- Maxime Pulsar&#45;&gt;Quentin Valhall&#39;Art -->
<g id="edge22" class="edge">
<title>Maxime Pulsar&#45;&gt;Quentin Valhall&#39;Art</title>
<path fill="none" stroke="black" d="M523.3,-539.93C438.19,-507.07 251.89,-435.14 159.96,-399.64"/>
<polygon fill="black" stroke="black" points="161.16,-396.35 150.57,-396.02 158.64,-402.88 161.16,-396.35"/>
</g>
<!-- Yanis Pulsar -->
<g id="node21" class="node">
<title>Yanis Pulsar</title>
<polygon fill="#a300a3" stroke="#c1c9e2" points="2351,-576 2266,-576 2266,-540 2351,-540 2351,-576"/>
<text text-anchor="middle" x="2308.5" y="-554.3" font-family="Times,serif" font-size="14.00">Yanis Pulsar</text>
</g>
<!-- Yanis Pulsar&#45;&gt;Lalie Valhall&#39;Art -->
<g id="edge23" class="edge">
<title>Yanis Pulsar&#45;&gt;Lalie Valhall&#39;Art</title>
<path fill="none" stroke="black" d="M2265.83,-546.79C2140.87,-516.89 1775.27,-429.43 1627.53,-394.08"/>
<polygon fill="black" stroke="black" points="1628.24,-390.65 1617.7,-391.73 1626.61,-397.46 1628.24,-390.65"/>
</g>
<!-- Robin Horn -->
<g id="node22" class="node">
<title>Robin Horn</title>
<polygon fill="#f2be00" stroke="#c1c9e2" points="2244,-396 2163,-396 2163,-360 2244,-360 2244,-396"/>
<text text-anchor="middle" x="2203.5" y="-374.3" font-family="Times,serif" font-size="14.00">Robin Horn</text>
</g>
<!-- Yanis Pulsar&#45;&gt;Robin Horn -->
<g id="edge24" class="edge">
<title>Yanis Pulsar&#45;&gt;Robin Horn</title>
<path fill="none" stroke="black" d="M2298.43,-539.93C2279.93,-508.57 2240.43,-441.6 2218.66,-404.71"/>
<polygon fill="black" stroke="black" points="2221.63,-402.85 2213.54,-396.02 2215.6,-406.41 2221.63,-402.85"/>
</g>
<!-- Vincent Valhall&#39;Art -->
<g id="node23" class="node">
<title>Vincent Valhall&#39;Art</title>
<polygon fill="#00bfff" stroke="#c1c9e2" points="2475,-396 2354,-396 2354,-360 2475,-360 2475,-396"/>
<text text-anchor="middle" x="2414.5" y="-374.3" font-family="Times,serif" font-size="14.00">Vincent Valhall&#39;Art</text>
</g>
<!-- Yanis Pulsar&#45;&gt;Vincent Valhall&#39;Art -->
<g id="edge25" class="edge">
<title>Yanis Pulsar&#45;&gt;Vincent Valhall&#39;Art</title>
<path fill="none" stroke="black" d="M2318.66,-539.93C2337.34,-508.57 2377.22,-441.6 2399.19,-404.71"/>
<polygon fill="black" stroke="black" points="2402.26,-406.4 2404.37,-396.02 2396.24,-402.82 2402.26,-406.4"/>
</g>
<!-- Thaïs Dice -->
<g id="node24" class="node">
<title>Thaïs Dice</title>
<polygon fill="#ff4d5c" stroke="#c1c9e2" points="2686.5,-396 2610.5,-396 2610.5,-360 2686.5,-360 2686.5,-396"/>
<text text-anchor="middle" x="2648.5" y="-374.3" font-family="Times,serif" font-size="14.00">Thaïs Dice</text>
</g>
<!-- Yanis Pulsar&#45;&gt;Thaïs Dice -->
<g id="edge26" class="edge">
<title>Yanis Pulsar&#45;&gt;Thaïs Dice</title>
<path fill="none" stroke="black" d="M2341.1,-539.93C2403.17,-507.44 2538.23,-436.73 2606.78,-400.84"/>
<polygon fill="black" stroke="black" points="2608.76,-403.75 2616,-396.02 2605.52,-397.55 2608.76,-403.75"/>
</g>
<!-- Robin Horn&#45;&gt;Lucie Sharks -->
<g id="edge28" class="edge">
<title>Robin Horn&#45;&gt;Lucie Sharks</title>
<path fill="none" stroke="black" d="M2203.5,-359.93C2203.5,-328.97 2203.5,-263.3 2203.5,-226.13"/>
<polygon fill="black" stroke="black" points="2207,-226.02 2203.5,-216.02 2200,-226.02 2207,-226.02"/>
</g>
<!-- Adrien Gold -->
<g id="node26" class="node">
<title>Adrien Gold</title>
<polygon fill="#ffffff" stroke="#c1c9e2" points="2087,-216 2002,-216 2002,-180 2087,-180 2087,-216"/>
<text text-anchor="middle" x="2044.5" y="-194.3" font-family="Times,serif" font-size="14.00">Adrien Gold</text>
</g>
<!-- Robin Horn&#45;&gt;Adrien Gold -->
<g id="edge29" class="edge">
<title>Robin Horn&#45;&gt;Adrien Gold</title>
<path fill="none" stroke="black" d="M2188.25,-359.93C2160,-328.3 2099.4,-260.46 2066.63,-223.78"/>
<polygon fill="black" stroke="black" points="2068.97,-221.14 2059.7,-216.02 2063.75,-225.81 2068.97,-221.14"/>
</g>
<!-- Flavien Sharks -->
<g id="node27" class="node">
<title>Flavien Sharks</title>
<polygon fill="#bdabda" stroke="#c1c9e2" points="2463.5,-216 2365.5,-216 2365.5,-180 2463.5,-180 2463.5,-216"/>
<text text-anchor="middle" x="2414.5" y="-194.3" font-family="Times,serif" font-size="14.00">Flavien Sharks</text>
</g>
<!-- Vincent Valhall&#39;Art&#45;&gt;Flavien Sharks -->
<g id="edge30" class="edge">
<title>Vincent Valhall&#39;Art&#45;&gt;Flavien Sharks</title>
<path fill="none" stroke="black" d="M2414.5,-359.93C2414.5,-328.97 2414.5,-263.3 2414.5,-226.13"/>
<polygon fill="black" stroke="black" points="2418,-226.02 2414.5,-216.02 2411,-226.02 2418,-226.02"/>
</g>
<!-- Zoé Mist -->
<g id="node28" class="node">
<title>Zoé Mist</title>
<polygon fill="#9e0e40" stroke="#c1c9e2" points="2653,-216 2586,-216 2586,-180 2653,-180 2653,-216"/>
<text text-anchor="middle" x="2619.5" y="-194.3" font-family="Times,serif" font-size="14.00">Zoé Mist</text>
</g>
<!-- Vincent Valhall&#39;Art&#45;&gt;Zoé Mist -->
<g id="edge31" class="edge">
<title>Vincent Valhall&#39;Art&#45;&gt;Zoé Mist</title>
<path fill="none" stroke="black" d="M2434.16,-359.93C2470.97,-327.97 2550.36,-259.04 2592.29,-222.63"/>
<polygon fill="black" stroke="black" points="2594.65,-225.21 2599.9,-216.02 2590.06,-219.93 2594.65,-225.21"/>
</g>
<!-- Théo Gold -->
<g id="node25" class="node">
<title>Théo Gold</title>
<polygon fill="#ffffff" stroke="#c1c9e2" points="2800,-216 2725,-216 2725,-180 2800,-180 2800,-216"/>
<text text-anchor="middle" x="2762.5" y="-194.3" font-family="Times,serif" font-size="14.00">Théo Gold</text>
</g>
<!-- Thaïs Dice&#45;&gt;Théo Gold -->
<g id="edge27" class="edge">
<title>Thaïs Dice&#45;&gt;Théo Gold</title>
<path fill="none" stroke="black" d="M2659.43,-359.93C2679.52,-328.57 2722.41,-261.6 2746.04,-224.71"/>
<polygon fill="black" stroke="black" points="2749.16,-226.32 2751.6,-216.02 2743.26,-222.55 2749.16,-226.32"/>
</g>
<!-- Adrien Gold&#45;&gt;Charlotte -->
<g id="edge60" class="edge">
<title>Adrien Gold&#45;&gt;Charlotte</title>
<path fill="none" stroke="black" d="M2017.75,-179.93C1967.13,-147.64 1857.35,-77.6 1800.78,-41.51"/>
<polygon fill="black" stroke="black" points="1802.48,-38.44 1792.17,-36.02 1798.72,-44.34 1802.48,-38.44"/>
</g>
<!-- Flavien Sharks&#45;&gt;Henri -->
<g id="edge39" class="edge">
<title>Flavien Sharks&#45;&gt;Henri</title>
<path fill="none" stroke="black" d="M2365.49,-180.09C2262.68,-144.63 2026.46,-63.14 1935.32,-31.7"/>
<polygon fill="black" stroke="black" points="1936.29,-28.33 1925.69,-28.38 1934,-34.95 1936.29,-28.33"/>
</g>
<!-- Anaïs1 -->
<g id="node35" class="node">
<title>Anaïs1</title>
<polygon fill="#c1c9e2" stroke="#c1c9e2" points="2441.5,-36 2387.5,-36 2387.5,0 2441.5,0 2441.5,-36"/>
<text text-anchor="middle" x="2414.5" y="-14.3" font-family="Times,serif" font-size="14.00">Anaïs</text>
</g>
<!-- Flavien Sharks&#45;&gt;Anaïs1 -->
<g id="edge40" class="edge">
<title>Flavien Sharks&#45;&gt;Anaïs1</title>
<path fill="none" stroke="black" d="M2414.5,-179.93C2414.5,-148.97 2414.5,-83.3 2414.5,-46.13"/>
<polygon fill="black" stroke="black" points="2418,-46.02 2414.5,-36.02 2411,-46.02 2418,-46.02"/>
</g>
<!-- Sarah -->
<g id="node36" class="node">
<title>Sarah</title>
<polygon fill="#c1c9e2" stroke="#c1c9e2" points="2567.5,-36 2513.5,-36 2513.5,0 2567.5,0 2567.5,-36"/>
<text text-anchor="middle" x="2540.5" y="-14.3" font-family="Times,serif" font-size="14.00">Sarah</text>
</g>
<!-- Flavien Sharks&#45;&gt;Sarah -->
<g id="edge41" class="edge">
<title>Flavien Sharks&#45;&gt;Sarah</title>
<path fill="none" stroke="black" d="M2426.58,-179.93C2448.88,-148.43 2496.59,-81.03 2522.63,-44.24"/>
<polygon fill="black" stroke="black" points="2525.53,-46.2 2528.46,-36.02 2519.82,-42.16 2525.53,-46.2"/>
</g>
<!-- Zoé Mist&#45;&gt;Flo3 -->
<g id="edge56" class="edge">
<title>Zoé Mist&#45;&gt;Flo3</title>
<path fill="none" stroke="black" d="M2587.76,-179.93C2526.07,-146.76 2390.32,-73.76 2325.01,-38.63"/>
<polygon fill="black" stroke="black" points="2326.37,-35.39 2315.9,-33.74 2323.05,-41.56 2326.37,-35.39"/>
</g>
<!-- Robin -->
<g id="node45" class="node">
<title>Robin</title>
<polygon fill="#c1c9e2" stroke="#c1c9e2" points="2953.5,-36 2899.5,-36 2899.5,0 2953.5,0 2953.5,-36"/>
<text text-anchor="middle" x="2926.5" y="-14.3" font-family="Times,serif" font-size="14.00">Robin</text>
</g>
<!-- Zoé Mist&#45;&gt;Robin -->
<g id="edge57" class="edge">
<title>Zoé Mist&#45;&gt;Robin</title>
<path fill="none" stroke="black" d="M2648.94,-179.93C2705.47,-147.16 2829.04,-75.51 2890.42,-39.92"/>
<polygon fill="black" stroke="black" points="2892.47,-42.78 2899.37,-34.73 2888.96,-36.72 2892.47,-42.78"/>
</g>
<!-- Antoine -->
<g id="node46" class="node">
<title>Antoine</title>
<polygon fill="#c1c9e2" stroke="#c1c9e2" points="2699.5,-36 2639.5,-36 2639.5,0 2699.5,0 2699.5,-36"/>
<text text-anchor="middle" x="2669.5" y="-14.3" font-family="Times,serif" font-size="14.00">Antoine</text>
</g>
<!-- Zoé Mist&#45;&gt;Antoine -->
<g id="edge58" class="edge">
<title>Zoé Mist&#45;&gt;Antoine</title>
<path fill="none" stroke="black" d="M2624.29,-179.93C2633.03,-148.83 2651.6,-82.73 2662.01,-45.65"/>
<polygon fill="black" stroke="black" points="2665.39,-46.59 2664.72,-36.02 2658.65,-44.7 2665.39,-46.59"/>
</g>
<!-- Emélie -->
<g id="node47" class="node">
<title>Emélie</title>
<polygon fill="#c1c9e2" stroke="#c1c9e2" points="2827.5,-36 2771.5,-36 2771.5,0 2827.5,0 2827.5,-36"/>
<text text-anchor="middle" x="2799.5" y="-14.3" font-family="Times,serif" font-size="14.00">Emélie</text>
</g>
<!-- Zoé Mist&#45;&gt;Emélie -->
<g id="edge59" class="edge">
<title>Zoé Mist&#45;&gt;Emélie</title>
<path fill="none" stroke="black" d="M2636.76,-179.93C2668.88,-148.17 2737.92,-79.89 2774.91,-43.32"/>
<polygon fill="black" stroke="black" points="2777.64,-45.54 2782.29,-36.02 2772.72,-40.56 2777.64,-45.54"/>
</g>
</g>
</svg>
