<?xml version="1.0" encoding="UTF-8" standalone="no"?>
<!DOCTYPE svg PUBLIC "-//W3C//DTD SVG 1.1//EN"
 "http://www.w3.org/Graphics/SVG/1.1/DTD/svg11.dtd">
<!-- Generated by graphviz version 6.0.1 (0)
 -->
<!-- Title: G Pages: 1 -->
<svg width="3021pt" height="648pt"
 viewBox="0.00 0.00 3020.50 648.00" xmlns="http://www.w3.org/2000/svg" xmlns:xlink="http://www.w3.org/1999/xlink">
<g id="graph0" class="graph" transform="scale(1 1) rotate(0) translate(36 612)">
<title>G</title>
<polygon fill="white" stroke="none" points="-36,36 -36,-612 2984.5,-612 2984.5,36 -36,36"/>
<!-- Antoine Valhall&#39;Art -->
<g id="node1" class="node">
<title>Antoine Valhall&#39;Art</title>
<polygon fill="#00bfff" stroke="#c1c9e2" points="2168,-396 2046,-396 2046,-360 2168,-360 2168,-396"/>
<text text-anchor="middle" x="2107" y="-374.3" font-family="Times,serif" font-size="14.00">Antoine Valhall&#39;Art</text>
</g>
<!-- Jorge Mist -->
<g id="node2" class="node">
<title>Jorge Mist</title>
<polygon fill="#9e0e40" stroke="#c1c9e2" points="2144.5,-216 2069.5,-216 2069.5,-180 2144.5,-180 2144.5,-216"/>
<text text-anchor="middle" x="2107" y="-194.3" font-family="Times,serif" font-size="14.00">Jorge Mist</text>
</g>
<!-- Antoine Valhall&#39;Art&#45;&gt;Jorge Mist -->
<g id="edge1" class="edge">
<title>Antoine Valhall&#39;Art&#45;&gt;Jorge Mist</title>
<path fill="none" stroke="black" d="M2107,-359.93C2107,-328.97 2107,-263.3 2107,-226.13"/>
<polygon fill="black" stroke="black" points="2110.5,-226.02 2107,-216.02 2103.5,-226.02 2110.5,-226.02"/>
</g>
<!-- Logan Sharks -->
<g id="node3" class="node">
<title>Logan Sharks</title>
<polygon fill="#bdabda" stroke="#c1c9e2" points="1309,-216 1217,-216 1217,-180 1309,-180 1309,-216"/>
<text text-anchor="middle" x="1263" y="-194.3" font-family="Times,serif" font-size="14.00">Logan Sharks</text>
</g>
<!-- Antoine Valhall&#39;Art&#45;&gt;Logan Sharks -->
<g id="edge2" class="edge">
<title>Antoine Valhall&#39;Art&#45;&gt;Logan Sharks</title>
<path fill="none" stroke="black" d="M2045.96,-364.13C1888.65,-330.95 1471.11,-242.89 1319.24,-210.86"/>
<polygon fill="black" stroke="black" points="1319.71,-207.38 1309.2,-208.74 1318.26,-214.23 1319.71,-207.38"/>
</g>
<!-- Matthieu Sharks -->
<g id="node4" class="node">
<title>Matthieu Sharks</title>
<polygon fill="#bdabda" stroke="#c1c9e2" points="1997.5,-216 1890.5,-216 1890.5,-180 1997.5,-180 1997.5,-216"/>
<text text-anchor="middle" x="1944" y="-194.3" font-family="Times,serif" font-size="14.00">Matthieu Sharks</text>
</g>
<!-- Antoine Valhall&#39;Art&#45;&gt;Matthieu Sharks -->
<g id="edge3" class="edge">
<title>Antoine Valhall&#39;Art&#45;&gt;Matthieu Sharks</title>
<path fill="none" stroke="black" d="M2091.37,-359.93C2062.41,-328.3 2000.28,-260.46 1966.69,-223.78"/>
<polygon fill="black" stroke="black" points="1968.92,-221.03 1959.58,-216.02 1963.75,-225.75 1968.92,-221.03"/>
</g>
<!-- Paul Sharks -->
<g id="node5" class="node">
<title>Paul Sharks</title>
<polygon fill="#bdabda" stroke="#c1c9e2" points="2600.5,-216 2519.5,-216 2519.5,-180 2600.5,-180 2600.5,-216"/>
<text text-anchor="middle" x="2560" y="-194.3" font-family="Times,serif" font-size="14.00">Paul Sharks</text>
</g>
<!-- Antoine Valhall&#39;Art&#45;&gt;Paul Sharks -->
<g id="edge4" class="edge">
<title>Antoine Valhall&#39;Art&#45;&gt;Paul Sharks</title>
<path fill="none" stroke="black" d="M2150.44,-359.93C2234.83,-326.77 2420.52,-253.81 2509.93,-218.67"/>
<polygon fill="black" stroke="black" points="2511.29,-221.9 2519.32,-214.99 2508.73,-215.39 2511.29,-221.9"/>
</g>
<!-- Henri -->
<g id="node29" class="node">
<title>Henri</title>
<polygon fill="#c1c9e2" stroke="#c1c9e2" points="1347,-36 1293,-36 1293,0 1347,0 1347,-36"/>
<text text-anchor="middle" x="1320" y="-14.3" font-family="Times,serif" font-size="14.00">Henri</text>
</g>
<!-- Jorge Mist&#45;&gt;Henri -->
<g id="edge32" class="edge">
<title>Jorge Mist&#45;&gt;Henri</title>
<path fill="none" stroke="black" d="M2069.13,-188.1C2057.83,-185.46 2045.42,-182.59 2034,-180 1745.03,-114.39 1670.79,-106.62 1383,-36 1374.54,-33.92 1365.48,-31.56 1356.94,-29.27"/>
<polygon fill="black" stroke="black" points="1357.79,-25.87 1347.22,-26.64 1355.95,-32.63 1357.79,-25.87"/>
</g>
<!-- Clara -->
<g id="node30" class="node">
<title>Clara</title>
<polygon fill="#c1c9e2" stroke="#c1c9e2" points="2381,-36 2327,-36 2327,0 2381,0 2381,-36"/>
<text text-anchor="middle" x="2354" y="-14.3" font-family="Times,serif" font-size="14.00">Clara</text>
</g>
<!-- Jorge Mist&#45;&gt;Clara -->
<g id="edge33" class="edge">
<title>Jorge Mist&#45;&gt;Clara</title>
<path fill="none" stroke="black" d="M2130.68,-179.93C2175.31,-147.77 2271.89,-78.17 2322.15,-41.95"/>
<polygon fill="black" stroke="black" points="2324.32,-44.7 2330.39,-36.02 2320.23,-39.02 2324.32,-44.7"/>
</g>
<!-- Alys -->
<g id="node31" class="node">
<title>Alys</title>
<polygon fill="#c1c9e2" stroke="#c1c9e2" points="1867,-36 1813,-36 1813,0 1867,0 1867,-36"/>
<text text-anchor="middle" x="1840" y="-14.3" font-family="Times,serif" font-size="14.00">Alys</text>
</g>
<!-- Jorge Mist&#45;&gt;Alys -->
<g id="edge34" class="edge">
<title>Jorge Mist&#45;&gt;Alys</title>
<path fill="none" stroke="black" d="M2081.4,-179.93C2033.06,-147.7 1928.33,-77.89 1874.09,-41.73"/>
<polygon fill="black" stroke="black" points="1875.79,-38.65 1865.52,-36.02 1871.9,-44.47 1875.79,-38.65"/>
</g>
<!-- Paco -->
<g id="node32" class="node">
<title>Paco</title>
<polygon fill="#c1c9e2" stroke="#c1c9e2" points="2119,-36 2065,-36 2065,0 2119,0 2119,-36"/>
<text text-anchor="middle" x="2092" y="-14.3" font-family="Times,serif" font-size="14.00">Paco</text>
</g>
<!-- Jorge Mist&#45;&gt;Paco -->
<g id="edge35" class="edge">
<title>Jorge Mist&#45;&gt;Paco</title>
<path fill="none" stroke="black" d="M2105.56,-179.93C2102.95,-148.97 2097.42,-83.3 2094.29,-46.13"/>
<polygon fill="black" stroke="black" points="2097.76,-45.69 2093.43,-36.02 2090.79,-46.27 2097.76,-45.69"/>
</g>
<!-- Mariette -->
<g id="node33" class="node">
<title>Mariette</title>
<polygon fill="#c1c9e2" stroke="#c1c9e2" points="2254.5,-36 2191.5,-36 2191.5,0 2254.5,0 2254.5,-36"/>
<text text-anchor="middle" x="2223" y="-14.3" font-family="Times,serif" font-size="14.00">Mariette</text>
</g>
<!-- Jorge Mist&#45;&gt;Mariette -->
<g id="edge36" class="edge">
<title>Jorge Mist&#45;&gt;Mariette</title>
<path fill="none" stroke="black" d="M2118.12,-179.93C2138.56,-148.57 2182.2,-81.6 2206.25,-44.71"/>
<polygon fill="black" stroke="black" points="2209.38,-46.3 2211.91,-36.02 2203.52,-42.48 2209.38,-46.3"/>
</g>
<!-- Lili -->
<g id="node34" class="node">
<title>Lili</title>
<polygon fill="#c1c9e2" stroke="#c1c9e2" points="1993,-36 1939,-36 1939,0 1993,0 1993,-36"/>
<text text-anchor="middle" x="1966" y="-14.3" font-family="Times,serif" font-size="14.00">Lili</text>
</g>
<!-- Jorge Mist&#45;&gt;Lili -->
<g id="edge37" class="edge">
<title>Jorge Mist&#45;&gt;Lili</title>
<path fill="none" stroke="black" d="M2093.48,-179.93C2068.53,-148.43 2015.14,-81.03 1985.99,-44.24"/>
<polygon fill="black" stroke="black" points="1988.43,-41.68 1979.48,-36.02 1982.94,-46.03 1988.43,-41.68"/>
</g>
<!-- Nicolas -->
<g id="node10" class="node">
<title>Nicolas</title>
<polygon fill="#c1c9e2" stroke="#c1c9e2" points="822,-36 764,-36 764,0 822,0 822,-36"/>
<text text-anchor="middle" x="793" y="-14.3" font-family="Times,serif" font-size="14.00">Nicolas</text>
</g>
<!-- Logan Sharks&#45;&gt;Nicolas -->
<g id="edge43" class="edge">
<title>Logan Sharks&#45;&gt;Nicolas</title>
<path fill="none" stroke="black" d="M1217.93,-179.93C1125.9,-145.08 917.78,-66.26 831.55,-33.6"/>
<polygon fill="black" stroke="black" points="832.73,-30.3 822.13,-30.03 830.25,-36.85 832.73,-30.3"/>
</g>
<!-- Thomas -->
<g id="node11" class="node">
<title>Thomas</title>
<polygon fill="#c1c9e2" stroke="#c1c9e2" points="955.5,-36 894.5,-36 894.5,0 955.5,0 955.5,-36"/>
<text text-anchor="middle" x="925" y="-14.3" font-family="Times,serif" font-size="14.00">Thomas</text>
</g>
<!-- Logan Sharks&#45;&gt;Thomas -->
<g id="edge44" class="edge">
<title>Logan Sharks&#45;&gt;Thomas</title>
<path fill="none" stroke="black" d="M1230.59,-179.93C1168.41,-147.19 1032.56,-75.64 964.92,-40.02"/>
<polygon fill="black" stroke="black" points="966.32,-36.8 955.84,-35.24 963.06,-43 966.32,-36.8"/>
</g>
<!-- Flo3 -->
<g id="node12" class="node">
<title>Flo3</title>
<polygon fill="#c1c9e2" stroke="#c1c9e2" points="692,-36 638,-36 638,0 692,0 692,-36"/>
<text text-anchor="middle" x="665" y="-14.3" font-family="Times,serif" font-size="14.00">Flo3</text>
</g>
<!-- Logan Sharks&#45;&gt;Flo3 -->
<g id="edge45" class="edge">
<title>Logan Sharks&#45;&gt;Flo3</title>
<path fill="none" stroke="black" d="M1216.57,-183.18C1101.71,-148.99 806.03,-60.98 701.93,-29.99"/>
<polygon fill="black" stroke="black" points="702.76,-26.59 692.18,-27.09 700.77,-33.3 702.76,-26.59"/>
</g>
<!-- Matthieu Sharks&#45;&gt;Lili -->
<g id="edge46" class="edge">
<title>Matthieu Sharks&#45;&gt;Lili</title>
<path fill="none" stroke="black" d="M1946.11,-179.93C1949.94,-148.97 1958.05,-83.3 1962.65,-46.13"/>
<polygon fill="black" stroke="black" points="1966.14,-46.37 1963.9,-36.02 1959.2,-45.51 1966.14,-46.37"/>
</g>
<!-- Camille -->
<g id="node38" class="node">
<title>Camille</title>
<polygon fill="#c1c9e2" stroke="#c1c9e2" points="1741,-36 1681,-36 1681,0 1741,0 1741,-36"/>
<text text-anchor="middle" x="1711" y="-14.3" font-family="Times,serif" font-size="14.00">Camille</text>
</g>
<!-- Matthieu Sharks&#45;&gt;Camille -->
<g id="edge47" class="edge">
<title>Matthieu Sharks&#45;&gt;Camille</title>
<path fill="none" stroke="black" d="M1921.66,-179.93C1879.65,-147.84 1788.83,-78.46 1741.34,-42.18"/>
<polygon fill="black" stroke="black" points="1743.34,-39.31 1733.27,-36.02 1739.1,-44.87 1743.34,-39.31"/>
</g>
<!-- Anaïs2 -->
<g id="node39" class="node">
<title>Anaïs2</title>
<polygon fill="#c1c9e2" stroke="#c1c9e2" points="2761,-36 2707,-36 2707,0 2761,0 2761,-36"/>
<text text-anchor="middle" x="2734" y="-14.3" font-family="Times,serif" font-size="14.00">Anaïs</text>
</g>
<!-- Paul Sharks&#45;&gt;Anaïs2 -->
<g id="edge49" class="edge">
<title>Paul Sharks&#45;&gt;Anaïs2</title>
<path fill="none" stroke="black" d="M2576.68,-179.93C2607.73,-148.17 2674.47,-79.89 2710.23,-43.32"/>
<polygon fill="black" stroke="black" points="2712.88,-45.61 2717.37,-36.02 2707.87,-40.72 2712.88,-45.61"/>
</g>
<!-- Melvin -->
<g id="node40" class="node">
<title>Melvin</title>
<polygon fill="#c1c9e2" stroke="#c1c9e2" points="2635,-36 2579,-36 2579,0 2635,0 2635,-36"/>
<text text-anchor="middle" x="2607" y="-14.3" font-family="Times,serif" font-size="14.00">Melvin</text>
</g>
<!-- Paul Sharks&#45;&gt;Melvin -->
<g id="edge50" class="edge">
<title>Paul Sharks&#45;&gt;Melvin</title>
<path fill="none" stroke="black" d="M2564.51,-179.93C2572.68,-148.97 2590.02,-83.3 2599.84,-46.13"/>
<polygon fill="black" stroke="black" points="2603.34,-46.58 2602.51,-36.02 2596.57,-44.79 2603.34,-46.58"/>
</g>
<!-- Gaspard Valhall&#39;Art -->
<g id="node6" class="node">
<title>Gaspard Valhall&#39;Art</title>
<polygon fill="#00bfff" stroke="#c1c9e2" points="2422.5,-396 2299.5,-396 2299.5,-360 2422.5,-360 2422.5,-396"/>
<text text-anchor="middle" x="2361" y="-374.3" font-family="Times,serif" font-size="14.00">Gaspard Valhall&#39;Art</text>
</g>
<!-- Gaspard Valhall&#39;Art&#45;&gt;Jorge Mist -->
<g id="edge5" class="edge">
<title>Gaspard Valhall&#39;Art&#45;&gt;Jorge Mist</title>
<path fill="none" stroke="black" d="M2336.65,-359.93C2290.75,-327.77 2191.44,-258.17 2139.75,-221.95"/>
<polygon fill="black" stroke="black" points="2141.48,-218.89 2131.28,-216.02 2137.46,-224.62 2141.48,-218.89"/>
</g>
<!-- Gaspard Valhall&#39;Art&#45;&gt;Logan Sharks -->
<g id="edge6" class="edge">
<title>Gaspard Valhall&#39;Art&#45;&gt;Logan Sharks</title>
<path fill="none" stroke="black" d="M2299.27,-368.26C2140.54,-345.55 1705.36,-281.87 1345,-216 1336.67,-214.48 1327.89,-212.77 1319.3,-211.04"/>
<polygon fill="black" stroke="black" points="1319.82,-207.57 1309.33,-209 1318.43,-214.43 1319.82,-207.57"/>
</g>
<!-- Clovis Sharks -->
<g id="node7" class="node">
<title>Clovis Sharks</title>
<polygon fill="#bdabda" stroke="#c1c9e2" points="2765,-216 2673,-216 2673,-180 2765,-180 2765,-216"/>
<text text-anchor="middle" x="2719" y="-194.3" font-family="Times,serif" font-size="14.00">Clovis Sharks</text>
</g>
<!-- Gaspard Valhall&#39;Art&#45;&gt;Clovis Sharks -->
<g id="edge7" class="edge">
<title>Gaspard Valhall&#39;Art&#45;&gt;Clovis Sharks</title>
<path fill="none" stroke="black" d="M2395.33,-359.93C2460.81,-327.37 2603.47,-256.44 2675.51,-220.62"/>
<polygon fill="black" stroke="black" points="2677.38,-223.6 2684.78,-216.02 2674.26,-217.33 2677.38,-223.6"/>
</g>
<!-- Gabriel Katan&#39;Art -->
<g id="node8" class="node">
<title>Gabriel Katan&#39;Art</title>
<polygon fill="#ffcba4" stroke="#c1c9e2" points="2447.5,-216 2334.5,-216 2334.5,-180 2447.5,-180 2447.5,-216"/>
<text text-anchor="middle" x="2391" y="-194.3" font-family="Times,serif" font-size="14.00">Gabriel Katan&#39;Art</text>
</g>
<!-- Gaspard Valhall&#39;Art&#45;&gt;Gabriel Katan&#39;Art -->
<g id="edge8" class="edge">
<title>Gaspard Valhall&#39;Art&#45;&gt;Gabriel Katan&#39;Art</title>
<path fill="none" stroke="black" d="M2363.88,-359.93C2369.1,-328.97 2380.16,-263.3 2386.43,-226.13"/>
<polygon fill="black" stroke="black" points="2389.92,-226.46 2388.13,-216.02 2383.02,-225.29 2389.92,-226.46"/>
</g>
<!-- Clovis Sharks&#45;&gt;Anaïs2 -->
<g id="edge48" class="edge">
<title>Clovis Sharks&#45;&gt;Anaïs2</title>
<path fill="none" stroke="black" d="M2720.44,-179.93C2723.05,-148.97 2728.58,-83.3 2731.71,-46.13"/>
<polygon fill="black" stroke="black" points="2735.21,-46.27 2732.57,-36.02 2728.24,-45.69 2735.21,-46.27"/>
</g>
<!-- Gabriel Katan&#39;Art&#45;&gt;Melvin -->
<g id="edge51" class="edge">
<title>Gabriel Katan&#39;Art&#45;&gt;Melvin</title>
<path fill="none" stroke="black" d="M2411.71,-179.93C2450.58,-147.9 2534.5,-78.75 2578.6,-42.4"/>
<polygon fill="black" stroke="black" points="2580.86,-45.08 2586.35,-36.02 2576.41,-39.67 2580.86,-45.08"/>
</g>
<!-- Julien -->
<g id="node41" class="node">
<title>Julien</title>
<polygon fill="#c1c9e2" stroke="#c1c9e2" points="2507,-36 2453,-36 2453,0 2507,0 2507,-36"/>
<text text-anchor="middle" x="2480" y="-14.3" font-family="Times,serif" font-size="14.00">Julien</text>
</g>
<!-- Gabriel Katan&#39;Art&#45;&gt;Julien -->
<g id="edge52" class="edge">
<title>Gabriel Katan&#39;Art&#45;&gt;Julien</title>
<path fill="none" stroke="black" d="M2399.53,-179.93C2415.15,-148.7 2448.42,-82.17 2466.91,-45.18"/>
<polygon fill="black" stroke="black" points="2470.15,-46.53 2471.49,-36.02 2463.89,-43.39 2470.15,-46.53"/>
</g>
<!-- Lucie Sharks -->
<g id="node9" class="node">
<title>Lucie Sharks</title>
<polygon fill="#bdabda" stroke="#c1c9e2" points="831,-216 743,-216 743,-180 831,-180 831,-216"/>
<text text-anchor="middle" x="787" y="-194.3" font-family="Times,serif" font-size="14.00">Lucie Sharks</text>
</g>
<!-- Lucie Sharks&#45;&gt;Nicolas -->
<g id="edge9" class="edge">
<title>Lucie Sharks&#45;&gt;Nicolas</title>
<path fill="none" stroke="black" d="M787.58,-179.93C788.62,-148.97 790.83,-83.3 792.09,-46.13"/>
<polygon fill="black" stroke="black" points="795.59,-46.13 792.43,-36.02 788.59,-45.89 795.59,-46.13"/>
</g>
<!-- Lucie Sharks&#45;&gt;Thomas -->
<g id="edge10" class="edge">
<title>Lucie Sharks&#45;&gt;Thomas</title>
<path fill="none" stroke="black" d="M800.23,-179.93C824.65,-148.43 876.91,-81.03 905.43,-44.24"/>
<polygon fill="black" stroke="black" points="908.45,-46.06 911.81,-36.02 902.91,-41.77 908.45,-46.06"/>
</g>
<!-- Lucie Sharks&#45;&gt;Flo3 -->
<g id="edge11" class="edge">
<title>Lucie Sharks&#45;&gt;Flo3</title>
<path fill="none" stroke="black" d="M775.3,-179.93C753.8,-148.57 707.91,-81.6 682.62,-44.71"/>
<polygon fill="black" stroke="black" points="685.2,-42.29 676.66,-36.02 679.43,-46.24 685.2,-42.29"/>
</g>
<!-- Lalie Valhall&#39;Art -->
<g id="node13" class="node">
<title>Lalie Valhall&#39;Art</title>
<polygon fill="#00bfff" stroke="#c1c9e2" points="1479,-396 1373,-396 1373,-360 1479,-360 1479,-396"/>
<text text-anchor="middle" x="1426" y="-374.3" font-family="Times,serif" font-size="14.00">Lalie Valhall&#39;Art</text>
</g>
<!-- Lalie Valhall&#39;Art&#45;&gt;Logan Sharks -->
<g id="edge12" class="edge">
<title>Lalie Valhall&#39;Art&#45;&gt;Logan Sharks</title>
<path fill="none" stroke="black" d="M1410.37,-359.93C1381.41,-328.3 1319.28,-260.46 1285.69,-223.78"/>
<polygon fill="black" stroke="black" points="1287.92,-221.03 1278.58,-216.02 1282.75,-225.75 1287.92,-221.03"/>
</g>
<!-- Virgile Sharks -->
<g id="node14" class="node">
<title>Virgile Sharks</title>
<polygon fill="#bdabda" stroke="#c1c9e2" points="1778.5,-216 1683.5,-216 1683.5,-180 1778.5,-180 1778.5,-216"/>
<text text-anchor="middle" x="1731" y="-194.3" font-family="Times,serif" font-size="14.00">Virgile Sharks</text>
</g>
<!-- Lalie Valhall&#39;Art&#45;&gt;Virgile Sharks -->
<g id="edge13" class="edge">
<title>Lalie Valhall&#39;Art&#45;&gt;Virgile Sharks</title>
<path fill="none" stroke="black" d="M1455.24,-359.93C1510.81,-327.5 1631.58,-257.02 1693.2,-221.06"/>
<polygon fill="black" stroke="black" points="1694.97,-224.08 1701.84,-216.02 1691.44,-218.03 1694.97,-224.08"/>
</g>
<!-- Lucas Sharks -->
<g id="node15" class="node">
<title>Lucas Sharks</title>
<polygon fill="#bdabda" stroke="#c1c9e2" points="1470.5,-216 1381.5,-216 1381.5,-180 1470.5,-180 1470.5,-216"/>
<text text-anchor="middle" x="1426" y="-194.3" font-family="Times,serif" font-size="14.00">Lucas Sharks</text>
</g>
<!-- Lalie Valhall&#39;Art&#45;&gt;Lucas Sharks -->
<g id="edge14" class="edge">
<title>Lalie Valhall&#39;Art&#45;&gt;Lucas Sharks</title>
<path fill="none" stroke="black" d="M1426,-359.93C1426,-328.97 1426,-263.3 1426,-226.13"/>
<polygon fill="black" stroke="black" points="1429.5,-226.02 1426,-216.02 1422.5,-226.02 1429.5,-226.02"/>
</g>
<!-- Nils Mist -->
<g id="node16" class="node">
<title>Nils Mist</title>
<polygon fill="#9e0e40" stroke="#c1c9e2" points="1611,-216 1543,-216 1543,-180 1611,-180 1611,-216"/>
<text text-anchor="middle" x="1577" y="-194.3" font-family="Times,serif" font-size="14.00">Nils Mist</text>
</g>
<!-- Lalie Valhall&#39;Art&#45;&gt;Nils Mist -->
<g id="edge15" class="edge">
<title>Lalie Valhall&#39;Art&#45;&gt;Nils Mist</title>
<path fill="none" stroke="black" d="M1440.48,-359.93C1467.31,-328.3 1524.86,-260.46 1555.98,-223.78"/>
<polygon fill="black" stroke="black" points="1558.77,-225.91 1562.57,-216.02 1553.43,-221.38 1558.77,-225.91"/>
</g>
<!-- Mathis Mist -->
<g id="node17" class="node">
<title>Mathis Mist</title>
<polygon fill="#c1c9e2" stroke="#c1c9e2" points="1145,-216 1061,-216 1061,-180 1145,-180 1145,-216"/>
<text text-anchor="middle" x="1103" y="-194.3" font-family="Times,serif" font-size="14.00">Mathis Mist</text>
</g>
<!-- Lalie Valhall&#39;Art&#45;&gt;Mathis Mist -->
<g id="edge16" class="edge">
<title>Lalie Valhall&#39;Art&#45;&gt;Mathis Mist</title>
<path fill="none" stroke="black" d="M1395.03,-359.93C1336.18,-327.5 1208.29,-257.02 1143.03,-221.06"/>
<polygon fill="black" stroke="black" points="1144.32,-217.78 1133.88,-216.02 1140.95,-223.91 1144.32,-217.78"/>
</g>
<!-- Virgile Sharks&#45;&gt;Alys -->
<g id="edge38" class="edge">
<title>Virgile Sharks&#45;&gt;Alys</title>
<path fill="none" stroke="black" d="M1741.45,-179.93C1760.66,-148.57 1801.67,-81.6 1824.26,-44.71"/>
<polygon fill="black" stroke="black" points="1827.34,-46.37 1829.58,-36.02 1821.37,-42.72 1827.34,-46.37"/>
</g>
<!-- Clément -->
<g id="node35" class="node">
<title>Clément</title>
<polygon fill="#c1c9e2" stroke="#c1c9e2" points="1608.5,-36 1545.5,-36 1545.5,0 1608.5,0 1608.5,-36"/>
<text text-anchor="middle" x="1577" y="-14.3" font-family="Times,serif" font-size="14.00">Clément</text>
</g>
<!-- Virgile Sharks&#45;&gt;Clément -->
<g id="edge39" class="edge">
<title>Virgile Sharks&#45;&gt;Clément</title>
<path fill="none" stroke="black" d="M1716.23,-179.93C1688.87,-148.3 1630.18,-80.46 1598.44,-43.78"/>
<polygon fill="black" stroke="black" points="1600.91,-41.29 1591.72,-36.02 1595.62,-45.87 1600.91,-41.29"/>
</g>
<!-- Lucas Sharks&#45;&gt;Henri -->
<g id="edge53" class="edge">
<title>Lucas Sharks&#45;&gt;Henri</title>
<path fill="none" stroke="black" d="M1415.84,-179.93C1397.16,-148.57 1357.28,-81.6 1335.31,-44.71"/>
<polygon fill="black" stroke="black" points="1338.26,-42.82 1330.13,-36.02 1332.24,-46.4 1338.26,-42.82"/>
</g>
<!-- Charlotte -->
<g id="node42" class="node">
<title>Charlotte</title>
<polygon fill="#c1c9e2" stroke="#c1c9e2" points="1094.5,-36 1027.5,-36 1027.5,0 1094.5,0 1094.5,-36"/>
<text text-anchor="middle" x="1061" y="-14.3" font-family="Times,serif" font-size="14.00">Charlotte</text>
</g>
<!-- Lucas Sharks&#45;&gt;Charlotte -->
<g id="edge54" class="edge">
<title>Lucas Sharks&#45;&gt;Charlotte</title>
<path fill="none" stroke="black" d="M1391,-179.93C1323.81,-147.16 1176.93,-75.53 1103.94,-39.94"/>
<polygon fill="black" stroke="black" points="1105.09,-36.61 1094.57,-35.37 1102.02,-42.9 1105.09,-36.61"/>
</g>
<!-- Lou -->
<g id="node43" class="node">
<title>Lou</title>
<polygon fill="#c1c9e2" stroke="#c1c9e2" points="1473,-36 1419,-36 1419,0 1473,0 1473,-36"/>
<text text-anchor="middle" x="1446" y="-14.3" font-family="Times,serif" font-size="14.00">Lou</text>
</g>
<!-- Lucas Sharks&#45;&gt;Lou -->
<g id="edge55" class="edge">
<title>Lucas Sharks&#45;&gt;Lou</title>
<path fill="none" stroke="black" d="M1427.92,-179.93C1431.4,-148.97 1438.78,-83.3 1442.95,-46.13"/>
<polygon fill="black" stroke="black" points="1446.45,-46.34 1444.09,-36.02 1439.49,-45.56 1446.45,-46.34"/>
</g>
<!-- Amaël -->
<g id="node44" class="node">
<title>Amaël</title>
<polygon fill="#c1c9e2" stroke="#c1c9e2" points="1221,-36 1167,-36 1167,0 1221,0 1221,-36"/>
<text text-anchor="middle" x="1194" y="-14.3" font-family="Times,serif" font-size="14.00">Amaël</text>
</g>
<!-- Lucas Sharks&#45;&gt;Amaël -->
<g id="edge56" class="edge">
<title>Lucas Sharks&#45;&gt;Amaël</title>
<path fill="none" stroke="black" d="M1403.75,-179.93C1361.92,-147.84 1271.5,-78.46 1224.21,-42.18"/>
<polygon fill="black" stroke="black" points="1226.24,-39.33 1216.18,-36.02 1221.98,-44.88 1226.24,-39.33"/>
</g>
<!-- Nils Mist&#45;&gt;Clément -->
<g id="edge57" class="edge">
<title>Nils Mist&#45;&gt;Clément</title>
<path fill="none" stroke="black" d="M1577,-179.93C1577,-148.97 1577,-83.3 1577,-46.13"/>
<polygon fill="black" stroke="black" points="1580.5,-46.02 1577,-36.02 1573.5,-46.02 1580.5,-46.02"/>
</g>
<!-- Quentin Valhall&#39;Art -->
<g id="node18" class="node">
<title>Quentin Valhall&#39;Art</title>
<polygon fill="#00bfff" stroke="#c1c9e2" points="2882,-396 2760,-396 2760,-360 2882,-360 2882,-396"/>
<text text-anchor="middle" x="2821" y="-374.3" font-family="Times,serif" font-size="14.00">Quentin Valhall&#39;Art</text>
</g>
<!-- Olivier Katan&#39;Art -->
<g id="node19" class="node">
<title>Olivier Katan&#39;Art</title>
<polygon fill="#ffcba4" stroke="#c1c9e2" points="2948.5,-216 2837.5,-216 2837.5,-180 2948.5,-180 2948.5,-216"/>
<text text-anchor="middle" x="2893" y="-194.3" font-family="Times,serif" font-size="14.00">Olivier Katan&#39;Art</text>
</g>
<!-- Quentin Valhall&#39;Art&#45;&gt;Olivier Katan&#39;Art -->
<g id="edge17" class="edge">
<title>Quentin Valhall&#39;Art&#45;&gt;Olivier Katan&#39;Art</title>
<path fill="none" stroke="black" d="M2827.9,-359.93C2840.48,-328.83 2867.22,-262.73 2882.22,-225.65"/>
<polygon fill="black" stroke="black" points="2885.61,-226.6 2886.12,-216.02 2879.12,-223.97 2885.61,-226.6"/>
</g>
<!-- Maxime Pulsar -->
<g id="node20" class="node">
<title>Maxime Pulsar</title>
<polygon fill="#a300a3" stroke="#c1c9e2" points="2411.5,-576 2310.5,-576 2310.5,-540 2411.5,-540 2411.5,-576"/>
<text text-anchor="middle" x="2361" y="-554.3" font-family="Times,serif" font-size="14.00">Maxime Pulsar</text>
</g>
<!-- Maxime Pulsar&#45;&gt;Antoine Valhall&#39;Art -->
<g id="edge18" class="edge">
<title>Maxime Pulsar&#45;&gt;Antoine Valhall&#39;Art</title>
<path fill="none" stroke="black" d="M2336.65,-539.93C2290.75,-507.77 2191.44,-438.17 2139.75,-401.95"/>
<polygon fill="black" stroke="black" points="2141.48,-398.89 2131.28,-396.02 2137.46,-404.62 2141.48,-398.89"/>
</g>
<!-- Maxime Pulsar&#45;&gt;Gaspard Valhall&#39;Art -->
<g id="edge19" class="edge">
<title>Maxime Pulsar&#45;&gt;Gaspard Valhall&#39;Art</title>
<path fill="none" stroke="black" d="M2361,-539.93C2361,-508.97 2361,-443.3 2361,-406.13"/>
<polygon fill="black" stroke="black" points="2364.5,-406.02 2361,-396.02 2357.5,-406.02 2364.5,-406.02"/>
</g>
<!-- Maxime Pulsar&#45;&gt;Clovis Sharks -->
<g id="edge20" class="edge">
<title>Maxime Pulsar&#45;&gt;Clovis Sharks</title>
<path fill="none" stroke="black" d="M2378.27,-539.73C2436.64,-481.36 2626.71,-291.29 2694.61,-223.39"/>
<polygon fill="black" stroke="black" points="2697.31,-225.64 2701.91,-216.09 2692.36,-220.69 2697.31,-225.64"/>
</g>
<!-- Maxime Pulsar&#45;&gt;Lalie Valhall&#39;Art -->
<g id="edge21" class="edge">
<title>Maxime Pulsar&#45;&gt;Lalie Valhall&#39;Art</title>
<path fill="none" stroke="black" d="M2310.4,-547.37C2151.69,-517.15 1663.9,-424.29 1489.12,-391.02"/>
<polygon fill="black" stroke="black" points="1489.53,-387.53 1479.06,-389.1 1488.22,-394.41 1489.53,-387.53"/>
</g>
<!-- Maxime Pulsar&#45;&gt;Quentin Valhall&#39;Art -->
<g id="edge22" class="edge">
<title>Maxime Pulsar&#45;&gt;Quentin Valhall&#39;Art</title>
<path fill="none" stroke="black" d="M2405.11,-539.93C2490.03,-507.07 2675.93,-435.14 2767.65,-399.64"/>
<polygon fill="black" stroke="black" points="2768.96,-402.89 2777.03,-396.02 2766.44,-396.36 2768.96,-402.89"/>
</g>
<!-- Yanis Pulsar -->
<g id="node21" class="node">
<title>Yanis Pulsar</title>
<polygon fill="#a300a3" stroke="#c1c9e2" points="757.5,-576 672.5,-576 672.5,-540 757.5,-540 757.5,-576"/>
<text text-anchor="middle" x="715" y="-554.3" font-family="Times,serif" font-size="14.00">Yanis Pulsar</text>
</g>
<!-- Yanis Pulsar&#45;&gt;Lalie Valhall&#39;Art -->
<g id="edge23" class="edge">
<title>Yanis Pulsar&#45;&gt;Lalie Valhall&#39;Art</title>
<path fill="none" stroke="black" d="M757.61,-546.33C877.86,-516.23 1220.32,-430.49 1362.71,-394.85"/>
<polygon fill="black" stroke="black" points="1363.76,-398.19 1372.61,-392.37 1362.06,-391.4 1363.76,-398.19"/>
</g>
<!-- Robin Horn -->
<g id="node22" class="node">
<title>Robin Horn</title>
<polygon fill="#f2be00" stroke="#c1c9e2" points="830.5,-396 749.5,-396 749.5,-360 830.5,-360 830.5,-396"/>
<text text-anchor="middle" x="790" y="-374.3" font-family="Times,serif" font-size="14.00">Robin Horn</text>
</g>
<!-- Yanis Pulsar&#45;&gt;Robin Horn -->
<g id="edge24" class="edge">
<title>Yanis Pulsar&#45;&gt;Robin Horn</title>
<path fill="none" stroke="black" d="M722.19,-539.93C735.29,-508.83 763.15,-442.73 778.77,-405.65"/>
<polygon fill="black" stroke="black" points="782.17,-406.59 782.83,-396.02 775.72,-403.87 782.17,-406.59"/>
</g>
<!-- Vincent Valhall&#39;Art -->
<g id="node23" class="node">
<title>Vincent Valhall&#39;Art</title>
<polygon fill="#00bfff" stroke="#c1c9e2" points="528.5,-396 407.5,-396 407.5,-360 528.5,-360 528.5,-396"/>
<text text-anchor="middle" x="468" y="-374.3" font-family="Times,serif" font-size="14.00">Vincent Valhall&#39;Art</text>
</g>
<!-- Yanis Pulsar&#45;&gt;Vincent Valhall&#39;Art -->
<g id="edge25" class="edge">
<title>Yanis Pulsar&#45;&gt;Vincent Valhall&#39;Art</title>
<path fill="none" stroke="black" d="M691.32,-539.93C646.69,-507.77 550.11,-438.17 499.85,-401.95"/>
<polygon fill="black" stroke="black" points="501.77,-399.02 491.61,-396.02 497.68,-404.7 501.77,-399.02"/>
</g>
<!-- Thaïs Dice -->
<g id="node24" class="node">
<title>Thaïs Dice</title>
<polygon fill="#ff4d5c" stroke="#c1c9e2" points="677,-396 601,-396 601,-360 677,-360 677,-396"/>
<text text-anchor="middle" x="639" y="-374.3" font-family="Times,serif" font-size="14.00">Thaïs Dice</text>
</g>
<!-- Yanis Pulsar&#45;&gt;Thaïs Dice -->
<g id="edge26" class="edge">
<title>Yanis Pulsar&#45;&gt;Thaïs Dice</title>
<path fill="none" stroke="black" d="M707.71,-539.93C694.43,-508.83 666.21,-442.73 650.38,-405.65"/>
<polygon fill="black" stroke="black" points="653.41,-403.84 646.27,-396.02 646.97,-406.59 653.41,-403.84"/>
</g>
<!-- Robin Horn&#45;&gt;Lucie Sharks -->
<g id="edge28" class="edge">
<title>Robin Horn&#45;&gt;Lucie Sharks</title>
<path fill="none" stroke="black" d="M789.71,-359.93C789.19,-328.97 788.08,-263.3 787.46,-226.13"/>
<polygon fill="black" stroke="black" points="790.95,-225.96 787.29,-216.02 783.96,-226.07 790.95,-225.96"/>
</g>
<!-- Adrien Gold -->
<g id="node26" class="node">
<title>Adrien Gold</title>
<polygon fill="#ffffff" stroke="#c1c9e2" points="988.5,-216 903.5,-216 903.5,-180 988.5,-180 988.5,-216"/>
<text text-anchor="middle" x="946" y="-194.3" font-family="Times,serif" font-size="14.00">Adrien Gold</text>
</g>
<!-- Robin Horn&#45;&gt;Adrien Gold -->
<g id="edge29" class="edge">
<title>Robin Horn&#45;&gt;Adrien Gold</title>
<path fill="none" stroke="black" d="M804.96,-359.93C832.68,-328.3 892.13,-260.46 924.29,-223.78"/>
<polygon fill="black" stroke="black" points="927.13,-225.84 931.09,-216.02 921.86,-221.23 927.13,-225.84"/>
</g>
<!-- Flavien Sharks -->
<g id="node27" class="node">
<title>Flavien Sharks</title>
<polygon fill="#bdabda" stroke="#c1c9e2" points="519,-216 421,-216 421,-180 519,-180 519,-216"/>
<text text-anchor="middle" x="470" y="-194.3" font-family="Times,serif" font-size="14.00">Flavien Sharks</text>
</g>
<!-- Vincent Valhall&#39;Art&#45;&gt;Flavien Sharks -->
<g id="edge30" class="edge">
<title>Vincent Valhall&#39;Art&#45;&gt;Flavien Sharks</title>
<path fill="none" stroke="black" d="M468.19,-359.93C468.54,-328.97 469.28,-263.3 469.7,-226.13"/>
<polygon fill="black" stroke="black" points="473.2,-226.05 469.81,-216.02 466.2,-225.98 473.2,-226.05"/>
</g>
<!-- Zoé Mist -->
<g id="node28" class="node">
<title>Zoé Mist</title>
<polygon fill="#9e0e40" stroke="#c1c9e2" points="319.5,-216 252.5,-216 252.5,-180 319.5,-180 319.5,-216"/>
<text text-anchor="middle" x="286" y="-194.3" font-family="Times,serif" font-size="14.00">Zoé Mist</text>
</g>
<!-- Vincent Valhall&#39;Art&#45;&gt;Zoé Mist -->
<g id="edge31" class="edge">
<title>Vincent Valhall&#39;Art&#45;&gt;Zoé Mist</title>
<path fill="none" stroke="black" d="M450.55,-359.93C418.07,-328.17 348.26,-259.89 310.86,-223.32"/>
<polygon fill="black" stroke="black" points="312.99,-220.51 303.4,-216.02 308.1,-225.51 312.99,-220.51"/>
</g>
<!-- Théo Gold -->
<g id="node25" class="node">
<title>Théo Gold</title>
<polygon fill="#ffffff" stroke="#c1c9e2" points="670.5,-216 595.5,-216 595.5,-180 670.5,-180 670.5,-216"/>
<text text-anchor="middle" x="633" y="-194.3" font-family="Times,serif" font-size="14.00">Théo Gold</text>
</g>
<!-- Thaïs Dice&#45;&gt;Théo Gold -->
<g id="edge27" class="edge">
<title>Thaïs Dice&#45;&gt;Théo Gold</title>
<path fill="none" stroke="black" d="M638.42,-359.93C637.38,-328.97 635.17,-263.3 633.91,-226.13"/>
<polygon fill="black" stroke="black" points="637.41,-225.89 633.57,-216.02 630.41,-226.13 637.41,-225.89"/>
</g>
<!-- Adrien Gold&#45;&gt;Charlotte -->
<g id="edge62" class="edge">
<title>Adrien Gold&#45;&gt;Charlotte</title>
<path fill="none" stroke="black" d="M957.03,-179.93C977.29,-148.57 1020.55,-81.6 1044.39,-44.71"/>
<polygon fill="black" stroke="black" points="1047.52,-46.31 1050.01,-36.02 1041.64,-42.52 1047.52,-46.31"/>
</g>
<!-- Flavien Sharks&#45;&gt;Henri -->
<g id="edge40" class="edge">
<title>Flavien Sharks&#45;&gt;Henri</title>
<path fill="none" stroke="black" d="M519.01,-187.39C667.84,-158.13 1113.15,-70.09 1257,-36 1265.48,-33.99 1274.55,-31.65 1283.09,-29.37"/>
<polygon fill="black" stroke="black" points="1284.07,-32.73 1292.8,-26.73 1282.24,-25.97 1284.07,-32.73"/>
</g>
<!-- Anaïs1 -->
<g id="node36" class="node">
<title>Anaïs1</title>
<polygon fill="#c1c9e2" stroke="#c1c9e2" points="566,-36 512,-36 512,0 566,0 566,-36"/>
<text text-anchor="middle" x="539" y="-14.3" font-family="Times,serif" font-size="14.00">Anaïs</text>
</g>
<!-- Flavien Sharks&#45;&gt;Anaïs1 -->
<g id="edge41" class="edge">
<title>Flavien Sharks&#45;&gt;Anaïs1</title>
<path fill="none" stroke="black" d="M476.62,-179.93C488.67,-148.83 514.29,-82.73 528.67,-45.65"/>
<polygon fill="black" stroke="black" points="532.05,-46.6 532.4,-36.02 525.53,-44.07 532.05,-46.6"/>
</g>
<!-- Sarah -->
<g id="node37" class="node">
<title>Sarah</title>
<polygon fill="#c1c9e2" stroke="#c1c9e2" points="440,-36 386,-36 386,0 440,0 440,-36"/>
<text text-anchor="middle" x="413" y="-14.3" font-family="Times,serif" font-size="14.00">Sarah</text>
</g>
<!-- Flavien Sharks&#45;&gt;Sarah -->
<g id="edge42" class="edge">
<title>Flavien Sharks&#45;&gt;Sarah</title>
<path fill="none" stroke="black" d="M464.53,-179.93C454.58,-148.83 433.41,-82.73 421.53,-45.65"/>
<polygon fill="black" stroke="black" points="424.83,-44.47 418.45,-36.02 418.17,-46.61 424.83,-44.47"/>
</g>
<!-- Zoé Mist&#45;&gt;Flo3 -->
<g id="edge58" class="edge">
<title>Zoé Mist&#45;&gt;Flo3</title>
<path fill="none" stroke="black" d="M319.63,-181.2C390.55,-147.9 554.89,-70.72 628.36,-36.21"/>
<polygon fill="black" stroke="black" points="630.12,-39.25 637.69,-31.83 627.15,-32.91 630.12,-39.25"/>
</g>
<!-- Robin -->
<g id="node45" class="node">
<title>Robin</title>
<polygon fill="#c1c9e2" stroke="#c1c9e2" points="54,-36 0,-36 0,0 54,0 54,-36"/>
<text text-anchor="middle" x="27" y="-14.3" font-family="Times,serif" font-size="14.00">Robin</text>
</g>
<!-- Zoé Mist&#45;&gt;Robin -->
<g id="edge59" class="edge">
<title>Zoé Mist&#45;&gt;Robin</title>
<path fill="none" stroke="black" d="M261.17,-179.93C214.27,-147.7 112.68,-77.89 60.07,-41.73"/>
<polygon fill="black" stroke="black" points="61.98,-38.8 51.76,-36.02 58.02,-44.56 61.98,-38.8"/>
</g>
<!-- Antoine -->
<g id="node46" class="node">
<title>Antoine</title>
<polygon fill="#c1c9e2" stroke="#c1c9e2" points="186,-36 126,-36 126,0 186,0 186,-36"/>
<text text-anchor="middle" x="156" y="-14.3" font-family="Times,serif" font-size="14.00">Antoine</text>
</g>
<!-- Zoé Mist&#45;&gt;Antoine -->
<g id="edge60" class="edge">
<title>Zoé Mist&#45;&gt;Antoine</title>
<path fill="none" stroke="black" d="M273.54,-179.93C250.53,-148.43 201.31,-81.03 174.43,-44.24"/>
<polygon fill="black" stroke="black" points="177.15,-42.03 168.43,-36.02 171.5,-46.16 177.15,-42.03"/>
</g>
<!-- Emélie -->
<g id="node47" class="node">
<title>Emélie</title>
<polygon fill="#c1c9e2" stroke="#c1c9e2" points="314,-36 258,-36 258,0 314,0 314,-36"/>
<text text-anchor="middle" x="286" y="-14.3" font-family="Times,serif" font-size="14.00">Emélie</text>
</g>
<!-- Zoé Mist&#45;&gt;Emélie -->
<g id="edge61" class="edge">
<title>Zoé Mist&#45;&gt;Emélie</title>
<path fill="none" stroke="black" d="M286,-179.93C286,-148.97 286,-83.3 286,-46.13"/>
<polygon fill="black" stroke="black" points="289.5,-46.02 286,-36.02 282.5,-46.02 289.5,-46.02"/>
</g>
</g>
</svg>
