<?xml version="1.0" encoding="UTF-8" standalone="no"?>
<!DOCTYPE svg PUBLIC "-//W3C//DTD SVG 1.1//EN"
 "http://www.w3.org/Graphics/SVG/1.1/DTD/svg11.dtd">
<!-- Generated by graphviz version 7.0.4 (0)
 -->
<!-- Title: G Pages: 1 -->
<svg width="3354pt" height="648pt"
 viewBox="0.00 0.00 3353.50 648.00" xmlns="http://www.w3.org/2000/svg" xmlns:xlink="http://www.w3.org/1999/xlink">
<g id="graph0" class="graph" transform="scale(1 1) rotate(0) translate(36 612)">
<title>G</title>
<polygon fill="white" stroke="none" points="-36,36 -36,-612 3317.5,-612 3317.5,36 -36,36"/>
<!-- Antoine Valhall&#39;Art -->
<g id="node1" class="node">
<title>Antoine Valhall&#39;Art</title>
<polygon fill="#00bfff" stroke="#c1c9e2" points="2284,-396 2162,-396 2162,-360 2284,-360 2284,-396"/>
<text text-anchor="middle" x="2223" y="-374.3" font-family="Times,serif" font-size="14.00">Antoine Valhall&#39;Art</text>
</g>
<!-- Jorge Mist -->
<g id="node2" class="node">
<title>Jorge Mist</title>
<polygon fill="#9e0e40" stroke="#c1c9e2" points="2260.5,-216 2185.5,-216 2185.5,-180 2260.5,-180 2260.5,-216"/>
<text text-anchor="middle" x="2223" y="-194.3" font-family="Times,serif" font-size="14.00">Jorge Mist</text>
</g>
<!-- Antoine Valhall&#39;Art&#45;&gt;Jorge Mist -->
<g id="edge1" class="edge">
<title>Antoine Valhall&#39;Art&#45;&gt;Jorge Mist</title>
<path fill="none" stroke="black" d="M2223,-359.61C2223,-328.9 2223,-264.81 2223,-227.54"/>
<polygon fill="black" stroke="black" points="2226.5,-227.98 2223,-217.98 2219.5,-227.98 2226.5,-227.98"/>
</g>
<!-- Logan Sharks -->
<g id="node3" class="node">
<title>Logan Sharks</title>
<polygon fill="#bdabda" stroke="#c1c9e2" points="1086,-216 994,-216 994,-180 1086,-180 1086,-216"/>
<text text-anchor="middle" x="1040" y="-194.3" font-family="Times,serif" font-size="14.00">Logan Sharks</text>
</g>
<!-- Antoine Valhall&#39;Art&#45;&gt;Logan Sharks -->
<g id="edge2" class="edge">
<title>Antoine Valhall&#39;Art&#45;&gt;Logan Sharks</title>
<path fill="none" stroke="black" d="M2161.89,-367.8C1957.19,-337.01 1297.4,-237.73 1097.76,-207.69"/>
<polygon fill="black" stroke="black" points="1098.29,-204.23 1087.88,-206.2 1097.25,-211.15 1098.29,-204.23"/>
</g>
<!-- Matthieu Sharks -->
<g id="node4" class="node">
<title>Matthieu Sharks</title>
<polygon fill="#bdabda" stroke="#c1c9e2" points="2439.5,-216 2332.5,-216 2332.5,-180 2439.5,-180 2439.5,-216"/>
<text text-anchor="middle" x="2386" y="-194.3" font-family="Times,serif" font-size="14.00">Matthieu Sharks</text>
</g>
<!-- Antoine Valhall&#39;Art&#45;&gt;Matthieu Sharks -->
<g id="edge3" class="edge">
<title>Antoine Valhall&#39;Art&#45;&gt;Matthieu Sharks</title>
<path fill="none" stroke="black" d="M2238.93,-359.61C2267.77,-328.1 2328.8,-261.46 2362.47,-224.69"/>
<polygon fill="black" stroke="black" points="2364.82,-227.32 2368.99,-217.58 2359.65,-222.59 2364.82,-227.32"/>
</g>
<!-- Paul Sharks -->
<g id="node5" class="node">
<title>Paul Sharks</title>
<polygon fill="#bdabda" stroke="#c1c9e2" points="2913.5,-216 2832.5,-216 2832.5,-180 2913.5,-180 2913.5,-216"/>
<text text-anchor="middle" x="2873" y="-194.3" font-family="Times,serif" font-size="14.00">Paul Sharks</text>
</g>
<!-- Antoine Valhall&#39;Art&#45;&gt;Paul Sharks -->
<g id="edge4" class="edge">
<title>Antoine Valhall&#39;Art&#45;&gt;Paul Sharks</title>
<path fill="none" stroke="black" d="M2284.44,-360.17C2411.83,-325.29 2702.68,-245.64 2821.25,-213.17"/>
<polygon fill="black" stroke="black" points="2821.99,-216.6 2830.71,-210.58 2820.14,-209.85 2821.99,-216.6"/>
</g>
<!-- Amaël -->
<g id="node6" class="node">
<title>Amaël</title>
<polygon fill="#c1c9e2" stroke="#c1c9e2" points="2119,-36 2065,-36 2065,0 2119,0 2119,-36"/>
<text text-anchor="middle" x="2092" y="-14.3" font-family="Times,serif" font-size="14.00">Amaël</text>
</g>
<!-- Antoine Valhall&#39;Art&#45;&gt;Amaël -->
<g id="edge5" class="edge">
<title>Antoine Valhall&#39;Art&#45;&gt;Amaël</title>
<path fill="none" stroke="black" d="M2178.73,-359.67C2125.55,-336.16 2038.91,-288.56 2002,-216 1971.17,-155.4 2028.8,-82.12 2065.3,-44.31"/>
<polygon fill="black" stroke="black" points="2067.56,-47 2072.11,-37.43 2062.58,-42.08 2067.56,-47"/>
</g>
<!-- Henri -->
<g id="node30" class="node">
<title>Henri</title>
<polygon fill="#c1c9e2" stroke="#c1c9e2" points="1741,-36 1687,-36 1687,0 1741,0 1741,-36"/>
<text text-anchor="middle" x="1714" y="-14.3" font-family="Times,serif" font-size="14.00">Henri</text>
</g>
<!-- Jorge Mist&#45;&gt;Henri -->
<g id="edge34" class="edge">
<title>Jorge Mist&#45;&gt;Henri</title>
<path fill="none" stroke="black" d="M2185.16,-183.77C2090.95,-150.82 1846.73,-65.42 1752.17,-32.35"/>
<polygon fill="black" stroke="black" points="1753.43,-29.08 1742.83,-29.08 1751.12,-35.69 1753.43,-29.08"/>
</g>
<!-- Clara -->
<g id="node31" class="node">
<title>Clara</title>
<polygon fill="#c1c9e2" stroke="#c1c9e2" points="2507,-36 2453,-36 2453,0 2507,0 2507,-36"/>
<text text-anchor="middle" x="2480" y="-14.3" font-family="Times,serif" font-size="14.00">Clara</text>
</g>
<!-- Jorge Mist&#45;&gt;Clara -->
<g id="edge35" class="edge">
<title>Jorge Mist&#45;&gt;Clara</title>
<path fill="none" stroke="black" d="M2248.11,-179.61C2294.36,-147.57 2393.08,-79.2 2445.55,-42.86"/>
<polygon fill="black" stroke="black" points="2447.32,-45.89 2453.54,-37.32 2443.33,-40.14 2447.32,-45.89"/>
</g>
<!-- Alys -->
<g id="node32" class="node">
<title>Alys</title>
<polygon fill="#c1c9e2" stroke="#c1c9e2" points="1993,-36 1939,-36 1939,0 1993,0 1993,-36"/>
<text text-anchor="middle" x="1966" y="-14.3" font-family="Times,serif" font-size="14.00">Alys</text>
</g>
<!-- Jorge Mist&#45;&gt;Alys -->
<g id="edge36" class="edge">
<title>Jorge Mist&#45;&gt;Alys</title>
<path fill="none" stroke="black" d="M2197.89,-179.61C2151.64,-147.57 2052.92,-79.2 2000.45,-42.86"/>
<polygon fill="black" stroke="black" points="2002.67,-40.14 1992.46,-37.32 1998.68,-45.89 2002.67,-40.14"/>
</g>
<!-- Paco -->
<g id="node33" class="node">
<title>Paco</title>
<polygon fill="#c1c9e2" stroke="#c1c9e2" points="2381,-36 2327,-36 2327,0 2381,0 2381,-36"/>
<text text-anchor="middle" x="2354" y="-14.3" font-family="Times,serif" font-size="14.00">Paco</text>
</g>
<!-- Jorge Mist&#45;&gt;Paco -->
<g id="edge37" class="edge">
<title>Jorge Mist&#45;&gt;Paco</title>
<path fill="none" stroke="black" d="M2235.8,-179.61C2258.79,-148.37 2307.21,-82.58 2334.4,-45.63"/>
<polygon fill="black" stroke="black" points="2337.14,-47.81 2340.25,-37.68 2331.51,-43.66 2337.14,-47.81"/>
</g>
<!-- Mariette -->
<g id="node34" class="node">
<title>Mariette</title>
<polygon fill="#c1c9e2" stroke="#c1c9e2" points="2254.5,-36 2191.5,-36 2191.5,0 2254.5,0 2254.5,-36"/>
<text text-anchor="middle" x="2223" y="-14.3" font-family="Times,serif" font-size="14.00">Mariette</text>
</g>
<!-- Jorge Mist&#45;&gt;Mariette -->
<g id="edge38" class="edge">
<title>Jorge Mist&#45;&gt;Mariette</title>
<path fill="none" stroke="black" d="M2223,-179.61C2223,-148.9 2223,-84.81 2223,-47.54"/>
<polygon fill="black" stroke="black" points="2226.5,-47.98 2223,-37.98 2219.5,-47.98 2226.5,-47.98"/>
</g>
<!-- Lili -->
<g id="node35" class="node">
<title>Lili</title>
<polygon fill="#c1c9e2" stroke="#c1c9e2" points="2633,-36 2579,-36 2579,0 2633,0 2633,-36"/>
<text text-anchor="middle" x="2606" y="-14.3" font-family="Times,serif" font-size="14.00">Lili</text>
</g>
<!-- Jorge Mist&#45;&gt;Lili -->
<g id="edge39" class="edge">
<title>Jorge Mist&#45;&gt;Lili</title>
<path fill="none" stroke="black" d="M2260.42,-179.61C2333.62,-145.59 2494.98,-70.6 2568.36,-36.49"/>
<polygon fill="black" stroke="black" points="2569.56,-39.8 2577.15,-32.41 2566.61,-33.45 2569.56,-39.8"/>
</g>
<!-- Nicolas -->
<g id="node11" class="node">
<title>Nicolas</title>
<polygon fill="#c1c9e2" stroke="#c1c9e2" points="822,-36 764,-36 764,0 822,0 822,-36"/>
<text text-anchor="middle" x="793" y="-14.3" font-family="Times,serif" font-size="14.00">Nicolas</text>
</g>
<!-- Logan Sharks&#45;&gt;Nicolas -->
<g id="edge48" class="edge">
<title>Logan Sharks&#45;&gt;Nicolas</title>
<path fill="none" stroke="black" d="M1015.87,-179.61C971.51,-147.64 876.93,-79.48 826.42,-43.09"/>
<polygon fill="black" stroke="black" points="828.62,-40.35 818.46,-37.35 824.53,-46.03 828.62,-40.35"/>
</g>
<!-- Thomas -->
<g id="node12" class="node">
<title>Thomas</title>
<polygon fill="#c1c9e2" stroke="#c1c9e2" points="955.5,-36 894.5,-36 894.5,0 955.5,0 955.5,-36"/>
<text text-anchor="middle" x="925" y="-14.3" font-family="Times,serif" font-size="14.00">Thomas</text>
</g>
<!-- Logan Sharks&#45;&gt;Thomas -->
<g id="edge49" class="edge">
<title>Logan Sharks&#45;&gt;Thomas</title>
<path fill="none" stroke="black" d="M1028.76,-179.61C1008.67,-148.5 966.44,-83.14 942.51,-46.11"/>
<polygon fill="black" stroke="black" points="945.47,-44.23 937.1,-37.73 939.59,-48.03 945.47,-44.23"/>
</g>
<!-- Flo3 -->
<g id="node13" class="node">
<title>Flo3</title>
<polygon fill="#c1c9e2" stroke="#c1c9e2" points="692,-36 638,-36 638,0 692,0 692,-36"/>
<text text-anchor="middle" x="665" y="-14.3" font-family="Times,serif" font-size="14.00">Flo3</text>
</g>
<!-- Logan Sharks&#45;&gt;Flo3 -->
<g id="edge50" class="edge">
<title>Logan Sharks&#45;&gt;Flo3</title>
<path fill="none" stroke="black" d="M1003.36,-179.61C931.87,-145.67 774.47,-70.96 702.39,-36.75"/>
<polygon fill="black" stroke="black" points="704.29,-33.78 693.76,-32.65 701.29,-40.1 704.29,-33.78"/>
</g>
<!-- Matthieu Sharks&#45;&gt;Lili -->
<g id="edge51" class="edge">
<title>Matthieu Sharks&#45;&gt;Lili</title>
<path fill="none" stroke="black" d="M2407.5,-179.61C2446.84,-147.77 2530.55,-80.05 2575.67,-43.54"/>
<polygon fill="black" stroke="black" points="2577.67,-46.43 2583.24,-37.41 2573.27,-40.98 2577.67,-46.43"/>
</g>
<!-- Camille -->
<g id="node42" class="node">
<title>Camille</title>
<polygon fill="#c1c9e2" stroke="#c1c9e2" points="2765,-36 2705,-36 2705,0 2765,0 2765,-36"/>
<text text-anchor="middle" x="2735" y="-14.3" font-family="Times,serif" font-size="14.00">Camille</text>
</g>
<!-- Matthieu Sharks&#45;&gt;Camille -->
<g id="edge52" class="edge">
<title>Matthieu Sharks&#45;&gt;Camille</title>
<path fill="none" stroke="black" d="M2420.1,-179.61C2484.87,-146.57 2625.39,-74.9 2694.69,-39.56"/>
<polygon fill="black" stroke="black" points="2696.12,-42.76 2703.43,-35.1 2692.94,-36.53 2696.12,-42.76"/>
</g>
<!-- Anaïs2 -->
<g id="node43" class="node">
<title>Anaïs2</title>
<polygon fill="#c1c9e2" stroke="#c1c9e2" points="2891,-36 2837,-36 2837,0 2891,0 2891,-36"/>
<text text-anchor="middle" x="2864" y="-14.3" font-family="Times,serif" font-size="14.00">Anaïs</text>
</g>
<!-- Paul Sharks&#45;&gt;Anaïs2 -->
<g id="edge55" class="edge">
<title>Paul Sharks&#45;&gt;Anaïs2</title>
<path fill="none" stroke="black" d="M2872.12,-179.61C2870.57,-148.9 2867.33,-84.81 2865.44,-47.54"/>
<polygon fill="black" stroke="black" points="2868.96,-47.78 2864.96,-37.97 2861.97,-48.14 2868.96,-47.78"/>
</g>
<!-- Melvin -->
<g id="node44" class="node">
<title>Melvin</title>
<polygon fill="#c1c9e2" stroke="#c1c9e2" points="3019,-36 2963,-36 2963,0 3019,0 3019,-36"/>
<text text-anchor="middle" x="2991" y="-14.3" font-family="Times,serif" font-size="14.00">Melvin</text>
</g>
<!-- Paul Sharks&#45;&gt;Melvin -->
<g id="edge56" class="edge">
<title>Paul Sharks&#45;&gt;Melvin</title>
<path fill="none" stroke="black" d="M2884.53,-179.61C2905.24,-148.37 2948.85,-82.58 2973.35,-45.63"/>
<polygon fill="black" stroke="black" points="2975.98,-47.99 2978.59,-37.72 2970.15,-44.12 2975.98,-47.99"/>
</g>
<!-- Gaspard Valhall&#39;Art -->
<g id="node7" class="node">
<title>Gaspard Valhall&#39;Art</title>
<polygon fill="#00bfff" stroke="#c1c9e2" points="2479.5,-396 2356.5,-396 2356.5,-360 2479.5,-360 2479.5,-396"/>
<text text-anchor="middle" x="2418" y="-374.3" font-family="Times,serif" font-size="14.00">Gaspard Valhall&#39;Art</text>
</g>
<!-- Gaspard Valhall&#39;Art&#45;&gt;Jorge Mist -->
<g id="edge6" class="edge">
<title>Gaspard Valhall&#39;Art&#45;&gt;Jorge Mist</title>
<path fill="none" stroke="black" d="M2398.95,-359.61C2364.22,-327.91 2290.5,-260.61 2250.39,-224"/>
<polygon fill="black" stroke="black" points="2252.99,-221.64 2243.25,-217.48 2248.27,-226.81 2252.99,-221.64"/>
</g>
<!-- Gaspard Valhall&#39;Art&#45;&gt;Logan Sharks -->
<g id="edge7" class="edge">
<title>Gaspard Valhall&#39;Art&#45;&gt;Logan Sharks</title>
<path fill="none" stroke="black" d="M2356.12,-365.82C2344.15,-363.78 2331.7,-361.75 2320,-360 1849.38,-289.62 1278.29,-225.17 1097.64,-205.28"/>
<polygon fill="black" stroke="black" points="1098.14,-201.81 1087.82,-204.2 1097.38,-208.77 1098.14,-201.81"/>
</g>
<!-- Clovis Sharks -->
<g id="node8" class="node">
<title>Clovis Sharks</title>
<polygon fill="#bdabda" stroke="#c1c9e2" points="2760,-216 2668,-216 2668,-180 2760,-180 2760,-216"/>
<text text-anchor="middle" x="2714" y="-194.3" font-family="Times,serif" font-size="14.00">Clovis Sharks</text>
</g>
<!-- Gaspard Valhall&#39;Art&#45;&gt;Clovis Sharks -->
<g id="edge8" class="edge">
<title>Gaspard Valhall&#39;Art&#45;&gt;Clovis Sharks</title>
<path fill="none" stroke="black" d="M2446.92,-359.61C2500.52,-327.37 2615.31,-258.35 2675.45,-222.18"/>
<polygon fill="black" stroke="black" points="2676.9,-225.4 2683.66,-217.24 2673.29,-219.4 2676.9,-225.4"/>
</g>
<!-- Gabriel Katan&#39;Art -->
<g id="node9" class="node">
<title>Gabriel Katan&#39;Art</title>
<polygon fill="#ffcba4" stroke="#c1c9e2" points="3098.5,-216 2985.5,-216 2985.5,-180 3098.5,-180 3098.5,-216"/>
<text text-anchor="middle" x="3042" y="-194.3" font-family="Times,serif" font-size="14.00">Gabriel Katan&#39;Art</text>
</g>
<!-- Gaspard Valhall&#39;Art&#45;&gt;Gabriel Katan&#39;Art -->
<g id="edge9" class="edge">
<title>Gaspard Valhall&#39;Art&#45;&gt;Gabriel Katan&#39;Art</title>
<path fill="none" stroke="black" d="M2479.25,-359.53C2596.58,-326.06 2852.17,-253.15 2974.34,-218.3"/>
<polygon fill="black" stroke="black" points="2975.27,-221.67 2983.93,-215.57 2973.35,-214.94 2975.27,-221.67"/>
</g>
<!-- Clovis Sharks&#45;&gt;Amaël -->
<g id="edge53" class="edge">
<title>Clovis Sharks&#45;&gt;Amaël</title>
<path fill="none" stroke="black" d="M2667.5,-183.69C2549.28,-149.86 2238.91,-61.04 2130.24,-29.94"/>
<polygon fill="black" stroke="black" points="2131.51,-26.67 2120.93,-27.28 2129.58,-33.4 2131.51,-26.67"/>
</g>
<!-- Clovis Sharks&#45;&gt;Anaïs2 -->
<g id="edge54" class="edge">
<title>Clovis Sharks&#45;&gt;Anaïs2</title>
<path fill="none" stroke="black" d="M2728.66,-179.61C2755.09,-148.24 2810.89,-82.02 2841.95,-45.16"/>
<polygon fill="black" stroke="black" points="2844.54,-47.52 2848.31,-37.62 2839.19,-43.01 2844.54,-47.52"/>
</g>
<!-- Gabriel Katan&#39;Art&#45;&gt;Melvin -->
<g id="edge57" class="edge">
<title>Gabriel Katan&#39;Art&#45;&gt;Melvin</title>
<path fill="none" stroke="black" d="M3037.02,-179.61C3028.18,-148.77 3009.7,-84.26 2999.04,-47.06"/>
<polygon fill="black" stroke="black" points="3002.54,-46.57 2996.42,-37.92 2995.81,-48.49 3002.54,-46.57"/>
</g>
<!-- Julien -->
<g id="node45" class="node">
<title>Julien</title>
<polygon fill="#c1c9e2" stroke="#c1c9e2" points="3145,-36 3091,-36 3091,0 3145,0 3145,-36"/>
<text text-anchor="middle" x="3118" y="-14.3" font-family="Times,serif" font-size="14.00">Julien</text>
</g>
<!-- Gabriel Katan&#39;Art&#45;&gt;Julien -->
<g id="edge58" class="edge">
<title>Gabriel Katan&#39;Art&#45;&gt;Julien</title>
<path fill="none" stroke="black" d="M3049.43,-179.61C3062.65,-148.64 3090.38,-83.7 3106.22,-46.58"/>
<polygon fill="black" stroke="black" points="3109.24,-48.43 3109.95,-37.85 3102.8,-45.68 3109.24,-48.43"/>
</g>
<!-- Lucie Sharks -->
<g id="node10" class="node">
<title>Lucie Sharks</title>
<polygon fill="#bdabda" stroke="#c1c9e2" points="879,-216 791,-216 791,-180 879,-180 879,-216"/>
<text text-anchor="middle" x="835" y="-194.3" font-family="Times,serif" font-size="14.00">Lucie Sharks</text>
</g>
<!-- Lucie Sharks&#45;&gt;Nicolas -->
<g id="edge10" class="edge">
<title>Lucie Sharks&#45;&gt;Nicolas</title>
<path fill="none" stroke="black" d="M830.9,-179.61C823.65,-148.9 808.53,-84.81 799.73,-47.54"/>
<polygon fill="black" stroke="black" points="803.17,-46.86 797.47,-37.94 796.36,-48.47 803.17,-46.86"/>
</g>
<!-- Lucie Sharks&#45;&gt;Thomas -->
<g id="edge11" class="edge">
<title>Lucie Sharks&#45;&gt;Thomas</title>
<path fill="none" stroke="black" d="M843.79,-179.61C859.45,-148.64 892.29,-83.7 911.05,-46.58"/>
<polygon fill="black" stroke="black" points="914.1,-48.32 915.49,-37.81 907.85,-45.16 914.1,-48.32"/>
</g>
<!-- Lucie Sharks&#45;&gt;Flo3 -->
<g id="edge12" class="edge">
<title>Lucie Sharks&#45;&gt;Flo3</title>
<path fill="none" stroke="black" d="M818.39,-179.61C788.3,-148.1 724.65,-81.46 689.54,-44.69"/>
<polygon fill="black" stroke="black" points="692.16,-42.37 682.72,-37.56 687.1,-47.21 692.16,-42.37"/>
</g>
<!-- Lalie Valhall&#39;Art -->
<g id="node14" class="node">
<title>Lalie Valhall&#39;Art</title>
<polygon fill="#00bfff" stroke="#c1c9e2" points="1651,-396 1545,-396 1545,-360 1651,-360 1651,-396"/>
<text text-anchor="middle" x="1598" y="-374.3" font-family="Times,serif" font-size="14.00">Lalie Valhall&#39;Art</text>
</g>
<!-- Lalie Valhall&#39;Art&#45;&gt;Logan Sharks -->
<g id="edge13" class="edge">
<title>Lalie Valhall&#39;Art&#45;&gt;Logan Sharks</title>
<path fill="none" stroke="black" d="M1544.75,-360.01C1439.4,-326.41 1205.24,-251.71 1096.95,-217.17"/>
<polygon fill="black" stroke="black" points="1098.28,-213.92 1087.69,-214.21 1096.16,-220.59 1098.28,-213.92"/>
</g>
<!-- Virgile Sharks -->
<g id="node15" class="node">
<title>Virgile Sharks</title>
<polygon fill="#bdabda" stroke="#c1c9e2" points="1337.5,-216 1242.5,-216 1242.5,-180 1337.5,-180 1337.5,-216"/>
<text text-anchor="middle" x="1290" y="-194.3" font-family="Times,serif" font-size="14.00">Virgile Sharks</text>
</g>
<!-- Lalie Valhall&#39;Art&#45;&gt;Virgile Sharks -->
<g id="edge14" class="edge">
<title>Lalie Valhall&#39;Art&#45;&gt;Virgile Sharks</title>
<path fill="none" stroke="black" d="M1567.91,-359.61C1512.13,-327.37 1392.69,-258.35 1330.12,-222.18"/>
<polygon fill="black" stroke="black" points="1331.94,-219.19 1321.53,-217.22 1328.43,-225.25 1331.94,-219.19"/>
</g>
<!-- Lucas Sharks -->
<g id="node16" class="node">
<title>Lucas Sharks</title>
<polygon fill="#bdabda" stroke="#c1c9e2" points="1796.5,-216 1707.5,-216 1707.5,-180 1796.5,-180 1796.5,-216"/>
<text text-anchor="middle" x="1752" y="-194.3" font-family="Times,serif" font-size="14.00">Lucas Sharks</text>
</g>
<!-- Lalie Valhall&#39;Art&#45;&gt;Lucas Sharks -->
<g id="edge15" class="edge">
<title>Lalie Valhall&#39;Art&#45;&gt;Lucas Sharks</title>
<path fill="none" stroke="black" d="M1613.05,-359.61C1640.19,-328.24 1697.48,-262.02 1729.37,-225.16"/>
<polygon fill="black" stroke="black" points="1732.01,-227.46 1735.9,-217.61 1726.71,-222.88 1732.01,-227.46"/>
</g>
<!-- Nils Mist -->
<g id="node17" class="node">
<title>Nils Mist</title>
<polygon fill="#9e0e40" stroke="#c1c9e2" points="1478,-216 1410,-216 1410,-180 1478,-180 1478,-216"/>
<text text-anchor="middle" x="1444" y="-194.3" font-family="Times,serif" font-size="14.00">Nils Mist</text>
</g>
<!-- Lalie Valhall&#39;Art&#45;&gt;Nils Mist -->
<g id="edge16" class="edge">
<title>Lalie Valhall&#39;Art&#45;&gt;Nils Mist</title>
<path fill="none" stroke="black" d="M1582.95,-359.61C1555.81,-328.24 1498.52,-262.02 1466.63,-225.16"/>
<polygon fill="black" stroke="black" points="1469.29,-222.88 1460.1,-217.61 1463.99,-227.46 1469.29,-222.88"/>
</g>
<!-- Mathis Mist -->
<g id="node18" class="node">
<title>Mathis Mist</title>
<polygon fill="#9e0e40" stroke="#c1c9e2" points="2596,-216 2512,-216 2512,-180 2596,-180 2596,-216"/>
<text text-anchor="middle" x="2554" y="-194.3" font-family="Times,serif" font-size="14.00">Mathis Mist</text>
</g>
<!-- Lalie Valhall&#39;Art&#45;&gt;Mathis Mist -->
<g id="edge17" class="edge">
<title>Lalie Valhall&#39;Art&#45;&gt;Mathis Mist</title>
<path fill="none" stroke="black" d="M1651.07,-367.9C1787.96,-344.3 2164.13,-278.56 2476,-216 2483.94,-214.41 2492.32,-212.66 2500.53,-210.9"/>
<polygon fill="black" stroke="black" points="2501.03,-214.37 2510.07,-208.84 2499.55,-207.53 2501.03,-214.37"/>
</g>
<!-- Virgile Sharks&#45;&gt;Alys -->
<g id="edge40" class="edge">
<title>Virgile Sharks&#45;&gt;Alys</title>
<path fill="none" stroke="black" d="M1337.72,-184.58C1440.9,-157.71 1692.47,-92.05 1903,-36 1911.05,-33.86 1919.68,-31.54 1927.89,-29.33"/>
<polygon fill="black" stroke="black" points="1928.52,-32.78 1937.26,-26.8 1926.69,-26.03 1928.52,-32.78"/>
</g>
<!-- Clément -->
<g id="node36" class="node">
<title>Clément</title>
<polygon fill="#c1c9e2" stroke="#c1c9e2" points="1475.5,-36 1412.5,-36 1412.5,0 1475.5,0 1475.5,-36"/>
<text text-anchor="middle" x="1444" y="-14.3" font-family="Times,serif" font-size="14.00">Clément</text>
</g>
<!-- Virgile Sharks&#45;&gt;Clément -->
<g id="edge41" class="edge">
<title>Virgile Sharks&#45;&gt;Clément</title>
<path fill="none" stroke="black" d="M1305.05,-179.61C1332.19,-148.24 1389.48,-82.02 1421.37,-45.16"/>
<polygon fill="black" stroke="black" points="1424.01,-47.46 1427.9,-37.61 1418.71,-42.88 1424.01,-47.46"/>
</g>
<!-- Adam -->
<g id="node37" class="node">
<title>Adam</title>
<polygon fill="#c1c9e2" stroke="#c1c9e2" points="1209,-36 1155,-36 1155,0 1209,0 1209,-36"/>
<text text-anchor="middle" x="1182" y="-14.3" font-family="Times,serif" font-size="14.00">Adam</text>
</g>
<!-- Virgile Sharks&#45;&gt;Adam -->
<g id="edge42" class="edge">
<title>Virgile Sharks&#45;&gt;Adam</title>
<path fill="none" stroke="black" d="M1279.45,-179.61C1260.58,-148.5 1220.92,-83.14 1198.45,-46.11"/>
<polygon fill="black" stroke="black" points="1201.56,-44.49 1193.38,-37.76 1195.58,-48.12 1201.56,-44.49"/>
</g>
<!-- Laurine -->
<g id="node38" class="node">
<title>Laurine</title>
<polygon fill="#c1c9e2" stroke="#c1c9e2" points="1340.5,-36 1281.5,-36 1281.5,0 1340.5,0 1340.5,-36"/>
<text text-anchor="middle" x="1311" y="-14.3" font-family="Times,serif" font-size="14.00">Laurine</text>
</g>
<!-- Virgile Sharks&#45;&gt;Laurine -->
<g id="edge43" class="edge">
<title>Virgile Sharks&#45;&gt;Laurine</title>
<path fill="none" stroke="black" d="M1292.05,-179.61C1295.67,-148.9 1303.24,-84.81 1307.63,-47.54"/>
<polygon fill="black" stroke="black" points="1311.07,-48.31 1308.76,-37.97 1304.11,-47.49 1311.07,-48.31"/>
</g>
<!-- Gaétan -->
<g id="node39" class="node">
<title>Gaétan</title>
<polygon fill="#c1c9e2" stroke="#c1c9e2" points="1082.5,-36 1027.5,-36 1027.5,0 1082.5,0 1082.5,-36"/>
<text text-anchor="middle" x="1055" y="-14.3" font-family="Times,serif" font-size="14.00">Gaétan</text>
</g>
<!-- Virgile Sharks&#45;&gt;Gaétan -->
<g id="edge44" class="edge">
<title>Virgile Sharks&#45;&gt;Gaétan</title>
<path fill="none" stroke="black" d="M1267.04,-179.61C1224.92,-147.71 1135.23,-79.77 1087.1,-43.31"/>
<polygon fill="black" stroke="black" points="1089.35,-40.62 1079.26,-37.38 1085.12,-46.2 1089.35,-40.62"/>
</g>
<!-- Lucas Sharks&#45;&gt;Amaël -->
<g id="edge59" class="edge">
<title>Lucas Sharks&#45;&gt;Amaël</title>
<path fill="none" stroke="black" d="M1785.22,-179.61C1848.98,-146.23 1988.1,-73.39 2054.84,-38.46"/>
<polygon fill="black" stroke="black" points="2056.33,-41.63 2063.56,-33.89 2053.08,-35.42 2056.33,-41.63"/>
</g>
<!-- Lucas Sharks&#45;&gt;Henri -->
<g id="edge60" class="edge">
<title>Lucas Sharks&#45;&gt;Henri</title>
<path fill="none" stroke="black" d="M1748.29,-179.61C1741.73,-148.9 1728.05,-84.81 1720.09,-47.54"/>
<polygon fill="black" stroke="black" points="1723.55,-46.99 1718.04,-37.94 1716.71,-48.45 1723.55,-46.99"/>
</g>
<!-- Charlotte -->
<g id="node46" class="node">
<title>Charlotte</title>
<polygon fill="#c1c9e2" stroke="#c1c9e2" points="1614.5,-36 1547.5,-36 1547.5,0 1614.5,0 1614.5,-36"/>
<text text-anchor="middle" x="1581" y="-14.3" font-family="Times,serif" font-size="14.00">Charlotte</text>
</g>
<!-- Lucas Sharks&#45;&gt;Charlotte -->
<g id="edge61" class="edge">
<title>Lucas Sharks&#45;&gt;Charlotte</title>
<path fill="none" stroke="black" d="M1735.29,-179.61C1705.03,-148.1 1641,-81.46 1605.68,-44.69"/>
<polygon fill="black" stroke="black" points="1608.28,-42.34 1598.82,-37.55 1603.23,-47.19 1608.28,-42.34"/>
</g>
<!-- Lou -->
<g id="node47" class="node">
<title>Lou</title>
<polygon fill="#c1c9e2" stroke="#c1c9e2" points="1867,-36 1813,-36 1813,0 1867,0 1867,-36"/>
<text text-anchor="middle" x="1840" y="-14.3" font-family="Times,serif" font-size="14.00">Lou</text>
</g>
<!-- Lucas Sharks&#45;&gt;Lou -->
<g id="edge62" class="edge">
<title>Lucas Sharks&#45;&gt;Lou</title>
<path fill="none" stroke="black" d="M1760.6,-179.61C1775.91,-148.64 1808.01,-83.7 1826.36,-46.58"/>
<polygon fill="black" stroke="black" points="1829.4,-48.33 1830.7,-37.82 1823.13,-45.23 1829.4,-48.33"/>
</g>
<!-- Nils Mist&#45;&gt;Clément -->
<g id="edge63" class="edge">
<title>Nils Mist&#45;&gt;Clément</title>
<path fill="none" stroke="black" d="M1444,-179.61C1444,-148.9 1444,-84.81 1444,-47.54"/>
<polygon fill="black" stroke="black" points="1447.5,-47.98 1444,-37.98 1440.5,-47.98 1447.5,-47.98"/>
</g>
<!-- Quentin Valhall&#39;Art -->
<g id="node19" class="node">
<title>Quentin Valhall&#39;Art</title>
<polygon fill="#00bfff" stroke="#c1c9e2" points="2820,-396 2698,-396 2698,-360 2820,-360 2820,-396"/>
<text text-anchor="middle" x="2759" y="-374.3" font-family="Times,serif" font-size="14.00">Quentin Valhall&#39;Art</text>
</g>
<!-- Quentin Valhall&#39;Art&#45;&gt;Mathis Mist -->
<g id="edge18" class="edge">
<title>Quentin Valhall&#39;Art&#45;&gt;Mathis Mist</title>
<path fill="none" stroke="black" d="M2738.97,-359.61C2702.46,-327.91 2624.96,-260.61 2582.79,-224"/>
<polygon fill="black" stroke="black" points="2585.1,-221.37 2575.25,-217.45 2580.51,-226.65 2585.1,-221.37"/>
</g>
<!-- Olivier Katan&#39;Art -->
<g id="node20" class="node">
<title>Olivier Katan&#39;Art</title>
<polygon fill="#ffcba4" stroke="#c1c9e2" points="3281.5,-216 3170.5,-216 3170.5,-180 3281.5,-180 3281.5,-216"/>
<text text-anchor="middle" x="3226" y="-194.3" font-family="Times,serif" font-size="14.00">Olivier Katan&#39;Art</text>
</g>
<!-- Quentin Valhall&#39;Art&#45;&gt;Olivier Katan&#39;Art -->
<g id="edge19" class="edge">
<title>Quentin Valhall&#39;Art&#45;&gt;Olivier Katan&#39;Art</title>
<path fill="none" stroke="black" d="M2804.63,-359.61C2890.51,-326.88 3075.92,-256.2 3169.51,-220.53"/>
<polygon fill="black" stroke="black" points="3170.67,-223.83 3178.77,-217 3168.18,-217.29 3170.67,-223.83"/>
</g>
<!-- Maxime Pulsar -->
<g id="node21" class="node">
<title>Maxime Pulsar</title>
<polygon fill="#a300a3" stroke="#c1c9e2" points="2468.5,-576 2367.5,-576 2367.5,-540 2468.5,-540 2468.5,-576"/>
<text text-anchor="middle" x="2418" y="-554.3" font-family="Times,serif" font-size="14.00">Maxime Pulsar</text>
</g>
<!-- Maxime Pulsar&#45;&gt;Antoine Valhall&#39;Art -->
<g id="edge20" class="edge">
<title>Maxime Pulsar&#45;&gt;Antoine Valhall&#39;Art</title>
<path fill="none" stroke="black" d="M2398.95,-539.61C2364.22,-507.91 2290.5,-440.61 2250.39,-404"/>
<polygon fill="black" stroke="black" points="2252.99,-401.64 2243.25,-397.48 2248.27,-406.81 2252.99,-401.64"/>
</g>
<!-- Maxime Pulsar&#45;&gt;Gaspard Valhall&#39;Art -->
<g id="edge21" class="edge">
<title>Maxime Pulsar&#45;&gt;Gaspard Valhall&#39;Art</title>
<path fill="none" stroke="black" d="M2418,-539.61C2418,-508.9 2418,-444.81 2418,-407.54"/>
<polygon fill="black" stroke="black" points="2421.5,-407.98 2418,-397.98 2414.5,-407.98 2421.5,-407.98"/>
</g>
<!-- Maxime Pulsar&#45;&gt;Clovis Sharks -->
<g id="edge22" class="edge">
<title>Maxime Pulsar&#45;&gt;Clovis Sharks</title>
<path fill="none" stroke="black" d="M2432.28,-539.73C2480.24,-481.72 2635.79,-293.59 2692.8,-224.64"/>
<polygon fill="black" stroke="black" points="2695.23,-227.2 2698.9,-217.26 2689.83,-222.74 2695.23,-227.2"/>
</g>
<!-- Maxime Pulsar&#45;&gt;Lalie Valhall&#39;Art -->
<g id="edge23" class="edge">
<title>Maxime Pulsar&#45;&gt;Lalie Valhall&#39;Art</title>
<path fill="none" stroke="black" d="M2367.02,-545.93C2224.18,-514.93 1820.29,-427.25 1662.39,-392.98"/>
<polygon fill="black" stroke="black" points="1663.45,-389.63 1652.93,-390.92 1661.96,-396.47 1663.45,-389.63"/>
</g>
<!-- Maxime Pulsar&#45;&gt;Quentin Valhall&#39;Art -->
<g id="edge24" class="edge">
<title>Maxime Pulsar&#45;&gt;Quentin Valhall&#39;Art</title>
<path fill="none" stroke="black" d="M2451.32,-539.61C2513.33,-507.24 2646.4,-437.78 2715.44,-401.74"/>
<polygon fill="black" stroke="black" points="2716.96,-404.89 2724.21,-397.16 2713.72,-398.69 2716.96,-404.89"/>
</g>
<!-- Yanis Pulsar -->
<g id="node22" class="node">
<title>Yanis Pulsar</title>
<polygon fill="#a300a3" stroke="#c1c9e2" points="1557.5,-576 1472.5,-576 1472.5,-540 1557.5,-540 1557.5,-576"/>
<text text-anchor="middle" x="1515" y="-554.3" font-family="Times,serif" font-size="14.00">Yanis Pulsar</text>
</g>
<!-- Yanis Pulsar&#45;&gt;Lalie Valhall&#39;Art -->
<g id="edge25" class="edge">
<title>Yanis Pulsar&#45;&gt;Lalie Valhall&#39;Art</title>
<path fill="none" stroke="black" d="M1523.11,-539.61C1537.55,-508.64 1567.83,-443.7 1585.14,-406.58"/>
<polygon fill="black" stroke="black" points="1588.16,-408.38 1589.22,-397.83 1581.82,-405.42 1588.16,-408.38"/>
</g>
<!-- Robin Horn -->
<g id="node23" class="node">
<title>Robin Horn</title>
<polygon fill="#f2be00" stroke="#c1c9e2" points="1472.5,-396 1391.5,-396 1391.5,-360 1472.5,-360 1472.5,-396"/>
<text text-anchor="middle" x="1432" y="-374.3" font-family="Times,serif" font-size="14.00">Robin Horn</text>
</g>
<!-- Yanis Pulsar&#45;&gt;Robin Horn -->
<g id="edge26" class="edge">
<title>Yanis Pulsar&#45;&gt;Robin Horn</title>
<path fill="none" stroke="black" d="M1506.89,-539.61C1492.45,-508.64 1462.17,-443.7 1444.86,-406.58"/>
<polygon fill="black" stroke="black" points="1448.18,-405.42 1440.78,-397.83 1441.84,-408.38 1448.18,-405.42"/>
</g>
<!-- Vincent Valhall&#39;Art -->
<g id="node24" class="node">
<title>Vincent Valhall&#39;Art</title>
<polygon fill="#00bfff" stroke="#c1c9e2" points="539.5,-396 418.5,-396 418.5,-360 539.5,-360 539.5,-396"/>
<text text-anchor="middle" x="479" y="-374.3" font-family="Times,serif" font-size="14.00">Vincent Valhall&#39;Art</text>
</g>
<!-- Yanis Pulsar&#45;&gt;Vincent Valhall&#39;Art -->
<g id="edge27" class="edge">
<title>Yanis Pulsar&#45;&gt;Vincent Valhall&#39;Art</title>
<path fill="none" stroke="black" d="M1472.13,-549.63C1312.56,-522.22 751.88,-425.89 551.16,-391.4"/>
<polygon fill="black" stroke="black" points="551.82,-387.96 541.37,-389.72 550.63,-394.86 551.82,-387.96"/>
</g>
<!-- Thaïs Dice -->
<g id="node25" class="node">
<title>Thaïs Dice</title>
<polygon fill="#ff4d5c" stroke="#c1c9e2" points="2022,-396 1946,-396 1946,-360 2022,-360 2022,-396"/>
<text text-anchor="middle" x="1984" y="-374.3" font-family="Times,serif" font-size="14.00">Thaïs Dice</text>
</g>
<!-- Yanis Pulsar&#45;&gt;Thaïs Dice -->
<g id="edge28" class="edge">
<title>Yanis Pulsar&#45;&gt;Thaïs Dice</title>
<path fill="none" stroke="black" d="M1557.86,-540.73C1645.11,-507.62 1842.84,-432.57 1935.01,-397.59"/>
<polygon fill="black" stroke="black" points="1936.19,-400.89 1944.29,-394.07 1933.7,-394.35 1936.19,-400.89"/>
</g>
<!-- Robin Horn&#45;&gt;Lucie Sharks -->
<g id="edge30" class="edge">
<title>Robin Horn&#45;&gt;Lucie Sharks</title>
<path fill="none" stroke="black" d="M1391.44,-364.91C1287.07,-333.79 1009.15,-250.92 890.23,-215.47"/>
<polygon fill="black" stroke="black" points="891.27,-212.12 880.68,-212.62 889.27,-218.83 891.27,-212.12"/>
</g>
<!-- Adrien Gold -->
<g id="node27" class="node">
<title>Adrien Gold</title>
<polygon fill="#ffffff" stroke="#c1c9e2" points="1635.5,-216 1550.5,-216 1550.5,-180 1635.5,-180 1635.5,-216"/>
<text text-anchor="middle" x="1593" y="-194.3" font-family="Times,serif" font-size="14.00">Adrien Gold</text>
</g>
<!-- Robin Horn&#45;&gt;Adrien Gold -->
<g id="edge31" class="edge">
<title>Robin Horn&#45;&gt;Adrien Gold</title>
<path fill="none" stroke="black" d="M1447.73,-359.61C1476.23,-328.1 1536.51,-261.46 1569.76,-224.69"/>
<polygon fill="black" stroke="black" points="1572.08,-227.35 1576.19,-217.58 1566.89,-222.65 1572.08,-227.35"/>
</g>
<!-- Flavien Sharks -->
<g id="node28" class="node">
<title>Flavien Sharks</title>
<polygon fill="#bdabda" stroke="#c1c9e2" points="259,-216 161,-216 161,-180 259,-180 259,-216"/>
<text text-anchor="middle" x="210" y="-194.3" font-family="Times,serif" font-size="14.00">Flavien Sharks</text>
</g>
<!-- Vincent Valhall&#39;Art&#45;&gt;Flavien Sharks -->
<g id="edge32" class="edge">
<title>Vincent Valhall&#39;Art&#45;&gt;Flavien Sharks</title>
<path fill="none" stroke="black" d="M452.72,-359.61C404.2,-327.51 300.55,-258.92 245.72,-222.63"/>
<polygon fill="black" stroke="black" points="247.92,-219.9 237.65,-217.3 244.06,-225.73 247.92,-219.9"/>
</g>
<!-- Zoé Mist -->
<g id="node29" class="node">
<title>Zoé Mist</title>
<polygon fill="#9e0e40" stroke="#c1c9e2" points="512.5,-216 445.5,-216 445.5,-180 512.5,-180 512.5,-216"/>
<text text-anchor="middle" x="479" y="-194.3" font-family="Times,serif" font-size="14.00">Zoé Mist</text>
</g>
<!-- Vincent Valhall&#39;Art&#45;&gt;Zoé Mist -->
<g id="edge33" class="edge">
<title>Vincent Valhall&#39;Art&#45;&gt;Zoé Mist</title>
<path fill="none" stroke="black" d="M479,-359.61C479,-328.9 479,-264.81 479,-227.54"/>
<polygon fill="black" stroke="black" points="482.5,-227.98 479,-217.98 475.5,-227.98 482.5,-227.98"/>
</g>
<!-- Théo Gold -->
<g id="node26" class="node">
<title>Théo Gold</title>
<polygon fill="#ffffff" stroke="#c1c9e2" points="2113.5,-216 2038.5,-216 2038.5,-180 2113.5,-180 2113.5,-216"/>
<text text-anchor="middle" x="2076" y="-194.3" font-family="Times,serif" font-size="14.00">Théo Gold</text>
</g>
<!-- Thaïs Dice&#45;&gt;Théo Gold -->
<g id="edge29" class="edge">
<title>Thaïs Dice&#45;&gt;Théo Gold</title>
<path fill="none" stroke="black" d="M1992.99,-359.61C2009,-328.64 2042.56,-263.7 2061.74,-226.58"/>
<polygon fill="black" stroke="black" points="2064.8,-228.3 2066.28,-217.81 2058.58,-225.08 2064.8,-228.3"/>
</g>
<!-- Théo Gold&#45;&gt;Mariette -->
<g id="edge69" class="edge">
<title>Théo Gold&#45;&gt;Mariette</title>
<path fill="none" stroke="black" d="M2090.36,-179.61C2116.27,-148.24 2170.95,-82.02 2201.39,-45.16"/>
<polygon fill="black" stroke="black" points="2203.95,-47.57 2207.62,-37.63 2198.55,-43.11 2203.95,-47.57"/>
</g>
<!-- Adrien Gold&#45;&gt;Charlotte -->
<g id="edge68" class="edge">
<title>Adrien Gold&#45;&gt;Charlotte</title>
<path fill="none" stroke="black" d="M1591.83,-179.61C1589.76,-148.9 1585.44,-84.81 1582.92,-47.54"/>
<polygon fill="black" stroke="black" points="1586.44,-47.71 1582.28,-37.97 1579.46,-48.18 1586.44,-47.71"/>
</g>
<!-- Flavien Sharks&#45;&gt;Henri -->
<g id="edge45" class="edge">
<title>Flavien Sharks&#45;&gt;Henri</title>
<path fill="none" stroke="black" d="M259.26,-192.48C479.27,-172.16 1373.24,-87.93 1650,-36 1658.39,-34.43 1667.3,-32.33 1675.71,-30.16"/>
<polygon fill="black" stroke="black" points="1676.59,-33.55 1685.34,-27.57 1674.77,-26.79 1676.59,-33.55"/>
</g>
<!-- Anaïs1 -->
<g id="node40" class="node">
<title>Anaïs1</title>
<polygon fill="#c1c9e2" stroke="#c1c9e2" points="54,-36 0,-36 0,0 54,0 54,-36"/>
<text text-anchor="middle" x="27" y="-14.3" font-family="Times,serif" font-size="14.00">Anaïs</text>
</g>
<!-- Flavien Sharks&#45;&gt;Anaïs1 -->
<g id="edge46" class="edge">
<title>Flavien Sharks&#45;&gt;Anaïs1</title>
<path fill="none" stroke="black" d="M192.12,-179.61C159.59,-147.97 90.64,-80.9 52.94,-44.23"/>
<polygon fill="black" stroke="black" points="55.65,-41.98 46.04,-37.52 50.77,-47 55.65,-41.98"/>
</g>
<!-- Sarah -->
<g id="node41" class="node">
<title>Sarah</title>
<polygon fill="#c1c9e2" stroke="#c1c9e2" points="180,-36 126,-36 126,0 180,0 180,-36"/>
<text text-anchor="middle" x="153" y="-14.3" font-family="Times,serif" font-size="14.00">Sarah</text>
</g>
<!-- Flavien Sharks&#45;&gt;Sarah -->
<g id="edge47" class="edge">
<title>Flavien Sharks&#45;&gt;Sarah</title>
<path fill="none" stroke="black" d="M204.43,-179.61C194.56,-148.77 173.9,-84.26 161.99,-47.06"/>
<polygon fill="black" stroke="black" points="165.44,-46.36 159.05,-37.9 158.77,-48.49 165.44,-46.36"/>
</g>
<!-- Zoé Mist&#45;&gt;Flo3 -->
<g id="edge64" class="edge">
<title>Zoé Mist&#45;&gt;Flo3</title>
<path fill="none" stroke="black" d="M497.17,-179.61C530.23,-147.97 600.32,-80.9 638.64,-44.23"/>
<polygon fill="black" stroke="black" points="640.85,-46.95 645.66,-37.51 636.01,-41.89 640.85,-46.95"/>
</g>
<!-- Robin -->
<g id="node48" class="node">
<title>Robin</title>
<polygon fill="#c1c9e2" stroke="#c1c9e2" points="434,-36 380,-36 380,0 434,0 434,-36"/>
<text text-anchor="middle" x="407" y="-14.3" font-family="Times,serif" font-size="14.00">Robin</text>
</g>
<!-- Zoé Mist&#45;&gt;Robin -->
<g id="edge65" class="edge">
<title>Zoé Mist&#45;&gt;Robin</title>
<path fill="none" stroke="black" d="M471.97,-179.61C459.49,-148.77 433.4,-84.26 418.35,-47.06"/>
<polygon fill="black" stroke="black" points="421.63,-45.82 414.63,-37.87 415.14,-48.45 421.63,-45.82"/>
</g>
<!-- Antoine -->
<g id="node49" class="node">
<title>Antoine</title>
<polygon fill="#c1c9e2" stroke="#c1c9e2" points="566,-36 506,-36 506,0 566,0 566,-36"/>
<text text-anchor="middle" x="536" y="-14.3" font-family="Times,serif" font-size="14.00">Antoine</text>
</g>
<!-- Zoé Mist&#45;&gt;Antoine -->
<g id="edge66" class="edge">
<title>Zoé Mist&#45;&gt;Antoine</title>
<path fill="none" stroke="black" d="M484.57,-179.61C494.44,-148.77 515.1,-84.26 527.01,-47.06"/>
<polygon fill="black" stroke="black" points="530.23,-48.49 529.95,-37.9 523.56,-46.36 530.23,-48.49"/>
</g>
<!-- Emélie -->
<g id="node50" class="node">
<title>Emélie</title>
<polygon fill="#c1c9e2" stroke="#c1c9e2" points="308,-36 252,-36 252,0 308,0 308,-36"/>
<text text-anchor="middle" x="280" y="-14.3" font-family="Times,serif" font-size="14.00">Emélie</text>
</g>
<!-- Zoé Mist&#45;&gt;Emélie -->
<g id="edge67" class="edge">
<title>Zoé Mist&#45;&gt;Emélie</title>
<path fill="none" stroke="black" d="M459.56,-179.61C424.11,-147.91 348.88,-80.61 307.95,-44"/>
<polygon fill="black" stroke="black" points="310.44,-41.53 300.65,-37.47 305.77,-46.75 310.44,-41.53"/>
</g>
</g>
</svg>
