<?xml version="1.0" encoding="UTF-8" standalone="no"?>
<!DOCTYPE svg PUBLIC "-//W3C//DTD SVG 1.1//EN"
 "http://www.w3.org/Graphics/SVG/1.1/DTD/svg11.dtd">
<!-- Generated by graphviz version 7.0.3 (0)
 -->
<!-- Title: G Pages: 1 -->
<svg width="3267pt" height="648pt"
 viewBox="0.00 0.00 3266.50 648.00" xmlns="http://www.w3.org/2000/svg" xmlns:xlink="http://www.w3.org/1999/xlink">
<g id="graph0" class="graph" transform="scale(1 1) rotate(0) translate(36 612)">
<title>G</title>
<polygon fill="white" stroke="none" points="-36,36 -36,-612 3230.5,-612 3230.5,36 -36,36"/>
<!-- Antoine Valhall&#39;Art -->
<g id="node1" class="node">
<title>Antoine Valhall&#39;Art</title>
<polygon fill="#00bfff" stroke="#c1c9e2" points="2577,-396 2455,-396 2455,-360 2577,-360 2577,-396"/>
<text text-anchor="middle" x="2516" y="-374.3" font-family="Times,serif" font-size="14.00">Antoine Valhall&#39;Art</text>
</g>
<!-- Jorge Mist -->
<g id="node2" class="node">
<title>Jorge Mist</title>
<polygon fill="#9e0e40" stroke="#c1c9e2" points="2397.5,-216 2322.5,-216 2322.5,-180 2397.5,-180 2397.5,-216"/>
<text text-anchor="middle" x="2360" y="-194.3" font-family="Times,serif" font-size="14.00">Jorge Mist</text>
</g>
<!-- Antoine Valhall&#39;Art&#45;&gt;Jorge Mist -->
<g id="edge1" class="edge">
<title>Antoine Valhall&#39;Art&#45;&gt;Jorge Mist</title>
<path fill="none" stroke="black" d="M2500.76,-359.61C2473.15,-328.1 2414.74,-261.46 2382.52,-224.69"/>
<polygon fill="black" stroke="black" points="2385.52,-222.81 2376.3,-217.6 2380.26,-227.43 2385.52,-222.81"/>
</g>
<!-- Logan Sharks -->
<g id="node3" class="node">
<title>Logan Sharks</title>
<polygon fill="#bdabda" stroke="#c1c9e2" points="1194,-216 1102,-216 1102,-180 1194,-180 1194,-216"/>
<text text-anchor="middle" x="1148" y="-194.3" font-family="Times,serif" font-size="14.00">Logan Sharks</text>
</g>
<!-- Antoine Valhall&#39;Art&#45;&gt;Logan Sharks -->
<g id="edge2" class="edge">
<title>Antoine Valhall&#39;Art&#45;&gt;Logan Sharks</title>
<path fill="none" stroke="black" d="M2454.65,-365.86C2442.52,-363.8 2429.87,-361.75 2418,-360 1891.81,-282.52 1754.86,-302.06 1230,-216 1222.01,-214.69 1213.62,-213.15 1205.37,-211.53"/>
<polygon fill="black" stroke="black" points="1206.25,-208.14 1195.76,-209.6 1204.87,-215 1206.25,-208.14"/>
</g>
<!-- Matthieu Sharks -->
<g id="node4" class="node">
<title>Matthieu Sharks</title>
<polygon fill="#bdabda" stroke="#c1c9e2" points="2788.5,-216 2681.5,-216 2681.5,-180 2788.5,-180 2788.5,-216"/>
<text text-anchor="middle" x="2735" y="-194.3" font-family="Times,serif" font-size="14.00">Matthieu Sharks</text>
</g>
<!-- Antoine Valhall&#39;Art&#45;&gt;Matthieu Sharks -->
<g id="edge3" class="edge">
<title>Antoine Valhall&#39;Art&#45;&gt;Matthieu Sharks</title>
<path fill="none" stroke="black" d="M2537.4,-359.61C2576.57,-327.77 2659.89,-260.05 2704.81,-223.54"/>
<polygon fill="black" stroke="black" points="2706.79,-226.44 2712.34,-217.42 2702.37,-221.01 2706.79,-226.44"/>
</g>
<!-- Paul Sharks -->
<g id="node5" class="node">
<title>Paul Sharks</title>
<polygon fill="#bdabda" stroke="#c1c9e2" points="2556.5,-216 2475.5,-216 2475.5,-180 2556.5,-180 2556.5,-216"/>
<text text-anchor="middle" x="2516" y="-194.3" font-family="Times,serif" font-size="14.00">Paul Sharks</text>
</g>
<!-- Antoine Valhall&#39;Art&#45;&gt;Paul Sharks -->
<g id="edge4" class="edge">
<title>Antoine Valhall&#39;Art&#45;&gt;Paul Sharks</title>
<path fill="none" stroke="black" d="M2516,-359.61C2516,-328.9 2516,-264.81 2516,-227.54"/>
<polygon fill="black" stroke="black" points="2519.5,-227.98 2516,-217.98 2512.5,-227.98 2519.5,-227.98"/>
</g>
<!-- Henri -->
<g id="node29" class="node">
<title>Henri</title>
<polygon fill="#c1c9e2" stroke="#c1c9e2" points="1348,-36 1294,-36 1294,0 1348,0 1348,-36"/>
<text text-anchor="middle" x="1321" y="-14.3" font-family="Times,serif" font-size="14.00">Henri</text>
</g>
<!-- Jorge Mist&#45;&gt;Henri -->
<g id="edge32" class="edge">
<title>Jorge Mist&#45;&gt;Henri</title>
<path fill="none" stroke="black" d="M2322.37,-189.37C2307.07,-186.34 2289.21,-182.9 2273,-180 1878.98,-109.61 1775.29,-120.25 1384,-36 1376.02,-34.28 1367.54,-32.18 1359.48,-30.06"/>
<polygon fill="black" stroke="black" points="1360.48,-26.7 1349.91,-27.46 1358.65,-33.46 1360.48,-26.7"/>
</g>
<!-- Clara -->
<g id="node30" class="node">
<title>Clara</title>
<polygon fill="#c1c9e2" stroke="#c1c9e2" points="2510,-36 2456,-36 2456,0 2510,0 2510,-36"/>
<text text-anchor="middle" x="2483" y="-14.3" font-family="Times,serif" font-size="14.00">Clara</text>
</g>
<!-- Jorge Mist&#45;&gt;Clara -->
<g id="edge33" class="edge">
<title>Jorge Mist&#45;&gt;Clara</title>
<path fill="none" stroke="black" d="M2372.02,-179.61C2393.6,-148.37 2439.06,-82.58 2464.6,-45.63"/>
<polygon fill="black" stroke="black" points="2467.27,-47.92 2470.07,-37.71 2461.51,-43.94 2467.27,-47.92"/>
</g>
<!-- Alys -->
<g id="node31" class="node">
<title>Alys</title>
<polygon fill="#c1c9e2" stroke="#c1c9e2" points="2122,-36 2068,-36 2068,0 2122,0 2122,-36"/>
<text text-anchor="middle" x="2095" y="-14.3" font-family="Times,serif" font-size="14.00">Alys</text>
</g>
<!-- Jorge Mist&#45;&gt;Alys -->
<g id="edge34" class="edge">
<title>Jorge Mist&#45;&gt;Alys</title>
<path fill="none" stroke="black" d="M2334.11,-179.61C2286.41,-147.57 2184.62,-79.2 2130.52,-42.86"/>
<polygon fill="black" stroke="black" points="2132.51,-39.98 2122.25,-37.31 2128.6,-45.79 2132.51,-39.98"/>
</g>
<!-- Paco -->
<g id="node32" class="node">
<title>Paco</title>
<polygon fill="#c1c9e2" stroke="#c1c9e2" points="2636,-36 2582,-36 2582,0 2636,0 2636,-36"/>
<text text-anchor="middle" x="2609" y="-14.3" font-family="Times,serif" font-size="14.00">Paco</text>
</g>
<!-- Jorge Mist&#45;&gt;Paco -->
<g id="edge35" class="edge">
<title>Jorge Mist&#45;&gt;Paco</title>
<path fill="none" stroke="black" d="M2384.33,-179.61C2429.05,-147.64 2524.39,-79.48 2575.31,-43.09"/>
<polygon fill="black" stroke="black" points="2577.24,-46.01 2583.34,-37.34 2573.17,-40.31 2577.24,-46.01"/>
</g>
<!-- Mariette -->
<g id="node33" class="node">
<title>Mariette</title>
<polygon fill="#c1c9e2" stroke="#c1c9e2" points="2257.5,-36 2194.5,-36 2194.5,0 2257.5,0 2257.5,-36"/>
<text text-anchor="middle" x="2226" y="-14.3" font-family="Times,serif" font-size="14.00">Mariette</text>
</g>
<!-- Jorge Mist&#45;&gt;Mariette -->
<g id="edge36" class="edge">
<title>Jorge Mist&#45;&gt;Mariette</title>
<path fill="none" stroke="black" d="M2346.91,-179.61C2323.39,-148.37 2273.87,-82.58 2246.05,-45.63"/>
<polygon fill="black" stroke="black" points="2248.87,-43.56 2240.06,-37.67 2243.27,-47.77 2248.87,-43.56"/>
</g>
<!-- Lili -->
<g id="node34" class="node">
<title>Lili</title>
<polygon fill="#c1c9e2" stroke="#c1c9e2" points="2762,-36 2708,-36 2708,0 2762,0 2762,-36"/>
<text text-anchor="middle" x="2735" y="-14.3" font-family="Times,serif" font-size="14.00">Lili</text>
</g>
<!-- Jorge Mist&#45;&gt;Lili -->
<g id="edge37" class="edge">
<title>Jorge Mist&#45;&gt;Lili</title>
<path fill="none" stroke="black" d="M2396.64,-179.61C2468.13,-145.67 2625.53,-70.96 2697.61,-36.75"/>
<polygon fill="black" stroke="black" points="2698.71,-40.1 2706.24,-32.65 2695.71,-33.78 2698.71,-40.1"/>
</g>
<!-- Nicolas -->
<g id="node10" class="node">
<title>Nicolas</title>
<polygon fill="#c1c9e2" stroke="#c1c9e2" points="956,-36 898,-36 898,0 956,0 956,-36"/>
<text text-anchor="middle" x="927" y="-14.3" font-family="Times,serif" font-size="14.00">Nicolas</text>
</g>
<!-- Logan Sharks&#45;&gt;Nicolas -->
<g id="edge46" class="edge">
<title>Logan Sharks&#45;&gt;Nicolas</title>
<path fill="none" stroke="black" d="M1126.41,-179.61C1086.88,-147.77 1002.8,-80.05 957.47,-43.54"/>
<polygon fill="black" stroke="black" points="959.84,-40.96 949.86,-37.41 955.45,-46.41 959.84,-40.96"/>
</g>
<!-- Thomas -->
<g id="node11" class="node">
<title>Thomas</title>
<polygon fill="#c1c9e2" stroke="#c1c9e2" points="825.5,-36 764.5,-36 764.5,0 825.5,0 825.5,-36"/>
<text text-anchor="middle" x="795" y="-14.3" font-family="Times,serif" font-size="14.00">Thomas</text>
</g>
<!-- Logan Sharks&#45;&gt;Thomas -->
<g id="edge47" class="edge">
<title>Logan Sharks&#45;&gt;Thomas</title>
<path fill="none" stroke="black" d="M1113.51,-179.61C1048,-146.57 905.87,-74.9 835.77,-39.56"/>
<polygon fill="black" stroke="black" points="837.42,-36.47 826.92,-35.09 834.27,-42.72 837.42,-36.47"/>
</g>
<!-- Flo3 -->
<g id="node12" class="node">
<title>Flo3</title>
<polygon fill="#c1c9e2" stroke="#c1c9e2" points="692,-36 638,-36 638,0 692,0 692,-36"/>
<text text-anchor="middle" x="665" y="-14.3" font-family="Times,serif" font-size="14.00">Flo3</text>
</g>
<!-- Logan Sharks&#45;&gt;Flo3 -->
<g id="edge48" class="edge">
<title>Logan Sharks&#45;&gt;Flo3</title>
<path fill="none" stroke="black" d="M1101.69,-179.93C1006.57,-144.88 790.8,-65.36 703.11,-33.05"/>
<polygon fill="black" stroke="black" points="704.36,-29.77 693.76,-29.6 701.94,-36.34 704.36,-29.77"/>
</g>
<!-- Matthieu Sharks&#45;&gt;Lili -->
<g id="edge49" class="edge">
<title>Matthieu Sharks&#45;&gt;Lili</title>
<path fill="none" stroke="black" d="M2735,-179.61C2735,-148.9 2735,-84.81 2735,-47.54"/>
<polygon fill="black" stroke="black" points="2738.5,-47.98 2735,-37.98 2731.5,-47.98 2738.5,-47.98"/>
</g>
<!-- Camille -->
<g id="node41" class="node">
<title>Camille</title>
<polygon fill="#c1c9e2" stroke="#c1c9e2" points="2894,-36 2834,-36 2834,0 2894,0 2894,-36"/>
<text text-anchor="middle" x="2864" y="-14.3" font-family="Times,serif" font-size="14.00">Camille</text>
</g>
<!-- Matthieu Sharks&#45;&gt;Camille -->
<g id="edge50" class="edge">
<title>Matthieu Sharks&#45;&gt;Camille</title>
<path fill="none" stroke="black" d="M2747.6,-179.61C2770.24,-148.37 2817.92,-82.58 2844.7,-45.63"/>
<polygon fill="black" stroke="black" points="2847.42,-47.84 2850.46,-37.69 2841.75,-43.73 2847.42,-47.84"/>
</g>
<!-- Anaïs2 -->
<g id="node42" class="node">
<title>Anaïs2</title>
<polygon fill="#c1c9e2" stroke="#c1c9e2" points="2384,-36 2330,-36 2330,0 2384,0 2384,-36"/>
<text text-anchor="middle" x="2357" y="-14.3" font-family="Times,serif" font-size="14.00">Anaïs</text>
</g>
<!-- Paul Sharks&#45;&gt;Anaïs2 -->
<g id="edge53" class="edge">
<title>Paul Sharks&#45;&gt;Anaïs2</title>
<path fill="none" stroke="black" d="M2500.46,-179.61C2472.32,-148.1 2412.79,-81.46 2379.95,-44.69"/>
<polygon fill="black" stroke="black" points="2382.88,-42.72 2373.61,-37.59 2377.66,-47.38 2382.88,-42.72"/>
</g>
<!-- Melvin -->
<g id="node44" class="node">
<title>Melvin</title>
<polygon fill="#c1c9e2" stroke="#c1c9e2" points="3022,-36 2966,-36 2966,0 3022,0 3022,-36"/>
<text text-anchor="middle" x="2994" y="-14.3" font-family="Times,serif" font-size="14.00">Melvin</text>
</g>
<!-- Paul Sharks&#45;&gt;Melvin -->
<g id="edge54" class="edge">
<title>Paul Sharks&#45;&gt;Melvin</title>
<path fill="none" stroke="black" d="M2556.75,-181.82C2647.58,-148 2865.62,-66.81 2954.89,-33.56"/>
<polygon fill="black" stroke="black" points="2956.05,-36.87 2964.2,-30.1 2953.6,-30.31 2956.05,-36.87"/>
</g>
<!-- Gaspard Valhall&#39;Art -->
<g id="node6" class="node">
<title>Gaspard Valhall&#39;Art</title>
<polygon fill="#00bfff" stroke="#c1c9e2" points="2382.5,-396 2259.5,-396 2259.5,-360 2382.5,-360 2382.5,-396"/>
<text text-anchor="middle" x="2321" y="-374.3" font-family="Times,serif" font-size="14.00">Gaspard Valhall&#39;Art</text>
</g>
<!-- Gaspard Valhall&#39;Art&#45;&gt;Jorge Mist -->
<g id="edge5" class="edge">
<title>Gaspard Valhall&#39;Art&#45;&gt;Jorge Mist</title>
<path fill="none" stroke="black" d="M2324.81,-359.61C2331.54,-328.9 2345.58,-264.81 2353.75,-227.54"/>
<polygon fill="black" stroke="black" points="2357.13,-228.46 2355.85,-217.94 2350.29,-226.96 2357.13,-228.46"/>
</g>
<!-- Gaspard Valhall&#39;Art&#45;&gt;Logan Sharks -->
<g id="edge6" class="edge">
<title>Gaspard Valhall&#39;Art&#45;&gt;Logan Sharks</title>
<path fill="none" stroke="black" d="M2259.28,-369.17C2092.71,-347.75 1620.24,-285.19 1230,-216 1222.03,-214.59 1213.64,-212.98 1205.4,-211.34"/>
<polygon fill="black" stroke="black" points="1206.29,-207.95 1195.79,-209.39 1204.9,-214.81 1206.29,-207.95"/>
</g>
<!-- Clovis Sharks -->
<g id="node7" class="node">
<title>Clovis Sharks</title>
<polygon fill="#bdabda" stroke="#c1c9e2" points="2237,-216 2145,-216 2145,-180 2237,-180 2237,-216"/>
<text text-anchor="middle" x="2191" y="-194.3" font-family="Times,serif" font-size="14.00">Clovis Sharks</text>
</g>
<!-- Gaspard Valhall&#39;Art&#45;&gt;Clovis Sharks -->
<g id="edge7" class="edge">
<title>Gaspard Valhall&#39;Art&#45;&gt;Clovis Sharks</title>
<path fill="none" stroke="black" d="M2308.3,-359.61C2285.48,-328.37 2237.44,-262.58 2210.45,-225.63"/>
<polygon fill="black" stroke="black" points="2213.37,-223.7 2204.65,-217.68 2207.72,-227.82 2213.37,-223.7"/>
</g>
<!-- Gabriel Katan&#39;Art -->
<g id="node8" class="node">
<title>Gabriel Katan&#39;Art</title>
<polygon fill="#ffcba4" stroke="#c1c9e2" points="3011.5,-216 2898.5,-216 2898.5,-180 3011.5,-180 3011.5,-216"/>
<text text-anchor="middle" x="2955" y="-194.3" font-family="Times,serif" font-size="14.00">Gabriel Katan&#39;Art</text>
</g>
<!-- Gaspard Valhall&#39;Art&#45;&gt;Gabriel Katan&#39;Art -->
<g id="edge8" class="edge">
<title>Gaspard Valhall&#39;Art&#45;&gt;Gabriel Katan&#39;Art</title>
<path fill="none" stroke="black" d="M2382.94,-359.61C2502.41,-326.07 2763.77,-252.69 2887.5,-217.95"/>
<polygon fill="black" stroke="black" points="2888.18,-221.4 2896.86,-215.32 2886.29,-214.66 2888.18,-221.4"/>
</g>
<!-- Clovis Sharks&#45;&gt;Anaïs2 -->
<g id="edge51" class="edge">
<title>Clovis Sharks&#45;&gt;Anaïs2</title>
<path fill="none" stroke="black" d="M2207.22,-179.61C2236.6,-148.1 2298.75,-81.46 2333.04,-44.69"/>
<polygon fill="black" stroke="black" points="2335.42,-47.27 2339.68,-37.57 2330.3,-42.5 2335.42,-47.27"/>
</g>
<!-- Amaël -->
<g id="node43" class="node">
<title>Amaël</title>
<polygon fill="#c1c9e2" stroke="#c1c9e2" points="1610,-36 1556,-36 1556,0 1610,0 1610,-36"/>
<text text-anchor="middle" x="1583" y="-14.3" font-family="Times,serif" font-size="14.00">Amaël</text>
</g>
<!-- Clovis Sharks&#45;&gt;Amaël -->
<g id="edge52" class="edge">
<title>Clovis Sharks&#45;&gt;Amaël</title>
<path fill="none" stroke="black" d="M2144.55,-183.4C2028.58,-149.45 1727.98,-61.45 1621.27,-30.2"/>
<polygon fill="black" stroke="black" points="1622.43,-26.9 1611.85,-27.45 1620.46,-33.61 1622.43,-26.9"/>
</g>
<!-- Gabriel Katan&#39;Art&#45;&gt;Melvin -->
<g id="edge55" class="edge">
<title>Gabriel Katan&#39;Art&#45;&gt;Melvin</title>
<path fill="none" stroke="black" d="M2958.81,-179.61C2965.54,-148.9 2979.58,-84.81 2987.75,-47.54"/>
<polygon fill="black" stroke="black" points="2991.13,-48.46 2989.85,-37.94 2984.29,-46.96 2991.13,-48.46"/>
</g>
<!-- Julien -->
<g id="node45" class="node">
<title>Julien</title>
<polygon fill="#c1c9e2" stroke="#c1c9e2" points="3148,-36 3094,-36 3094,0 3148,0 3148,-36"/>
<text text-anchor="middle" x="3121" y="-14.3" font-family="Times,serif" font-size="14.00">Julien</text>
</g>
<!-- Gabriel Katan&#39;Art&#45;&gt;Julien -->
<g id="edge56" class="edge">
<title>Gabriel Katan&#39;Art&#45;&gt;Julien</title>
<path fill="none" stroke="black" d="M2971.22,-179.61C3000.6,-148.1 3062.75,-81.46 3097.04,-44.69"/>
<polygon fill="black" stroke="black" points="3099.42,-47.27 3103.68,-37.57 3094.3,-42.5 3099.42,-47.27"/>
</g>
<!-- Lucie Sharks -->
<g id="node9" class="node">
<title>Lucie Sharks</title>
<polygon fill="#bdabda" stroke="#c1c9e2" points="850,-216 762,-216 762,-180 850,-180 850,-216"/>
<text text-anchor="middle" x="806" y="-194.3" font-family="Times,serif" font-size="14.00">Lucie Sharks</text>
</g>
<!-- Lucie Sharks&#45;&gt;Nicolas -->
<g id="edge9" class="edge">
<title>Lucie Sharks&#45;&gt;Nicolas</title>
<path fill="none" stroke="black" d="M817.82,-179.61C839.06,-148.37 883.78,-82.58 908.9,-45.63"/>
<polygon fill="black" stroke="black" points="911.55,-47.95 914.28,-37.71 905.76,-44.02 911.55,-47.95"/>
</g>
<!-- Lucie Sharks&#45;&gt;Thomas -->
<g id="edge10" class="edge">
<title>Lucie Sharks&#45;&gt;Thomas</title>
<path fill="none" stroke="black" d="M804.93,-179.61C803.03,-148.9 799.07,-84.81 796.76,-47.54"/>
<polygon fill="black" stroke="black" points="800.28,-47.74 796.17,-37.97 793.3,-48.17 800.28,-47.74"/>
</g>
<!-- Lucie Sharks&#45;&gt;Flo3 -->
<g id="edge11" class="edge">
<title>Lucie Sharks&#45;&gt;Flo3</title>
<path fill="none" stroke="black" d="M792.22,-179.61C767.37,-148.24 714.92,-82.02 685.72,-45.16"/>
<polygon fill="black" stroke="black" points="688.72,-43.31 679.77,-37.65 683.24,-47.66 688.72,-43.31"/>
</g>
<!-- Lalie Valhall&#39;Art -->
<g id="node13" class="node">
<title>Lalie Valhall&#39;Art</title>
<polygon fill="#00bfff" stroke="#c1c9e2" points="1515,-396 1409,-396 1409,-360 1515,-360 1515,-396"/>
<text text-anchor="middle" x="1462" y="-374.3" font-family="Times,serif" font-size="14.00">Lalie Valhall&#39;Art</text>
</g>
<!-- Lalie Valhall&#39;Art&#45;&gt;Logan Sharks -->
<g id="edge12" class="edge">
<title>Lalie Valhall&#39;Art&#45;&gt;Logan Sharks</title>
<path fill="none" stroke="black" d="M1431.32,-359.61C1374.34,-327.31 1252.19,-258.06 1188.5,-221.96"/>
<polygon fill="black" stroke="black" points="1190.55,-219.1 1180.12,-217.21 1187.09,-225.18 1190.55,-219.1"/>
</g>
<!-- Virgile Sharks -->
<g id="node14" class="node">
<title>Virgile Sharks</title>
<polygon fill="#bdabda" stroke="#c1c9e2" points="1847.5,-216 1752.5,-216 1752.5,-180 1847.5,-180 1847.5,-216"/>
<text text-anchor="middle" x="1800" y="-194.3" font-family="Times,serif" font-size="14.00">Virgile Sharks</text>
</g>
<!-- Lalie Valhall&#39;Art&#45;&gt;Virgile Sharks -->
<g id="edge13" class="edge">
<title>Lalie Valhall&#39;Art&#45;&gt;Virgile Sharks</title>
<path fill="none" stroke="black" d="M1495.02,-359.61C1556.49,-327.24 1688.39,-257.78 1756.82,-221.74"/>
<polygon fill="black" stroke="black" points="1758.29,-224.92 1765.5,-217.17 1755.02,-218.73 1758.29,-224.92"/>
</g>
<!-- Lucas Sharks -->
<g id="node15" class="node">
<title>Lucas Sharks</title>
<polygon fill="#bdabda" stroke="#c1c9e2" points="1355.5,-216 1266.5,-216 1266.5,-180 1355.5,-180 1355.5,-216"/>
<text text-anchor="middle" x="1311" y="-194.3" font-family="Times,serif" font-size="14.00">Lucas Sharks</text>
</g>
<!-- Lalie Valhall&#39;Art&#45;&gt;Lucas Sharks -->
<g id="edge14" class="edge">
<title>Lalie Valhall&#39;Art&#45;&gt;Lucas Sharks</title>
<path fill="none" stroke="black" d="M1447.25,-359.61C1420.63,-328.24 1364.46,-262.02 1333.19,-225.16"/>
<polygon fill="black" stroke="black" points="1335.93,-222.98 1326.79,-217.62 1330.59,-227.51 1335.93,-222.98"/>
</g>
<!-- Nils Mist -->
<g id="node16" class="node">
<title>Nils Mist</title>
<polygon fill="#9e0e40" stroke="#c1c9e2" points="1496,-216 1428,-216 1428,-180 1496,-180 1496,-216"/>
<text text-anchor="middle" x="1462" y="-194.3" font-family="Times,serif" font-size="14.00">Nils Mist</text>
</g>
<!-- Lalie Valhall&#39;Art&#45;&gt;Nils Mist -->
<g id="edge15" class="edge">
<title>Lalie Valhall&#39;Art&#45;&gt;Nils Mist</title>
<path fill="none" stroke="black" d="M1462,-359.61C1462,-328.9 1462,-264.81 1462,-227.54"/>
<polygon fill="black" stroke="black" points="1465.5,-227.98 1462,-217.98 1458.5,-227.98 1465.5,-227.98"/>
</g>
<!-- Mathis Mist -->
<g id="node17" class="node">
<title>Mathis Mist</title>
<polygon fill="#9e0e40" stroke="#c1c9e2" points="1652,-216 1568,-216 1568,-180 1652,-180 1652,-216"/>
<text text-anchor="middle" x="1610" y="-194.3" font-family="Times,serif" font-size="14.00">Mathis Mist</text>
</g>
<!-- Lalie Valhall&#39;Art&#45;&gt;Mathis Mist -->
<g id="edge16" class="edge">
<title>Lalie Valhall&#39;Art&#45;&gt;Mathis Mist</title>
<path fill="none" stroke="black" d="M1476.46,-359.61C1502.54,-328.24 1557.6,-262.02 1588.25,-225.16"/>
<polygon fill="black" stroke="black" points="1590.81,-227.55 1594.51,-217.63 1585.43,-223.08 1590.81,-227.55"/>
</g>
<!-- Virgile Sharks&#45;&gt;Alys -->
<g id="edge38" class="edge">
<title>Virgile Sharks&#45;&gt;Alys</title>
<path fill="none" stroke="black" d="M1828.82,-179.61C1882.68,-147.11 1998.52,-77.21 2058.04,-41.3"/>
<polygon fill="black" stroke="black" points="2059.73,-44.37 2066.49,-36.21 2056.11,-38.38 2059.73,-44.37"/>
</g>
<!-- Clément -->
<g id="node35" class="node">
<title>Clément</title>
<polygon fill="#c1c9e2" stroke="#c1c9e2" points="1483.5,-36 1420.5,-36 1420.5,0 1483.5,0 1483.5,-36"/>
<text text-anchor="middle" x="1452" y="-14.3" font-family="Times,serif" font-size="14.00">Clément</text>
</g>
<!-- Virgile Sharks&#45;&gt;Clément -->
<g id="edge39" class="edge">
<title>Virgile Sharks&#45;&gt;Clément</title>
<path fill="none" stroke="black" d="M1766,-179.61C1701.9,-146.82 1563.41,-75.99 1493.77,-40.37"/>
<polygon fill="black" stroke="black" points="1495.45,-37.3 1484.96,-35.86 1492.27,-43.53 1495.45,-37.3"/>
</g>
<!-- Adam -->
<g id="node36" class="node">
<title>Adam</title>
<polygon fill="#c1c9e2" stroke="#c1c9e2" points="1864,-36 1810,-36 1810,0 1864,0 1864,-36"/>
<text text-anchor="middle" x="1837" y="-14.3" font-family="Times,serif" font-size="14.00">Adam</text>
</g>
<!-- Virgile Sharks&#45;&gt;Adam -->
<g id="edge40" class="edge">
<title>Virgile Sharks&#45;&gt;Adam</title>
<path fill="none" stroke="black" d="M1803.62,-179.61C1810,-148.9 1823.32,-84.81 1831.07,-47.54"/>
<polygon fill="black" stroke="black" points="1834.45,-48.45 1833.06,-37.94 1827.6,-47.02 1834.45,-48.45"/>
</g>
<!-- Laurine -->
<g id="node37" class="node">
<title>Laurine</title>
<polygon fill="#c1c9e2" stroke="#c1c9e2" points="1995.5,-36 1936.5,-36 1936.5,0 1995.5,0 1995.5,-36"/>
<text text-anchor="middle" x="1966" y="-14.3" font-family="Times,serif" font-size="14.00">Laurine</text>
</g>
<!-- Virgile Sharks&#45;&gt;Laurine -->
<g id="edge41" class="edge">
<title>Virgile Sharks&#45;&gt;Laurine</title>
<path fill="none" stroke="black" d="M1816.22,-179.61C1845.6,-148.1 1907.75,-81.46 1942.04,-44.69"/>
<polygon fill="black" stroke="black" points="1944.42,-47.27 1948.68,-37.57 1939.3,-42.5 1944.42,-47.27"/>
</g>
<!-- Gaétan -->
<g id="node38" class="node">
<title>Gaétan</title>
<polygon fill="#c1c9e2" stroke="#c1c9e2" points="1737.5,-36 1682.5,-36 1682.5,0 1737.5,0 1737.5,-36"/>
<text text-anchor="middle" x="1710" y="-14.3" font-family="Times,serif" font-size="14.00">Gaétan</text>
</g>
<!-- Virgile Sharks&#45;&gt;Gaétan -->
<g id="edge42" class="edge">
<title>Virgile Sharks&#45;&gt;Gaétan</title>
<path fill="none" stroke="black" d="M1791.21,-179.61C1775.55,-148.64 1742.71,-83.7 1723.95,-46.58"/>
<polygon fill="black" stroke="black" points="1727.15,-45.16 1719.51,-37.81 1720.9,-48.32 1727.15,-45.16"/>
</g>
<!-- Lucas Sharks&#45;&gt;Henri -->
<g id="edge57" class="edge">
<title>Lucas Sharks&#45;&gt;Henri</title>
<path fill="none" stroke="black" d="M1311.98,-179.61C1313.7,-148.9 1317.3,-84.81 1319.4,-47.54"/>
<polygon fill="black" stroke="black" points="1322.87,-48.15 1319.93,-37.97 1315.88,-47.76 1322.87,-48.15"/>
</g>
<!-- Lucas Sharks&#45;&gt;Amaël -->
<g id="edge58" class="edge">
<title>Lucas Sharks&#45;&gt;Amaël</title>
<path fill="none" stroke="black" d="M1337.58,-179.61C1386.63,-147.51 1491.44,-78.92 1546.89,-42.63"/>
<polygon fill="black" stroke="black" points="1548.6,-45.7 1555.05,-37.29 1544.77,-39.84 1548.6,-45.7"/>
</g>
<!-- Charlotte -->
<g id="node46" class="node">
<title>Charlotte</title>
<polygon fill="#c1c9e2" stroke="#c1c9e2" points="1095.5,-36 1028.5,-36 1028.5,0 1095.5,0 1095.5,-36"/>
<text text-anchor="middle" x="1062" y="-14.3" font-family="Times,serif" font-size="14.00">Charlotte</text>
</g>
<!-- Lucas Sharks&#45;&gt;Charlotte -->
<g id="edge59" class="edge">
<title>Lucas Sharks&#45;&gt;Charlotte</title>
<path fill="none" stroke="black" d="M1286.67,-179.61C1241.95,-147.64 1146.61,-79.48 1095.69,-43.09"/>
<polygon fill="black" stroke="black" points="1097.83,-40.31 1087.66,-37.34 1093.76,-46.01 1097.83,-40.31"/>
</g>
<!-- Lou -->
<g id="node47" class="node">
<title>Lou</title>
<polygon fill="#c1c9e2" stroke="#c1c9e2" points="1222,-36 1168,-36 1168,0 1222,0 1222,-36"/>
<text text-anchor="middle" x="1195" y="-14.3" font-family="Times,serif" font-size="14.00">Lou</text>
</g>
<!-- Lucas Sharks&#45;&gt;Lou -->
<g id="edge60" class="edge">
<title>Lucas Sharks&#45;&gt;Lou</title>
<path fill="none" stroke="black" d="M1299.67,-179.61C1279.4,-148.5 1236.8,-83.14 1212.66,-46.11"/>
<polygon fill="black" stroke="black" points="1215.6,-44.2 1207.21,-37.73 1209.73,-48.02 1215.6,-44.2"/>
</g>
<!-- Nils Mist&#45;&gt;Clément -->
<g id="edge61" class="edge">
<title>Nils Mist&#45;&gt;Clément</title>
<path fill="none" stroke="black" d="M1461.02,-179.61C1459.3,-148.9 1455.7,-84.81 1453.6,-47.54"/>
<polygon fill="black" stroke="black" points="1457.12,-47.76 1453.07,-37.97 1450.13,-48.15 1457.12,-47.76"/>
</g>
<!-- Quentin Valhall&#39;Art -->
<g id="node18" class="node">
<title>Quentin Valhall&#39;Art</title>
<polygon fill="#00bfff" stroke="#c1c9e2" points="2985,-396 2863,-396 2863,-360 2985,-360 2985,-396"/>
<text text-anchor="middle" x="2924" y="-374.3" font-family="Times,serif" font-size="14.00">Quentin Valhall&#39;Art</text>
</g>
<!-- Olivier Katan&#39;Art -->
<g id="node19" class="node">
<title>Olivier Katan&#39;Art</title>
<polygon fill="#ffcba4" stroke="#c1c9e2" points="3194.5,-216 3083.5,-216 3083.5,-180 3194.5,-180 3194.5,-216"/>
<text text-anchor="middle" x="3139" y="-194.3" font-family="Times,serif" font-size="14.00">Olivier Katan&#39;Art</text>
</g>
<!-- Quentin Valhall&#39;Art&#45;&gt;Olivier Katan&#39;Art -->
<g id="edge17" class="edge">
<title>Quentin Valhall&#39;Art&#45;&gt;Olivier Katan&#39;Art</title>
<path fill="none" stroke="black" d="M2945.01,-359.61C2983.38,-327.84 3064.92,-260.33 3109.08,-223.77"/>
<polygon fill="black" stroke="black" points="3111.27,-226.5 3116.74,-217.43 3106.81,-221.11 3111.27,-226.5"/>
</g>
<!-- Maxime Pulsar -->
<g id="node20" class="node">
<title>Maxime Pulsar</title>
<polygon fill="#a300a3" stroke="#c1c9e2" points="2371.5,-576 2270.5,-576 2270.5,-540 2371.5,-540 2371.5,-576"/>
<text text-anchor="middle" x="2321" y="-554.3" font-family="Times,serif" font-size="14.00">Maxime Pulsar</text>
</g>
<!-- Maxime Pulsar&#45;&gt;Antoine Valhall&#39;Art -->
<g id="edge18" class="edge">
<title>Maxime Pulsar&#45;&gt;Antoine Valhall&#39;Art</title>
<path fill="none" stroke="black" d="M2340.05,-539.61C2374.78,-507.91 2448.5,-440.61 2488.61,-404"/>
<polygon fill="black" stroke="black" points="2490.73,-406.81 2495.75,-397.48 2486.01,-401.64 2490.73,-406.81"/>
</g>
<!-- Maxime Pulsar&#45;&gt;Gaspard Valhall&#39;Art -->
<g id="edge19" class="edge">
<title>Maxime Pulsar&#45;&gt;Gaspard Valhall&#39;Art</title>
<path fill="none" stroke="black" d="M2321,-539.61C2321,-508.9 2321,-444.81 2321,-407.54"/>
<polygon fill="black" stroke="black" points="2324.5,-407.98 2321,-397.98 2317.5,-407.98 2324.5,-407.98"/>
</g>
<!-- Maxime Pulsar&#45;&gt;Clovis Sharks -->
<g id="edge20" class="edge">
<title>Maxime Pulsar&#45;&gt;Clovis Sharks</title>
<path fill="none" stroke="black" d="M2307.41,-539.82C2285.82,-511.58 2243.98,-452.78 2223,-396 2201.82,-338.69 2194.64,-266.86 2192.22,-227.71"/>
<polygon fill="black" stroke="black" points="2195.72,-227.73 2191.68,-217.94 2188.73,-228.12 2195.72,-227.73"/>
</g>
<!-- Maxime Pulsar&#45;&gt;Lalie Valhall&#39;Art -->
<g id="edge21" class="edge">
<title>Maxime Pulsar&#45;&gt;Lalie Valhall&#39;Art</title>
<path fill="none" stroke="black" d="M2270.16,-546.46C2121.92,-515.75 1690.32,-426.31 1526.29,-392.32"/>
<polygon fill="black" stroke="black" points="1527.39,-388.98 1516.89,-390.37 1525.97,-395.83 1527.39,-388.98"/>
</g>
<!-- Maxime Pulsar&#45;&gt;Quentin Valhall&#39;Art -->
<g id="edge22" class="edge">
<title>Maxime Pulsar&#45;&gt;Quentin Valhall&#39;Art</title>
<path fill="none" stroke="black" d="M2371.89,-541.98C2479.8,-510.12 2731.69,-435.77 2854.37,-399.55"/>
<polygon fill="black" stroke="black" points="2855.07,-403 2863.67,-396.81 2853.09,-396.28 2855.07,-403"/>
</g>
<!-- Yanis Pulsar -->
<g id="node21" class="node">
<title>Yanis Pulsar</title>
<polygon fill="#a300a3" stroke="#c1c9e2" points="1267.5,-576 1182.5,-576 1182.5,-540 1267.5,-540 1267.5,-576"/>
<text text-anchor="middle" x="1225" y="-554.3" font-family="Times,serif" font-size="14.00">Yanis Pulsar</text>
</g>
<!-- Yanis Pulsar&#45;&gt;Lalie Valhall&#39;Art -->
<g id="edge23" class="edge">
<title>Yanis Pulsar&#45;&gt;Lalie Valhall&#39;Art</title>
<path fill="none" stroke="black" d="M1248.16,-539.61C1290.63,-507.71 1381.09,-439.77 1429.63,-403.31"/>
<polygon fill="black" stroke="black" points="1431.65,-406.18 1437.54,-397.37 1427.44,-400.58 1431.65,-406.18"/>
</g>
<!-- Robin Horn -->
<g id="node22" class="node">
<title>Robin Horn</title>
<polygon fill="#f2be00" stroke="#c1c9e2" points="1027.5,-396 946.5,-396 946.5,-360 1027.5,-360 1027.5,-396"/>
<text text-anchor="middle" x="987" y="-374.3" font-family="Times,serif" font-size="14.00">Robin Horn</text>
</g>
<!-- Yanis Pulsar&#45;&gt;Robin Horn -->
<g id="edge24" class="edge">
<title>Yanis Pulsar&#45;&gt;Robin Horn</title>
<path fill="none" stroke="black" d="M1201.75,-539.61C1159.09,-507.71 1068.25,-439.77 1019.51,-403.31"/>
<polygon fill="black" stroke="black" points="1021.66,-400.56 1011.56,-397.37 1017.47,-406.16 1021.66,-400.56"/>
</g>
<!-- Vincent Valhall&#39;Art -->
<g id="node23" class="node">
<title>Vincent Valhall&#39;Art</title>
<polygon fill="#00bfff" stroke="#c1c9e2" points="599.5,-396 478.5,-396 478.5,-360 599.5,-360 599.5,-396"/>
<text text-anchor="middle" x="539" y="-374.3" font-family="Times,serif" font-size="14.00">Vincent Valhall&#39;Art</text>
</g>
<!-- Yanis Pulsar&#45;&gt;Vincent Valhall&#39;Art -->
<g id="edge25" class="edge">
<title>Yanis Pulsar&#45;&gt;Vincent Valhall&#39;Art</title>
<path fill="none" stroke="black" d="M1182.09,-545.87C1067.45,-516.12 753.13,-434.56 610.76,-397.62"/>
<polygon fill="black" stroke="black" points="612.01,-394.33 601.45,-395.2 610.25,-401.1 612.01,-394.33"/>
</g>
<!-- Thaïs Dice -->
<g id="node24" class="node">
<title>Thaïs Dice</title>
<polygon fill="#ff4d5c" stroke="#c1c9e2" points="1847,-396 1771,-396 1771,-360 1847,-360 1847,-396"/>
<text text-anchor="middle" x="1809" y="-374.3" font-family="Times,serif" font-size="14.00">Thaïs Dice</text>
</g>
<!-- Yanis Pulsar&#45;&gt;Thaïs Dice -->
<g id="edge26" class="edge">
<title>Yanis Pulsar&#45;&gt;Thaïs Dice</title>
<path fill="none" stroke="black" d="M1267.94,-543.91C1373.88,-511.62 1647.24,-428.3 1759.63,-394.05"/>
<polygon fill="black" stroke="black" points="1760.63,-397.4 1769.18,-391.14 1758.59,-390.71 1760.63,-397.4"/>
</g>
<!-- Robin Horn&#45;&gt;Lucie Sharks -->
<g id="edge28" class="edge">
<title>Robin Horn&#45;&gt;Lucie Sharks</title>
<path fill="none" stroke="black" d="M969.32,-359.61C937.15,-327.97 868.94,-260.9 831.66,-224.23"/>
<polygon fill="black" stroke="black" points="834.42,-222.04 824.84,-217.52 829.51,-227.03 834.42,-222.04"/>
</g>
<!-- Adrien Gold -->
<g id="node26" class="node">
<title>Adrien Gold</title>
<polygon fill="#ffffff" stroke="#c1c9e2" points="1029.5,-216 944.5,-216 944.5,-180 1029.5,-180 1029.5,-216"/>
<text text-anchor="middle" x="987" y="-194.3" font-family="Times,serif" font-size="14.00">Adrien Gold</text>
</g>
<!-- Robin Horn&#45;&gt;Adrien Gold -->
<g id="edge29" class="edge">
<title>Robin Horn&#45;&gt;Adrien Gold</title>
<path fill="none" stroke="black" d="M987,-359.61C987,-328.9 987,-264.81 987,-227.54"/>
<polygon fill="black" stroke="black" points="990.5,-227.98 987,-217.98 983.5,-227.98 990.5,-227.98"/>
</g>
<!-- Flavien Sharks -->
<g id="node27" class="node">
<title>Flavien Sharks</title>
<polygon fill="#bdabda" stroke="#c1c9e2" points="588,-216 490,-216 490,-180 588,-180 588,-216"/>
<text text-anchor="middle" x="539" y="-194.3" font-family="Times,serif" font-size="14.00">Flavien Sharks</text>
</g>
<!-- Vincent Valhall&#39;Art&#45;&gt;Flavien Sharks -->
<g id="edge30" class="edge">
<title>Vincent Valhall&#39;Art&#45;&gt;Flavien Sharks</title>
<path fill="none" stroke="black" d="M539,-359.61C539,-328.9 539,-264.81 539,-227.54"/>
<polygon fill="black" stroke="black" points="542.5,-227.98 539,-217.98 535.5,-227.98 542.5,-227.98"/>
</g>
<!-- Zoé Mist -->
<g id="node28" class="node">
<title>Zoé Mist</title>
<polygon fill="#9e0e40" stroke="#c1c9e2" points="319.5,-216 252.5,-216 252.5,-180 319.5,-180 319.5,-216"/>
<text text-anchor="middle" x="286" y="-194.3" font-family="Times,serif" font-size="14.00">Zoé Mist</text>
</g>
<!-- Vincent Valhall&#39;Art&#45;&gt;Zoé Mist -->
<g id="edge31" class="edge">
<title>Vincent Valhall&#39;Art&#45;&gt;Zoé Mist</title>
<path fill="none" stroke="black" d="M514.28,-359.61C468.84,-327.64 371.97,-259.48 320.23,-223.09"/>
<polygon fill="black" stroke="black" points="322.25,-220.22 312.06,-217.33 318.22,-225.95 322.25,-220.22"/>
</g>
<!-- Théo Gold -->
<g id="node25" class="node">
<title>Théo Gold</title>
<polygon fill="#ffffff" stroke="#c1c9e2" points="2047.5,-216 1972.5,-216 1972.5,-180 2047.5,-180 2047.5,-216"/>
<text text-anchor="middle" x="2010" y="-194.3" font-family="Times,serif" font-size="14.00">Théo Gold</text>
</g>
<!-- Thaïs Dice&#45;&gt;Théo Gold -->
<g id="edge27" class="edge">
<title>Thaïs Dice&#45;&gt;Théo Gold</title>
<path fill="none" stroke="black" d="M1828.64,-359.61C1864.44,-327.91 1940.42,-260.61 1981.77,-224"/>
<polygon fill="black" stroke="black" points="1983.98,-226.72 1989.15,-217.47 1979.34,-221.48 1983.98,-226.72"/>
</g>
<!-- Théo Gold&#45;&gt;Mariette -->
<g id="edge67" class="edge">
<title>Théo Gold&#45;&gt;Mariette</title>
<path fill="none" stroke="black" d="M2031.1,-179.61C2069.66,-147.84 2151.57,-80.33 2195.94,-43.77"/>
<polygon fill="black" stroke="black" points="2198.15,-46.49 2203.64,-37.42 2193.7,-41.08 2198.15,-46.49"/>
</g>
<!-- Adrien Gold&#45;&gt;Charlotte -->
<g id="edge66" class="edge">
<title>Adrien Gold&#45;&gt;Charlotte</title>
<path fill="none" stroke="black" d="M994.33,-179.61C1007.32,-148.77 1034.5,-84.26 1050.18,-47.06"/>
<polygon fill="black" stroke="black" points="1053.4,-48.43 1054.05,-37.86 1046.95,-45.71 1053.4,-48.43"/>
</g>
<!-- Flavien Sharks&#45;&gt;Henri -->
<g id="edge43" class="edge">
<title>Flavien Sharks&#45;&gt;Henri</title>
<path fill="none" stroke="black" d="M588.42,-186.7C705.25,-162.2 1007.44,-97.83 1258,-36 1266.09,-34 1274.73,-31.75 1282.94,-29.55"/>
<polygon fill="black" stroke="black" points="1283.58,-33.01 1292.32,-27.02 1281.75,-26.25 1283.58,-33.01"/>
</g>
<!-- Anaïs1 -->
<g id="node39" class="node">
<title>Anaïs1</title>
<polygon fill="#c1c9e2" stroke="#c1c9e2" points="440,-36 386,-36 386,0 440,0 440,-36"/>
<text text-anchor="middle" x="413" y="-14.3" font-family="Times,serif" font-size="14.00">Anaïs</text>
</g>
<!-- Flavien Sharks&#45;&gt;Anaïs1 -->
<g id="edge44" class="edge">
<title>Flavien Sharks&#45;&gt;Anaïs1</title>
<path fill="none" stroke="black" d="M526.69,-179.61C504.58,-148.37 458.01,-82.58 431.85,-45.63"/>
<polygon fill="black" stroke="black" points="434.87,-43.84 426.24,-37.7 429.16,-47.88 434.87,-43.84"/>
</g>
<!-- Sarah -->
<g id="node40" class="node">
<title>Sarah</title>
<polygon fill="#c1c9e2" stroke="#c1c9e2" points="566,-36 512,-36 512,0 566,0 566,-36"/>
<text text-anchor="middle" x="539" y="-14.3" font-family="Times,serif" font-size="14.00">Sarah</text>
</g>
<!-- Flavien Sharks&#45;&gt;Sarah -->
<g id="edge45" class="edge">
<title>Flavien Sharks&#45;&gt;Sarah</title>
<path fill="none" stroke="black" d="M539,-179.61C539,-148.9 539,-84.81 539,-47.54"/>
<polygon fill="black" stroke="black" points="542.5,-47.98 539,-37.98 535.5,-47.98 542.5,-47.98"/>
</g>
<!-- Zoé Mist&#45;&gt;Flo3 -->
<g id="edge62" class="edge">
<title>Zoé Mist&#45;&gt;Flo3</title>
<path fill="none" stroke="black" d="M319.97,-181.05C390.8,-147.78 553.79,-71.23 627.54,-36.59"/>
<polygon fill="black" stroke="black" points="628.82,-39.86 636.38,-32.44 625.84,-33.52 628.82,-39.86"/>
</g>
<!-- Robin -->
<g id="node48" class="node">
<title>Robin</title>
<polygon fill="#c1c9e2" stroke="#c1c9e2" points="54,-36 0,-36 0,0 54,0 54,-36"/>
<text text-anchor="middle" x="27" y="-14.3" font-family="Times,serif" font-size="14.00">Robin</text>
</g>
<!-- Zoé Mist&#45;&gt;Robin -->
<g id="edge63" class="edge">
<title>Zoé Mist&#45;&gt;Robin</title>
<path fill="none" stroke="black" d="M260.69,-179.61C214.08,-147.57 114.59,-79.2 61.72,-42.86"/>
<polygon fill="black" stroke="black" points="63.88,-40.1 53.66,-37.32 59.91,-45.87 63.88,-40.1"/>
</g>
<!-- Antoine -->
<g id="node49" class="node">
<title>Antoine</title>
<polygon fill="#c1c9e2" stroke="#c1c9e2" points="186,-36 126,-36 126,0 186,0 186,-36"/>
<text text-anchor="middle" x="156" y="-14.3" font-family="Times,serif" font-size="14.00">Antoine</text>
</g>
<!-- Zoé Mist&#45;&gt;Antoine -->
<g id="edge64" class="edge">
<title>Zoé Mist&#45;&gt;Antoine</title>
<path fill="none" stroke="black" d="M273.3,-179.61C250.48,-148.37 202.44,-82.58 175.45,-45.63"/>
<polygon fill="black" stroke="black" points="178.37,-43.7 169.65,-37.68 172.72,-47.82 178.37,-43.7"/>
</g>
<!-- Emélie -->
<g id="node50" class="node">
<title>Emélie</title>
<polygon fill="#c1c9e2" stroke="#c1c9e2" points="314,-36 258,-36 258,0 314,0 314,-36"/>
<text text-anchor="middle" x="286" y="-14.3" font-family="Times,serif" font-size="14.00">Emélie</text>
</g>
<!-- Zoé Mist&#45;&gt;Emélie -->
<g id="edge65" class="edge">
<title>Zoé Mist&#45;&gt;Emélie</title>
<path fill="none" stroke="black" d="M286,-179.61C286,-148.9 286,-84.81 286,-47.54"/>
<polygon fill="black" stroke="black" points="289.5,-47.98 286,-37.98 282.5,-47.98 289.5,-47.98"/>
</g>
</g>
</svg>
