<?xml version="1.0" encoding="UTF-8" standalone="no"?>
<!DOCTYPE svg PUBLIC "-//W3C//DTD SVG 1.1//EN"
 "http://www.w3.org/Graphics/SVG/1.1/DTD/svg11.dtd">
<!-- Generated by graphviz version 6.0.1 (0)
 -->
<!-- Title: G Pages: 1 -->
<svg width="3421pt" height="648pt"
 viewBox="0.00 0.00 3420.50 648.00" xmlns="http://www.w3.org/2000/svg" xmlns:xlink="http://www.w3.org/1999/xlink">
<g id="graph0" class="graph" transform="scale(1 1) rotate(0) translate(36 612)">
<title>G</title>
<polygon fill="white" stroke="none" points="-36,36 -36,-612 3384.5,-612 3384.5,36 -36,36"/>
<!-- Antoine Valhall&#39;Art -->
<g id="node1" class="node">
<title>Antoine Valhall&#39;Art</title>
<polygon fill="#00bfff" stroke="#c1c9e2" points="2657,-396 2535,-396 2535,-360 2657,-360 2657,-396"/>
<text text-anchor="middle" x="2596" y="-374.3" font-family="Times,serif" font-size="14.00">Antoine Valhall&#39;Art</text>
</g>
<!-- Jorge Mist -->
<g id="node2" class="node">
<title>Jorge Mist</title>
<polygon fill="#9e0e40" stroke="#c1c9e2" points="2445.5,-216 2370.5,-216 2370.5,-180 2445.5,-180 2445.5,-216"/>
<text text-anchor="middle" x="2408" y="-194.3" font-family="Times,serif" font-size="14.00">Jorge Mist</text>
</g>
<!-- Antoine Valhall&#39;Art&#45;&gt;Jorge Mist -->
<g id="edge1" class="edge">
<title>Antoine Valhall&#39;Art&#45;&gt;Jorge Mist</title>
<path fill="none" stroke="black" d="M2577.97,-359.93C2544.43,-328.17 2472.31,-259.89 2433.68,-223.32"/>
<polygon fill="black" stroke="black" points="2435.64,-220.35 2425.97,-216.02 2430.83,-225.43 2435.64,-220.35"/>
</g>
<!-- Logan Sharks -->
<g id="node3" class="node">
<title>Logan Sharks</title>
<polygon fill="#bdabda" stroke="#c1c9e2" points="1547,-216 1455,-216 1455,-180 1547,-180 1547,-216"/>
<text text-anchor="middle" x="1501" y="-194.3" font-family="Times,serif" font-size="14.00">Logan Sharks</text>
</g>
<!-- Antoine Valhall&#39;Art&#45;&gt;Logan Sharks -->
<g id="edge2" class="edge">
<title>Antoine Valhall&#39;Art&#45;&gt;Logan Sharks</title>
<path fill="none" stroke="black" d="M2534.74,-368.28C2376.72,-345.58 1942.53,-281.8 1583,-216 1574.67,-214.48 1565.89,-212.77 1557.3,-211.03"/>
<polygon fill="black" stroke="black" points="1557.83,-207.57 1547.33,-209 1556.43,-214.43 1557.83,-207.57"/>
</g>
<!-- Matthieu Sharks -->
<g id="node4" class="node">
<title>Matthieu Sharks</title>
<polygon fill="#bdabda" stroke="#c1c9e2" points="2660.5,-216 2553.5,-216 2553.5,-180 2660.5,-180 2660.5,-216"/>
<text text-anchor="middle" x="2607" y="-194.3" font-family="Times,serif" font-size="14.00">Matthieu Sharks</text>
</g>
<!-- Antoine Valhall&#39;Art&#45;&gt;Matthieu Sharks -->
<g id="edge3" class="edge">
<title>Antoine Valhall&#39;Art&#45;&gt;Matthieu Sharks</title>
<path fill="none" stroke="black" d="M2597.05,-359.93C2598.97,-328.97 2603.03,-263.3 2605.32,-226.13"/>
<polygon fill="black" stroke="black" points="2608.82,-226.21 2605.95,-216.02 2601.84,-225.78 2608.82,-226.21"/>
</g>
<!-- Paul Sharks -->
<g id="node5" class="node">
<title>Paul Sharks</title>
<polygon fill="#bdabda" stroke="#c1c9e2" points="3000.5,-216 2919.5,-216 2919.5,-180 3000.5,-180 3000.5,-216"/>
<text text-anchor="middle" x="2960" y="-194.3" font-family="Times,serif" font-size="14.00">Paul Sharks</text>
</g>
<!-- Antoine Valhall&#39;Art&#45;&gt;Paul Sharks -->
<g id="edge4" class="edge">
<title>Antoine Valhall&#39;Art&#45;&gt;Paul Sharks</title>
<path fill="none" stroke="black" d="M2630.9,-359.93C2697.49,-327.37 2842.53,-256.44 2915.78,-220.62"/>
<polygon fill="black" stroke="black" points="2917.76,-223.55 2925.2,-216.02 2914.68,-217.26 2917.76,-223.55"/>
</g>
<!-- Henri -->
<g id="node29" class="node">
<title>Henri</title>
<polygon fill="#c1c9e2" stroke="#c1c9e2" points="958,-36 904,-36 904,0 958,0 958,-36"/>
<text text-anchor="middle" x="931" y="-14.3" font-family="Times,serif" font-size="14.00">Henri</text>
</g>
<!-- Jorge Mist&#45;&gt;Henri -->
<g id="edge32" class="edge">
<title>Jorge Mist&#45;&gt;Henri</title>
<path fill="none" stroke="black" d="M2370.24,-193.48C2174.14,-175.06 1270.37,-88.71 994,-36 985.44,-34.37 976.34,-32.18 967.79,-29.92"/>
<polygon fill="black" stroke="black" points="968.65,-26.53 958.08,-27.26 966.8,-33.28 968.65,-26.53"/>
</g>
<!-- Clara -->
<g id="node30" class="node">
<title>Clara</title>
<polygon fill="#c1c9e2" stroke="#c1c9e2" points="2382,-36 2328,-36 2328,0 2382,0 2382,-36"/>
<text text-anchor="middle" x="2355" y="-14.3" font-family="Times,serif" font-size="14.00">Clara</text>
</g>
<!-- Jorge Mist&#45;&gt;Clara -->
<g id="edge33" class="edge">
<title>Jorge Mist&#45;&gt;Clara</title>
<path fill="none" stroke="black" d="M2402.92,-179.93C2393.66,-148.83 2373.98,-82.73 2362.94,-45.65"/>
<polygon fill="black" stroke="black" points="2366.27,-44.6 2360.07,-36.02 2359.57,-46.6 2366.27,-44.6"/>
</g>
<!-- Alys -->
<g id="node31" class="node">
<title>Alys</title>
<polygon fill="#c1c9e2" stroke="#c1c9e2" points="2120,-36 2066,-36 2066,0 2120,0 2120,-36"/>
<text text-anchor="middle" x="2093" y="-14.3" font-family="Times,serif" font-size="14.00">Alys</text>
</g>
<!-- Jorge Mist&#45;&gt;Alys -->
<g id="edge34" class="edge">
<title>Jorge Mist&#45;&gt;Alys</title>
<path fill="none" stroke="black" d="M2377.8,-179.93C2319.53,-147.01 2191.83,-74.85 2129.16,-39.43"/>
<polygon fill="black" stroke="black" points="2130.82,-36.35 2120.4,-34.48 2127.38,-42.45 2130.82,-36.35"/>
</g>
<!-- Paco -->
<g id="node32" class="node">
<title>Paco</title>
<polygon fill="#c1c9e2" stroke="#c1c9e2" points="2508,-36 2454,-36 2454,0 2508,0 2508,-36"/>
<text text-anchor="middle" x="2481" y="-14.3" font-family="Times,serif" font-size="14.00">Paco</text>
</g>
<!-- Jorge Mist&#45;&gt;Paco -->
<g id="edge35" class="edge">
<title>Jorge Mist&#45;&gt;Paco</title>
<path fill="none" stroke="black" d="M2415,-179.93C2427.75,-148.83 2454.86,-82.73 2470.07,-45.65"/>
<polygon fill="black" stroke="black" points="2473.47,-46.6 2474.02,-36.02 2466.99,-43.94 2473.47,-46.6"/>
</g>
<!-- Mariette -->
<g id="node33" class="node">
<title>Mariette</title>
<polygon fill="#c1c9e2" stroke="#c1c9e2" points="2255.5,-36 2192.5,-36 2192.5,0 2255.5,0 2255.5,-36"/>
<text text-anchor="middle" x="2224" y="-14.3" font-family="Times,serif" font-size="14.00">Mariette</text>
</g>
<!-- Jorge Mist&#45;&gt;Mariette -->
<g id="edge36" class="edge">
<title>Jorge Mist&#45;&gt;Mariette</title>
<path fill="none" stroke="black" d="M2390.36,-179.93C2357.52,-148.17 2286.95,-79.89 2249.14,-43.32"/>
<polygon fill="black" stroke="black" points="2251.21,-40.45 2241.59,-36.02 2246.34,-45.48 2251.21,-40.45"/>
</g>
<!-- Lili -->
<g id="node34" class="node">
<title>Lili</title>
<polygon fill="#c1c9e2" stroke="#c1c9e2" points="2634,-36 2580,-36 2580,0 2634,0 2634,-36"/>
<text text-anchor="middle" x="2607" y="-14.3" font-family="Times,serif" font-size="14.00">Lili</text>
</g>
<!-- Jorge Mist&#45;&gt;Lili -->
<g id="edge37" class="edge">
<title>Jorge Mist&#45;&gt;Lili</title>
<path fill="none" stroke="black" d="M2427.08,-179.93C2462.74,-148.04 2539.56,-79.32 2580.33,-42.86"/>
<polygon fill="black" stroke="black" points="2582.86,-45.29 2587.98,-36.02 2578.19,-40.07 2582.86,-45.29"/>
</g>
<!-- Nicolas -->
<g id="node10" class="node">
<title>Nicolas</title>
<polygon fill="#c1c9e2" stroke="#c1c9e2" points="1340,-36 1282,-36 1282,0 1340,0 1340,-36"/>
<text text-anchor="middle" x="1311" y="-14.3" font-family="Times,serif" font-size="14.00">Nicolas</text>
</g>
<!-- Logan Sharks&#45;&gt;Nicolas -->
<g id="edge46" class="edge">
<title>Logan Sharks&#45;&gt;Nicolas</title>
<path fill="none" stroke="black" d="M1482.78,-179.93C1448.74,-148.04 1375.39,-79.32 1336.47,-42.86"/>
<polygon fill="black" stroke="black" points="1338.85,-40.3 1329.16,-36.02 1334.07,-45.41 1338.85,-40.3"/>
</g>
<!-- Thomas -->
<g id="node11" class="node">
<title>Thomas</title>
<polygon fill="#c1c9e2" stroke="#c1c9e2" points="1473.5,-36 1412.5,-36 1412.5,0 1473.5,0 1473.5,-36"/>
<text text-anchor="middle" x="1443" y="-14.3" font-family="Times,serif" font-size="14.00">Thomas</text>
</g>
<!-- Logan Sharks&#45;&gt;Thomas -->
<g id="edge47" class="edge">
<title>Logan Sharks&#45;&gt;Thomas</title>
<path fill="none" stroke="black" d="M1495.44,-179.93C1485.31,-148.83 1463.77,-82.73 1451.68,-45.65"/>
<polygon fill="black" stroke="black" points="1454.97,-44.44 1448.54,-36.02 1448.31,-46.61 1454.97,-44.44"/>
</g>
<!-- Flo3 -->
<g id="node12" class="node">
<title>Flo3</title>
<polygon fill="#c1c9e2" stroke="#c1c9e2" points="1210,-36 1156,-36 1156,0 1210,0 1210,-36"/>
<text text-anchor="middle" x="1183" y="-14.3" font-family="Times,serif" font-size="14.00">Flo3</text>
</g>
<!-- Logan Sharks&#45;&gt;Flo3 -->
<g id="edge48" class="edge">
<title>Logan Sharks&#45;&gt;Flo3</title>
<path fill="none" stroke="black" d="M1470.51,-179.93C1411.54,-146.92 1282.13,-74.49 1219.02,-39.16"/>
<polygon fill="black" stroke="black" points="1220.65,-36.06 1210.21,-34.23 1217.23,-42.17 1220.65,-36.06"/>
</g>
<!-- Matthieu Sharks&#45;&gt;Lili -->
<g id="edge49" class="edge">
<title>Matthieu Sharks&#45;&gt;Lili</title>
<path fill="none" stroke="black" d="M2607,-179.93C2607,-148.97 2607,-83.3 2607,-46.13"/>
<polygon fill="black" stroke="black" points="2610.5,-46.02 2607,-36.02 2603.5,-46.02 2610.5,-46.02"/>
</g>
<!-- Camille -->
<g id="node41" class="node">
<title>Camille</title>
<polygon fill="#c1c9e2" stroke="#c1c9e2" points="2766,-36 2706,-36 2706,0 2766,0 2766,-36"/>
<text text-anchor="middle" x="2736" y="-14.3" font-family="Times,serif" font-size="14.00">Camille</text>
</g>
<!-- Matthieu Sharks&#45;&gt;Camille -->
<g id="edge50" class="edge">
<title>Matthieu Sharks&#45;&gt;Camille</title>
<path fill="none" stroke="black" d="M2619.37,-179.93C2642.2,-148.43 2691.04,-81.03 2717.71,-44.24"/>
<polygon fill="black" stroke="black" points="2720.63,-46.17 2723.67,-36.02 2714.97,-42.06 2720.63,-46.17"/>
</g>
<!-- Anaïs2 -->
<g id="node42" class="node">
<title>Anaïs2</title>
<polygon fill="#c1c9e2" stroke="#c1c9e2" points="3146,-36 3092,-36 3092,0 3146,0 3146,-36"/>
<text text-anchor="middle" x="3119" y="-14.3" font-family="Times,serif" font-size="14.00">Anaïs</text>
</g>
<!-- Paul Sharks&#45;&gt;Anaïs2 -->
<g id="edge52" class="edge">
<title>Paul Sharks&#45;&gt;Anaïs2</title>
<path fill="none" stroke="black" d="M2975.25,-179.93C3003.5,-148.3 3064.1,-80.46 3096.87,-43.78"/>
<polygon fill="black" stroke="black" points="3099.75,-45.81 3103.8,-36.02 3094.53,-41.14 3099.75,-45.81"/>
</g>
<!-- Melvin -->
<g id="node43" class="node">
<title>Melvin</title>
<polygon fill="#c1c9e2" stroke="#c1c9e2" points="3020,-36 2964,-36 2964,0 3020,0 3020,-36"/>
<text text-anchor="middle" x="2992" y="-14.3" font-family="Times,serif" font-size="14.00">Melvin</text>
</g>
<!-- Paul Sharks&#45;&gt;Melvin -->
<g id="edge53" class="edge">
<title>Paul Sharks&#45;&gt;Melvin</title>
<path fill="none" stroke="black" d="M2963.07,-179.93C2968.64,-148.97 2980.44,-83.3 2987.12,-46.13"/>
<polygon fill="black" stroke="black" points="2990.62,-46.48 2988.94,-36.02 2983.73,-45.24 2990.62,-46.48"/>
</g>
<!-- Gaspard Valhall&#39;Art -->
<g id="node6" class="node">
<title>Gaspard Valhall&#39;Art</title>
<polygon fill="#00bfff" stroke="#c1c9e2" points="2852.5,-396 2729.5,-396 2729.5,-360 2852.5,-360 2852.5,-396"/>
<text text-anchor="middle" x="2791" y="-374.3" font-family="Times,serif" font-size="14.00">Gaspard Valhall&#39;Art</text>
</g>
<!-- Gaspard Valhall&#39;Art&#45;&gt;Jorge Mist -->
<g id="edge5" class="edge">
<title>Gaspard Valhall&#39;Art&#45;&gt;Jorge Mist</title>
<path fill="none" stroke="black" d="M2754.28,-359.93C2684.07,-327.31 2530.98,-256.15 2454.05,-220.4"/>
<polygon fill="black" stroke="black" points="2455.16,-217.06 2444.61,-216.02 2452.21,-223.4 2455.16,-217.06"/>
</g>
<!-- Gaspard Valhall&#39;Art&#45;&gt;Logan Sharks -->
<g id="edge6" class="edge">
<title>Gaspard Valhall&#39;Art&#45;&gt;Logan Sharks</title>
<path fill="none" stroke="black" d="M2729.38,-365.9C2717.33,-363.84 2704.78,-361.79 2693,-360 2201.15,-285.47 2073.57,-298.55 1583,-216 1574.65,-214.6 1565.86,-212.95 1557.26,-211.25"/>
<polygon fill="black" stroke="black" points="1557.78,-207.78 1547.29,-209.23 1556.4,-214.64 1557.78,-207.78"/>
</g>
<!-- Clovis Sharks -->
<g id="node7" class="node">
<title>Clovis Sharks</title>
<polygon fill="#bdabda" stroke="#c1c9e2" points="3165,-216 3073,-216 3073,-180 3165,-180 3165,-216"/>
<text text-anchor="middle" x="3119" y="-194.3" font-family="Times,serif" font-size="14.00">Clovis Sharks</text>
</g>
<!-- Gaspard Valhall&#39;Art&#45;&gt;Clovis Sharks -->
<g id="edge7" class="edge">
<title>Gaspard Valhall&#39;Art&#45;&gt;Clovis Sharks</title>
<path fill="none" stroke="black" d="M2822.45,-359.93C2882.33,-327.44 3012.62,-256.73 3078.75,-220.84"/>
<polygon fill="black" stroke="black" points="3080.53,-223.86 3087.65,-216.02 3077.19,-217.71 3080.53,-223.86"/>
</g>
<!-- Gabriel Katan&#39;Art -->
<g id="node8" class="node">
<title>Gabriel Katan&#39;Art</title>
<polygon fill="#ffcba4" stroke="#c1c9e2" points="2847.5,-216 2734.5,-216 2734.5,-180 2847.5,-180 2847.5,-216"/>
<text text-anchor="middle" x="2791" y="-194.3" font-family="Times,serif" font-size="14.00">Gabriel Katan&#39;Art</text>
</g>
<!-- Gaspard Valhall&#39;Art&#45;&gt;Gabriel Katan&#39;Art -->
<g id="edge8" class="edge">
<title>Gaspard Valhall&#39;Art&#45;&gt;Gabriel Katan&#39;Art</title>
<path fill="none" stroke="black" d="M2791,-359.93C2791,-328.97 2791,-263.3 2791,-226.13"/>
<polygon fill="black" stroke="black" points="2794.5,-226.02 2791,-216.02 2787.5,-226.02 2794.5,-226.02"/>
</g>
<!-- Clovis Sharks&#45;&gt;Anaïs2 -->
<g id="edge51" class="edge">
<title>Clovis Sharks&#45;&gt;Anaïs2</title>
<path fill="none" stroke="black" d="M3119,-179.93C3119,-148.97 3119,-83.3 3119,-46.13"/>
<polygon fill="black" stroke="black" points="3122.5,-46.02 3119,-36.02 3115.5,-46.02 3122.5,-46.02"/>
</g>
<!-- Gabriel Katan&#39;Art&#45;&gt;Melvin -->
<g id="edge54" class="edge">
<title>Gabriel Katan&#39;Art&#45;&gt;Melvin</title>
<path fill="none" stroke="black" d="M2810.27,-179.93C2846.29,-148.04 2923.88,-79.32 2965.06,-42.86"/>
<polygon fill="black" stroke="black" points="2967.62,-45.27 2972.79,-36.02 2962.98,-40.03 2967.62,-45.27"/>
</g>
<!-- Julien -->
<g id="node44" class="node">
<title>Julien</title>
<polygon fill="#c1c9e2" stroke="#c1c9e2" points="2892,-36 2838,-36 2838,0 2892,0 2892,-36"/>
<text text-anchor="middle" x="2865" y="-14.3" font-family="Times,serif" font-size="14.00">Julien</text>
</g>
<!-- Gabriel Katan&#39;Art&#45;&gt;Julien -->
<g id="edge55" class="edge">
<title>Gabriel Katan&#39;Art&#45;&gt;Julien</title>
<path fill="none" stroke="black" d="M2798.1,-179.93C2811.02,-148.83 2838.5,-82.73 2853.92,-45.65"/>
<polygon fill="black" stroke="black" points="2857.32,-46.59 2857.93,-36.02 2850.86,-43.91 2857.32,-46.59"/>
</g>
<!-- Lucie Sharks -->
<g id="node9" class="node">
<title>Lucie Sharks</title>
<polygon fill="#bdabda" stroke="#c1c9e2" points="1227,-216 1139,-216 1139,-180 1227,-180 1227,-216"/>
<text text-anchor="middle" x="1183" y="-194.3" font-family="Times,serif" font-size="14.00">Lucie Sharks</text>
</g>
<!-- Lucie Sharks&#45;&gt;Nicolas -->
<g id="edge9" class="edge">
<title>Lucie Sharks&#45;&gt;Nicolas</title>
<path fill="none" stroke="black" d="M1195.27,-179.93C1217.92,-148.43 1266.39,-81.03 1292.85,-44.24"/>
<polygon fill="black" stroke="black" points="1295.77,-46.18 1298.76,-36.02 1290.08,-42.09 1295.77,-46.18"/>
</g>
<!-- Lucie Sharks&#45;&gt;Thomas -->
<g id="edge10" class="edge">
<title>Lucie Sharks&#45;&gt;Thomas</title>
<path fill="none" stroke="black" d="M1207.93,-179.93C1255.01,-147.7 1356.99,-77.89 1409.8,-41.73"/>
<polygon fill="black" stroke="black" points="1411.87,-44.55 1418.15,-36.02 1407.92,-38.78 1411.87,-44.55"/>
</g>
<!-- Lucie Sharks&#45;&gt;Flo3 -->
<g id="edge11" class="edge">
<title>Lucie Sharks&#45;&gt;Flo3</title>
<path fill="none" stroke="black" d="M1183,-179.93C1183,-148.97 1183,-83.3 1183,-46.13"/>
<polygon fill="black" stroke="black" points="1186.5,-46.02 1183,-36.02 1179.5,-46.02 1186.5,-46.02"/>
</g>
<!-- Lalie Valhall&#39;Art -->
<g id="node13" class="node">
<title>Lalie Valhall&#39;Art</title>
<polygon fill="#00bfff" stroke="#c1c9e2" points="1554,-396 1448,-396 1448,-360 1554,-360 1554,-396"/>
<text text-anchor="middle" x="1501" y="-374.3" font-family="Times,serif" font-size="14.00">Lalie Valhall&#39;Art</text>
</g>
<!-- Lalie Valhall&#39;Art&#45;&gt;Logan Sharks -->
<g id="edge12" class="edge">
<title>Lalie Valhall&#39;Art&#45;&gt;Logan Sharks</title>
<path fill="none" stroke="black" d="M1501,-359.93C1501,-328.97 1501,-263.3 1501,-226.13"/>
<polygon fill="black" stroke="black" points="1504.5,-226.02 1501,-216.02 1497.5,-226.02 1504.5,-226.02"/>
</g>
<!-- Virgile Sharks -->
<g id="node14" class="node">
<title>Virgile Sharks</title>
<polygon fill="#bdabda" stroke="#c1c9e2" points="1869.5,-216 1774.5,-216 1774.5,-180 1869.5,-180 1869.5,-216"/>
<text text-anchor="middle" x="1822" y="-194.3" font-family="Times,serif" font-size="14.00">Virgile Sharks</text>
</g>
<!-- Lalie Valhall&#39;Art&#45;&gt;Virgile Sharks -->
<g id="edge13" class="edge">
<title>Lalie Valhall&#39;Art&#45;&gt;Virgile Sharks</title>
<path fill="none" stroke="black" d="M1531.78,-359.93C1590.26,-327.5 1717.37,-257.02 1782.21,-221.06"/>
<polygon fill="black" stroke="black" points="1784.27,-223.93 1791.31,-216.02 1780.87,-217.8 1784.27,-223.93"/>
</g>
<!-- Lucas Sharks -->
<g id="node15" class="node">
<title>Lucas Sharks</title>
<polygon fill="#bdabda" stroke="#c1c9e2" points="975.5,-216 886.5,-216 886.5,-180 975.5,-180 975.5,-216"/>
<text text-anchor="middle" x="931" y="-194.3" font-family="Times,serif" font-size="14.00">Lucas Sharks</text>
</g>
<!-- Lalie Valhall&#39;Art&#45;&gt;Lucas Sharks -->
<g id="edge14" class="edge">
<title>Lalie Valhall&#39;Art&#45;&gt;Lucas Sharks</title>
<path fill="none" stroke="black" d="M1447.89,-360.41C1339.75,-326.64 1095.01,-250.22 985.62,-216.06"/>
<polygon fill="black" stroke="black" points="986.36,-212.62 975.77,-212.98 984.28,-219.3 986.36,-212.62"/>
</g>
<!-- Nils Mist -->
<g id="node16" class="node">
<title>Nils Mist</title>
<polygon fill="#9e0e40" stroke="#c1c9e2" points="1687,-216 1619,-216 1619,-180 1687,-180 1687,-216"/>
<text text-anchor="middle" x="1653" y="-194.3" font-family="Times,serif" font-size="14.00">Nils Mist</text>
</g>
<!-- Lalie Valhall&#39;Art&#45;&gt;Nils Mist -->
<g id="edge15" class="edge">
<title>Lalie Valhall&#39;Art&#45;&gt;Nils Mist</title>
<path fill="none" stroke="black" d="M1515.57,-359.93C1542.58,-328.3 1600.51,-260.46 1631.84,-223.78"/>
<polygon fill="black" stroke="black" points="1634.64,-225.89 1638.47,-216.02 1629.31,-221.35 1634.64,-225.89"/>
</g>
<!-- Mathis Mist -->
<g id="node17" class="node">
<title>Mathis Mist</title>
<polygon fill="#9e0e40" stroke="#c1c9e2" points="1383,-216 1299,-216 1299,-180 1383,-180 1383,-216"/>
<text text-anchor="middle" x="1341" y="-194.3" font-family="Times,serif" font-size="14.00">Mathis Mist</text>
</g>
<!-- Lalie Valhall&#39;Art&#45;&gt;Mathis Mist -->
<g id="edge16" class="edge">
<title>Lalie Valhall&#39;Art&#45;&gt;Mathis Mist</title>
<path fill="none" stroke="black" d="M1485.66,-359.93C1457.23,-328.3 1396.25,-260.46 1363.27,-223.78"/>
<polygon fill="black" stroke="black" points="1365.58,-221.11 1356.3,-216.02 1360.38,-225.79 1365.58,-221.11"/>
</g>
<!-- Virgile Sharks&#45;&gt;Alys -->
<g id="edge38" class="edge">
<title>Virgile Sharks&#45;&gt;Alys</title>
<path fill="none" stroke="black" d="M1847.98,-179.93C1897.15,-147.64 2003.79,-77.6 2058.74,-41.51"/>
<polygon fill="black" stroke="black" points="2060.66,-44.43 2067.09,-36.02 2056.81,-38.58 2060.66,-44.43"/>
</g>
<!-- Clément -->
<g id="node35" class="node">
<title>Clément</title>
<polygon fill="#c1c9e2" stroke="#c1c9e2" points="1608.5,-36 1545.5,-36 1545.5,0 1608.5,0 1608.5,-36"/>
<text text-anchor="middle" x="1577" y="-14.3" font-family="Times,serif" font-size="14.00">Clément</text>
</g>
<!-- Virgile Sharks&#45;&gt;Clément -->
<g id="edge39" class="edge">
<title>Virgile Sharks&#45;&gt;Clément</title>
<path fill="none" stroke="black" d="M1798.51,-179.93C1754.24,-147.77 1658.45,-78.17 1608.59,-41.95"/>
<polygon fill="black" stroke="black" points="1610.57,-39.06 1600.42,-36.02 1606.45,-44.73 1610.57,-39.06"/>
</g>
<!-- Adam -->
<g id="node36" class="node">
<title>Adam</title>
<polygon fill="#c1c9e2" stroke="#c1c9e2" points="1735,-36 1681,-36 1681,0 1735,0 1735,-36"/>
<text text-anchor="middle" x="1708" y="-14.3" font-family="Times,serif" font-size="14.00">Adam</text>
</g>
<!-- Virgile Sharks&#45;&gt;Adam -->
<g id="edge40" class="edge">
<title>Virgile Sharks&#45;&gt;Adam</title>
<path fill="none" stroke="black" d="M1811.07,-179.93C1790.98,-148.57 1748.09,-81.6 1724.46,-44.71"/>
<polygon fill="black" stroke="black" points="1727.24,-42.55 1718.9,-36.02 1721.34,-46.32 1727.24,-42.55"/>
</g>
<!-- Laurine -->
<g id="node37" class="node">
<title>Laurine</title>
<polygon fill="#c1c9e2" stroke="#c1c9e2" points="1866.5,-36 1807.5,-36 1807.5,0 1866.5,0 1866.5,-36"/>
<text text-anchor="middle" x="1837" y="-14.3" font-family="Times,serif" font-size="14.00">Laurine</text>
</g>
<!-- Virgile Sharks&#45;&gt;Laurine -->
<g id="edge41" class="edge">
<title>Virgile Sharks&#45;&gt;Laurine</title>
<path fill="none" stroke="black" d="M1823.44,-179.93C1826.05,-148.97 1831.58,-83.3 1834.71,-46.13"/>
<polygon fill="black" stroke="black" points="1838.21,-46.27 1835.57,-36.02 1831.24,-45.69 1838.21,-46.27"/>
</g>
<!-- Gaétan -->
<g id="node38" class="node">
<title>Gaétan</title>
<polygon fill="#c1c9e2" stroke="#c1c9e2" points="1993.5,-36 1938.5,-36 1938.5,0 1993.5,0 1993.5,-36"/>
<text text-anchor="middle" x="1966" y="-14.3" font-family="Times,serif" font-size="14.00">Gaétan</text>
</g>
<!-- Virgile Sharks&#45;&gt;Gaétan -->
<g id="edge42" class="edge">
<title>Virgile Sharks&#45;&gt;Gaétan</title>
<path fill="none" stroke="black" d="M1835.81,-179.93C1861.29,-148.43 1915.82,-81.03 1945.58,-44.24"/>
<polygon fill="black" stroke="black" points="1948.67,-45.99 1952.23,-36.02 1943.22,-41.59 1948.67,-45.99"/>
</g>
<!-- Lucas Sharks&#45;&gt;Henri -->
<g id="edge56" class="edge">
<title>Lucas Sharks&#45;&gt;Henri</title>
<path fill="none" stroke="black" d="M931,-179.93C931,-148.97 931,-83.3 931,-46.13"/>
<polygon fill="black" stroke="black" points="934.5,-46.02 931,-36.02 927.5,-46.02 934.5,-46.02"/>
</g>
<!-- Charlotte -->
<g id="node45" class="node">
<title>Charlotte</title>
<polygon fill="#c1c9e2" stroke="#c1c9e2" points="705.5,-36 638.5,-36 638.5,0 705.5,0 705.5,-36"/>
<text text-anchor="middle" x="672" y="-14.3" font-family="Times,serif" font-size="14.00">Charlotte</text>
</g>
<!-- Lucas Sharks&#45;&gt;Charlotte -->
<g id="edge57" class="edge">
<title>Lucas Sharks&#45;&gt;Charlotte</title>
<path fill="none" stroke="black" d="M906.17,-179.93C859.27,-147.7 757.68,-77.89 705.07,-41.73"/>
<polygon fill="black" stroke="black" points="706.98,-38.8 696.76,-36.02 703.02,-44.56 706.98,-38.8"/>
</g>
<!-- Lou -->
<g id="node46" class="node">
<title>Lou</title>
<polygon fill="#c1c9e2" stroke="#c1c9e2" points="832,-36 778,-36 778,0 832,0 832,-36"/>
<text text-anchor="middle" x="805" y="-14.3" font-family="Times,serif" font-size="14.00">Lou</text>
</g>
<!-- Lucas Sharks&#45;&gt;Lou -->
<g id="edge58" class="edge">
<title>Lucas Sharks&#45;&gt;Lou</title>
<path fill="none" stroke="black" d="M918.92,-179.93C896.62,-148.43 848.91,-81.03 822.87,-44.24"/>
<polygon fill="black" stroke="black" points="825.68,-42.16 817.04,-36.02 819.97,-46.2 825.68,-42.16"/>
</g>
<!-- Amaël -->
<g id="node47" class="node">
<title>Amaël</title>
<polygon fill="#c1c9e2" stroke="#c1c9e2" points="1084,-36 1030,-36 1030,0 1084,0 1084,-36"/>
<text text-anchor="middle" x="1057" y="-14.3" font-family="Times,serif" font-size="14.00">Amaël</text>
</g>
<!-- Lucas Sharks&#45;&gt;Amaël -->
<g id="edge59" class="edge">
<title>Lucas Sharks&#45;&gt;Amaël</title>
<path fill="none" stroke="black" d="M943.08,-179.93C965.38,-148.43 1013.09,-81.03 1039.13,-44.24"/>
<polygon fill="black" stroke="black" points="1042.03,-46.2 1044.96,-36.02 1036.32,-42.16 1042.03,-46.2"/>
</g>
<!-- Nils Mist&#45;&gt;Clément -->
<g id="edge60" class="edge">
<title>Nils Mist&#45;&gt;Clément</title>
<path fill="none" stroke="black" d="M1645.71,-179.93C1632.43,-148.83 1604.21,-82.73 1588.38,-45.65"/>
<polygon fill="black" stroke="black" points="1591.41,-43.84 1584.27,-36.02 1584.97,-46.59 1591.41,-43.84"/>
</g>
<!-- Quentin Valhall&#39;Art -->
<g id="node18" class="node">
<title>Quentin Valhall&#39;Art</title>
<polygon fill="#00bfff" stroke="#c1c9e2" points="3312,-396 3190,-396 3190,-360 3312,-360 3312,-396"/>
<text text-anchor="middle" x="3251" y="-374.3" font-family="Times,serif" font-size="14.00">Quentin Valhall&#39;Art</text>
</g>
<!-- Olivier Katan&#39;Art -->
<g id="node19" class="node">
<title>Olivier Katan&#39;Art</title>
<polygon fill="#ffcba4" stroke="#c1c9e2" points="3348.5,-216 3237.5,-216 3237.5,-180 3348.5,-180 3348.5,-216"/>
<text text-anchor="middle" x="3293" y="-194.3" font-family="Times,serif" font-size="14.00">Olivier Katan&#39;Art</text>
</g>
<!-- Quentin Valhall&#39;Art&#45;&gt;Olivier Katan&#39;Art -->
<g id="edge17" class="edge">
<title>Quentin Valhall&#39;Art&#45;&gt;Olivier Katan&#39;Art</title>
<path fill="none" stroke="black" d="M3255.03,-359.93C3262.33,-328.97 3277.83,-263.3 3286.6,-226.13"/>
<polygon fill="black" stroke="black" points="3290.09,-226.55 3288.99,-216.02 3283.28,-224.94 3290.09,-226.55"/>
</g>
<!-- Maxime Pulsar -->
<g id="node20" class="node">
<title>Maxime Pulsar</title>
<polygon fill="#a300a3" stroke="#c1c9e2" points="2841.5,-576 2740.5,-576 2740.5,-540 2841.5,-540 2841.5,-576"/>
<text text-anchor="middle" x="2791" y="-554.3" font-family="Times,serif" font-size="14.00">Maxime Pulsar</text>
</g>
<!-- Maxime Pulsar&#45;&gt;Antoine Valhall&#39;Art -->
<g id="edge18" class="edge">
<title>Maxime Pulsar&#45;&gt;Antoine Valhall&#39;Art</title>
<path fill="none" stroke="black" d="M2772.3,-539.93C2737.36,-508.04 2662.08,-439.32 2622.14,-402.86"/>
<polygon fill="black" stroke="black" points="2624.39,-400.17 2614.64,-396.02 2619.67,-405.34 2624.39,-400.17"/>
</g>
<!-- Maxime Pulsar&#45;&gt;Gaspard Valhall&#39;Art -->
<g id="edge19" class="edge">
<title>Maxime Pulsar&#45;&gt;Gaspard Valhall&#39;Art</title>
<path fill="none" stroke="black" d="M2791,-539.93C2791,-508.97 2791,-443.3 2791,-406.13"/>
<polygon fill="black" stroke="black" points="2794.5,-406.02 2791,-396.02 2787.5,-406.02 2794.5,-406.02"/>
</g>
<!-- Maxime Pulsar&#45;&gt;Clovis Sharks -->
<g id="edge20" class="edge">
<title>Maxime Pulsar&#45;&gt;Clovis Sharks</title>
<path fill="none" stroke="black" d="M2806.82,-539.73C2860.19,-481.48 3033.74,-292.06 3096.28,-223.8"/>
<polygon fill="black" stroke="black" points="3099.16,-225.83 3103.34,-216.09 3094,-221.1 3099.16,-225.83"/>
</g>
<!-- Maxime Pulsar&#45;&gt;Lalie Valhall&#39;Art -->
<g id="edge21" class="edge">
<title>Maxime Pulsar&#45;&gt;Lalie Valhall&#39;Art</title>
<path fill="none" stroke="black" d="M2740.43,-550.02C2538.11,-522.11 1787.15,-418.48 1563.95,-387.69"/>
<polygon fill="black" stroke="black" points="1564.43,-384.22 1554.04,-386.32 1563.47,-391.15 1564.43,-384.22"/>
</g>
<!-- Maxime Pulsar&#45;&gt;Quentin Valhall&#39;Art -->
<g id="edge22" class="edge">
<title>Maxime Pulsar&#45;&gt;Quentin Valhall&#39;Art</title>
<path fill="none" stroke="black" d="M2835.11,-539.93C2920.03,-507.07 3105.93,-435.14 3197.65,-399.64"/>
<polygon fill="black" stroke="black" points="3198.96,-402.89 3207.03,-396.02 3196.44,-396.36 3198.96,-402.89"/>
</g>
<!-- Yanis Pulsar -->
<g id="node21" class="node">
<title>Yanis Pulsar</title>
<polygon fill="#a300a3" stroke="#c1c9e2" points="1384.5,-576 1299.5,-576 1299.5,-540 1384.5,-540 1384.5,-576"/>
<text text-anchor="middle" x="1342" y="-554.3" font-family="Times,serif" font-size="14.00">Yanis Pulsar</text>
</g>
<!-- Yanis Pulsar&#45;&gt;Lalie Valhall&#39;Art -->
<g id="edge23" class="edge">
<title>Yanis Pulsar&#45;&gt;Lalie Valhall&#39;Art</title>
<path fill="none" stroke="black" d="M1357.25,-539.93C1385.5,-508.3 1446.1,-440.46 1478.87,-403.78"/>
<polygon fill="black" stroke="black" points="1481.75,-405.81 1485.8,-396.02 1476.53,-401.14 1481.75,-405.81"/>
</g>
<!-- Robin Horn -->
<g id="node22" class="node">
<title>Robin Horn</title>
<polygon fill="#f2be00" stroke="#c1c9e2" points="1223.5,-396 1142.5,-396 1142.5,-360 1223.5,-360 1223.5,-396"/>
<text text-anchor="middle" x="1183" y="-374.3" font-family="Times,serif" font-size="14.00">Robin Horn</text>
</g>
<!-- Yanis Pulsar&#45;&gt;Robin Horn -->
<g id="edge24" class="edge">
<title>Yanis Pulsar&#45;&gt;Robin Horn</title>
<path fill="none" stroke="black" d="M1326.75,-539.93C1298.5,-508.3 1237.9,-440.46 1205.13,-403.78"/>
<polygon fill="black" stroke="black" points="1207.47,-401.14 1198.2,-396.02 1202.25,-405.81 1207.47,-401.14"/>
</g>
<!-- Vincent Valhall&#39;Art -->
<g id="node23" class="node">
<title>Vincent Valhall&#39;Art</title>
<polygon fill="#00bfff" stroke="#c1c9e2" points="570.5,-396 449.5,-396 449.5,-360 570.5,-360 570.5,-396"/>
<text text-anchor="middle" x="510" y="-374.3" font-family="Times,serif" font-size="14.00">Vincent Valhall&#39;Art</text>
</g>
<!-- Yanis Pulsar&#45;&gt;Vincent Valhall&#39;Art -->
<g id="edge25" class="edge">
<title>Yanis Pulsar&#45;&gt;Vincent Valhall&#39;Art</title>
<path fill="none" stroke="black" d="M1299.31,-547.87C1164.63,-519.05 747.78,-429.87 580.51,-394.09"/>
<polygon fill="black" stroke="black" points="581.09,-390.63 570.58,-391.96 579.62,-397.47 581.09,-390.63"/>
</g>
<!-- Thaïs Dice -->
<g id="node24" class="node">
<title>Thaïs Dice</title>
<polygon fill="#ff4d5c" stroke="#c1c9e2" points="1860,-396 1784,-396 1784,-360 1860,-360 1860,-396"/>
<text text-anchor="middle" x="1822" y="-374.3" font-family="Times,serif" font-size="14.00">Thaïs Dice</text>
</g>
<!-- Yanis Pulsar&#45;&gt;Thaïs Dice -->
<g id="edge26" class="edge">
<title>Yanis Pulsar&#45;&gt;Thaïs Dice</title>
<path fill="none" stroke="black" d="M1384.6,-541.2C1474.01,-508.05 1680.72,-431.39 1774.36,-396.67"/>
<polygon fill="black" stroke="black" points="1775.71,-399.9 1783.87,-393.14 1773.28,-393.34 1775.71,-399.9"/>
</g>
<!-- Robin Horn&#45;&gt;Lucie Sharks -->
<g id="edge28" class="edge">
<title>Robin Horn&#45;&gt;Lucie Sharks</title>
<path fill="none" stroke="black" d="M1183,-359.93C1183,-328.97 1183,-263.3 1183,-226.13"/>
<polygon fill="black" stroke="black" points="1186.5,-226.02 1183,-216.02 1179.5,-226.02 1186.5,-226.02"/>
</g>
<!-- Adrien Gold -->
<g id="node26" class="node">
<title>Adrien Gold</title>
<polygon fill="#ffffff" stroke="#c1c9e2" points="743.5,-216 658.5,-216 658.5,-180 743.5,-180 743.5,-216"/>
<text text-anchor="middle" x="701" y="-194.3" font-family="Times,serif" font-size="14.00">Adrien Gold</text>
</g>
<!-- Robin Horn&#45;&gt;Adrien Gold -->
<g id="edge29" class="edge">
<title>Robin Horn&#45;&gt;Adrien Gold</title>
<path fill="none" stroke="black" d="M1142.32,-361.98C1055.1,-329.77 850.18,-254.09 753.39,-218.35"/>
<polygon fill="black" stroke="black" points="754.4,-214.99 743.81,-214.81 751.97,-221.56 754.4,-214.99"/>
</g>
<!-- Flavien Sharks -->
<g id="node27" class="node">
<title>Flavien Sharks</title>
<polygon fill="#bdabda" stroke="#c1c9e2" points="289,-216 191,-216 191,-180 289,-180 289,-216"/>
<text text-anchor="middle" x="240" y="-194.3" font-family="Times,serif" font-size="14.00">Flavien Sharks</text>
</g>
<!-- Vincent Valhall&#39;Art&#45;&gt;Flavien Sharks -->
<g id="edge30" class="edge">
<title>Vincent Valhall&#39;Art&#45;&gt;Flavien Sharks</title>
<path fill="none" stroke="black" d="M484.11,-359.93C435.22,-327.7 329.32,-257.89 274.48,-221.73"/>
<polygon fill="black" stroke="black" points="276.09,-218.6 265.81,-216.02 272.23,-224.44 276.09,-218.6"/>
</g>
<!-- Zoé Mist -->
<g id="node28" class="node">
<title>Zoé Mist</title>
<polygon fill="#9e0e40" stroke="#c1c9e2" points="543.5,-216 476.5,-216 476.5,-180 543.5,-180 543.5,-216"/>
<text text-anchor="middle" x="510" y="-194.3" font-family="Times,serif" font-size="14.00">Zoé Mist</text>
</g>
<!-- Vincent Valhall&#39;Art&#45;&gt;Zoé Mist -->
<g id="edge31" class="edge">
<title>Vincent Valhall&#39;Art&#45;&gt;Zoé Mist</title>
<path fill="none" stroke="black" d="M510,-359.93C510,-328.97 510,-263.3 510,-226.13"/>
<polygon fill="black" stroke="black" points="513.5,-226.02 510,-216.02 506.5,-226.02 513.5,-226.02"/>
</g>
<!-- Théo Gold -->
<g id="node25" class="node">
<title>Théo Gold</title>
<polygon fill="#ffffff" stroke="#c1c9e2" points="2139.5,-216 2064.5,-216 2064.5,-180 2139.5,-180 2139.5,-216"/>
<text text-anchor="middle" x="2102" y="-194.3" font-family="Times,serif" font-size="14.00">Théo Gold</text>
</g>
<!-- Thaïs Dice&#45;&gt;Théo Gold -->
<g id="edge27" class="edge">
<title>Thaïs Dice&#45;&gt;Théo Gold</title>
<path fill="none" stroke="black" d="M1848.85,-359.93C1899.65,-327.64 2009.82,-257.6 2066.6,-221.51"/>
<polygon fill="black" stroke="black" points="2068.67,-224.33 2075.23,-216.02 2064.92,-218.43 2068.67,-224.33"/>
</g>
<!-- Théo Gold&#45;&gt;Mariette -->
<g id="edge66" class="edge">
<title>Théo Gold&#45;&gt;Mariette</title>
<path fill="none" stroke="black" d="M2113.7,-179.93C2135.2,-148.57 2181.09,-81.6 2206.38,-44.71"/>
<polygon fill="black" stroke="black" points="2209.57,-46.24 2212.34,-36.02 2203.8,-42.29 2209.57,-46.24"/>
</g>
<!-- Adrien Gold&#45;&gt;Charlotte -->
<g id="edge65" class="edge">
<title>Adrien Gold&#45;&gt;Charlotte</title>
<path fill="none" stroke="black" d="M698.22,-179.93C693.17,-148.97 682.48,-83.3 676.42,-46.13"/>
<polygon fill="black" stroke="black" points="679.83,-45.32 674.77,-36.02 672.93,-46.45 679.83,-45.32"/>
</g>
<!-- Flavien Sharks&#45;&gt;Henri -->
<g id="edge43" class="edge">
<title>Flavien Sharks&#45;&gt;Henri</title>
<path fill="none" stroke="black" d="M289.31,-184.58C395.32,-157.84 652.75,-92.63 868,-36 876.43,-33.78 885.47,-31.36 894.01,-29.06"/>
<polygon fill="black" stroke="black" points="894.99,-32.43 903.73,-26.44 893.16,-25.67 894.99,-32.43"/>
</g>
<!-- Anaïs1 -->
<g id="node39" class="node">
<title>Anaïs1</title>
<polygon fill="#c1c9e2" stroke="#c1c9e2" points="54,-36 0,-36 0,0 54,0 54,-36"/>
<text text-anchor="middle" x="27" y="-14.3" font-family="Times,serif" font-size="14.00">Anaïs</text>
</g>
<!-- Flavien Sharks&#45;&gt;Anaïs1 -->
<g id="edge44" class="edge">
<title>Flavien Sharks&#45;&gt;Anaïs1</title>
<path fill="none" stroke="black" d="M219.58,-179.93C181.33,-147.97 98.84,-79.04 55.28,-42.63"/>
<polygon fill="black" stroke="black" points="57.28,-39.74 47.36,-36.02 52.79,-45.11 57.28,-39.74"/>
</g>
<!-- Sarah -->
<g id="node40" class="node">
<title>Sarah</title>
<polygon fill="#c1c9e2" stroke="#c1c9e2" points="180,-36 126,-36 126,0 180,0 180,-36"/>
<text text-anchor="middle" x="153" y="-14.3" font-family="Times,serif" font-size="14.00">Sarah</text>
</g>
<!-- Flavien Sharks&#45;&gt;Sarah -->
<g id="edge45" class="edge">
<title>Flavien Sharks&#45;&gt;Sarah</title>
<path fill="none" stroke="black" d="M231.66,-179.93C216.39,-148.7 183.87,-82.17 165.8,-45.18"/>
<polygon fill="black" stroke="black" points="168.85,-43.46 161.32,-36.02 162.56,-46.54 168.85,-43.46"/>
</g>
<!-- Zoé Mist&#45;&gt;Flo3 -->
<g id="edge61" class="edge">
<title>Zoé Mist&#45;&gt;Flo3</title>
<path fill="none" stroke="black" d="M543.74,-188.16C636.04,-163.98 900.41,-94.6 1120,-36 1128.42,-33.75 1137.46,-31.32 1146,-29.02"/>
<polygon fill="black" stroke="black" points="1146.98,-32.38 1155.72,-26.4 1145.15,-25.62 1146.98,-32.38"/>
</g>
<!-- Robin -->
<g id="node48" class="node">
<title>Robin</title>
<polygon fill="#c1c9e2" stroke="#c1c9e2" points="306,-36 252,-36 252,0 306,0 306,-36"/>
<text text-anchor="middle" x="279" y="-14.3" font-family="Times,serif" font-size="14.00">Robin</text>
</g>
<!-- Zoé Mist&#45;&gt;Robin -->
<g id="edge62" class="edge">
<title>Zoé Mist&#45;&gt;Robin</title>
<path fill="none" stroke="black" d="M487.85,-179.93C446.2,-147.84 356.17,-78.46 309.08,-42.18"/>
<polygon fill="black" stroke="black" points="311.14,-39.35 301.08,-36.02 306.87,-44.89 311.14,-39.35"/>
</g>
<!-- Antoine -->
<g id="node49" class="node">
<title>Antoine</title>
<polygon fill="#c1c9e2" stroke="#c1c9e2" points="438,-36 378,-36 378,0 438,0 438,-36"/>
<text text-anchor="middle" x="408" y="-14.3" font-family="Times,serif" font-size="14.00">Antoine</text>
</g>
<!-- Zoé Mist&#45;&gt;Antoine -->
<g id="edge63" class="edge">
<title>Zoé Mist&#45;&gt;Antoine</title>
<path fill="none" stroke="black" d="M500.22,-179.93C482.25,-148.57 443.87,-81.6 422.73,-44.71"/>
<polygon fill="black" stroke="black" points="425.76,-42.95 417.75,-36.02 419.69,-46.43 425.76,-42.95"/>
</g>
<!-- Emélie -->
<g id="node50" class="node">
<title>Emélie</title>
<polygon fill="#c1c9e2" stroke="#c1c9e2" points="566,-36 510,-36 510,0 566,0 566,-36"/>
<text text-anchor="middle" x="538" y="-14.3" font-family="Times,serif" font-size="14.00">Emélie</text>
</g>
<!-- Zoé Mist&#45;&gt;Emélie -->
<g id="edge64" class="edge">
<title>Zoé Mist&#45;&gt;Emélie</title>
<path fill="none" stroke="black" d="M512.68,-179.93C517.56,-148.97 527.89,-83.3 533.73,-46.13"/>
<polygon fill="black" stroke="black" points="537.23,-46.44 535.32,-36.02 530.31,-45.35 537.23,-46.44"/>
</g>
</g>
</svg>
